<svg id="baseline-phonelink_ring-24px" xmlns="http://www.w3.org/2000/svg" width="38.935" height="38.935" viewBox="0 0 38.935 38.935">
  <path id="Path_873" data-name="Path 873" d="M0,0H38.935V38.935H0Z" fill="none"/>
  <path id="Path_874" data-name="Path 874" d="M31.364,11.869l-1.622,1.622a7.441,7.441,0,0,1,0,10.545l1.622,1.622a9.335,9.335,0,0,0,0-13.79Zm-3.407,3.407L26.335,16.9a3.165,3.165,0,0,1,0,3.731l1.622,1.622A4.9,4.9,0,0,0,27.957,15.276ZM21.468,1H5.245A3.254,3.254,0,0,0,2,4.245v29.2a3.254,3.254,0,0,0,3.245,3.245H21.468a3.254,3.254,0,0,0,3.245-3.245V4.245A3.254,3.254,0,0,0,21.468,1Zm0,30.824H5.245V5.867H21.468Z" transform="translate(1.245 0.622)"/>
</svg>
