<?xml version="1.0" encoding="utf-8"?>
<svg viewBox="138.227 131.294 36.743 36.743" xmlns="http://www.w3.org/2000/svg">
  <g id="INSTAGRAM" transform="matrix(2.169256, 0, 0, 2.169256, 138.229157, 131.29424)">
    <path id="Path_24" data-name="Path 24" d="M112.715,63.435a8.469,8.469,0,1,1-8.469-8.469,8.469,8.469,0,0,1,8.469,8.469" transform="translate(-95.778 -54.966)" fill="#e3000f"/>
    <path id="Path_25" data-name="Path 25" d="M118.236,65.964a.491.491,0,1,0,.491.491.491.491,0,0,0-.491-.491" transform="translate(-107.108 -60.638)" fill="#fff"/>
    <path id="Path_26" data-name="Path 26" d="M110.509,67.524a2.062,2.062,0,1,0,2.062,2.062,2.064,2.064,0,0,0-2.062-2.062m0,3.383a1.321,1.321,0,1,1,1.321-1.321,1.322,1.322,0,0,1-1.321,1.321" transform="translate(-101.996 -61.13)" fill="#fff"/>
    <path id="Path_27" data-name="Path 27" d="M110.814,73.289h-4.4a3.316,3.316,0,0,1-3.312-3.312v-4.4a3.316,3.316,0,0,1,3.312-3.312h4.4a3.316,3.316,0,0,1,3.313,3.312v4.4a3.316,3.316,0,0,1-3.313,3.312m-4.4-9.991a2.277,2.277,0,0,0-2.275,2.275v4.4a2.278,2.278,0,0,0,2.275,2.275h4.4a2.278,2.278,0,0,0,2.276-2.275v-4.4a2.278,2.278,0,0,0-2.276-2.275Z" transform="translate(-100.144 -59.316)" fill="#fff"/>
  </g>
</svg>