<?xml version="1.0" encoding="utf-8"?>
<svg viewBox="370.319 131.294 36.753 36.749" xmlns="http://www.w3.org/2000/svg">
  <g id="PINTEREST" transform="matrix(2.169256, 0, 0, 2.169256, 370.339546, 131.29424)">
    <path id="Path_30" data-name="Path 30" d="M271.329,3.455a8.466,8.466,0,0,0-3.455,16.2c-.01-.238-.02-.476-.012-.715.027-.824.129-1.106,1.19-5.571a.306.306,0,0,0-.024-.186,3.138,3.138,0,0,1-.082-2.087c.481-1.523,2.207-1.64,2.509-.383.186.777-.306,1.794-.684,3.3-.313,1.241,1.147,2.123,2.395,1.217,1.151-.834,1.6-2.836,1.513-4.254-.167-2.828-3.268-3.439-5.236-2.528-2.255,1.043-2.768,3.839-1.75,5.116.129.163.229.262.186.427-.066.256-.124.514-.194.768a.272.272,0,0,1-.4.18,2.307,2.307,0,0,1-.942-.706,4.464,4.464,0,0,1,.031-4.982A5.986,5.986,0,0,1,272.146,6.7a4.89,4.89,0,0,1,4.5,4.039,6.724,6.724,0,0,1-1.235,4.726c-1.465,1.817-3.84,1.938-4.936.822-.084-.085-.152-.186-.235-.288-.012.041-.023.076-.032.111a12.08,12.08,0,0,1-1.125,3.476c-.084.147-.176.288-.266.43a8.469,8.469,0,1,0,2.513-16.558" transform="translate(-262.861 -3.455)" fill="#e3000f"/>
  </g>
</svg>