<?xml version="1.0" encoding="utf-8"?>
<svg viewBox="276.953 131.184 36.847 36.847" xmlns="http://www.w3.org/2000/svg">
  <g id="AIRBNB" transform="matrix(2.169256, 0, 0, 2.169256, 277.061539, 131.29424)">
    <path id="Union_2" data-name="Union 2" d="M8.437,16.935a8.493,8.493,0,1,1,.012,0ZM7.552,3.277a2.338,2.338,0,0,0-.686.863c-.83,1.614-1.647,3.236-2.405,4.885a12.6,12.6,0,0,0-.523,1.222,2.118,2.118,0,0,0,.945,2.525,2.2,2.2,0,0,0,2.09.08,4.4,4.4,0,0,0,1.421-1.066l.12-.128c.036.039.065.072.1.1.274.245.536.5.826.73a2.615,2.615,0,0,0,1.494.579,2.169,2.169,0,0,0,2.209-2.74,8.489,8.489,0,0,0-.467-1.12c-.776-1.7-1.609-3.374-2.474-5.031a3.607,3.607,0,0,0-.425-.639,1.614,1.614,0,0,0-1.243-.58A1.663,1.663,0,0,0,7.552,3.277ZM5.3,12.3a1.487,1.487,0,0,1-.752-1.828,10.644,10.644,0,0,1,.46-1.073Q6.182,6.853,7.488,4.376a1.382,1.382,0,0,1,.562-.628,1.053,1.053,0,0,1,1.394.376,7.352,7.352,0,0,1,.445.807q1.1,2.244,2.189,4.494a7.1,7.1,0,0,1,.433,1.032,1.51,1.51,0,0,1-.867,1.876,1.682,1.682,0,0,1-1.474-.124,4.27,4.27,0,0,1-1.085-.874c-.044-.046-.086-.093-.13-.14.137-.185.278-.365.408-.552A5.036,5.036,0,0,0,10.137,9.1a2.168,2.168,0,0,0,.021-1.274A1.666,1.666,0,0,0,8.544,6.687a1.68,1.68,0,0,0-1.7,1.29,2.28,2.28,0,0,0,.1,1.236,5.96,5.96,0,0,0,.949,1.724c.064.086.131.171.2.265l-.12.13a4.031,4.031,0,0,1-1.192.933,1.848,1.848,0,0,1-.8.2A1.542,1.542,0,0,1,5.3,12.3ZM7.534,8.917a1.715,1.715,0,0,1-.065-.742A1,1,0,0,1,8.4,7.311a1.02,1.02,0,0,1,1.175.823A1.651,1.651,0,0,1,9.5,8.95a5.627,5.627,0,0,1-.98,1.727A5.374,5.374,0,0,1,7.534,8.917Z" transform="translate(0 0)" fill="#e3000f" stroke="rgba(0,0,0,0)" stroke-width="1"/>
  </g>
</svg>