<?xml version="1.0" encoding="utf-8"?>
<svg viewBox="231.505 131.294 36.743 36.743" xmlns="http://www.w3.org/2000/svg">
  <g id="WHATSAPP" transform="matrix(2.169256, 0, 0, 2.169256, 231.507164, 131.29424)">
    <path id="Path_32" data-name="Path 32" d="M283.057,71.83a8.469,8.469,0,1,1-8.469-8.469,8.469,8.469,0,0,1,8.469,8.469" transform="translate(-266.12 -63.361)" fill="#e3000f"/>
    <path id="Path_33" data-name="Path 33" d="M274.253,81.449l.786-2.932A5.428,5.428,0,1,1,277.2,80.66Zm3.1-1.888.186.111a4.4,4.4,0,1,0-1.508-1.493l.114.186L275.7,80Z" transform="translate(-270.97 -67.612)" fill="#fff"/>
    <path id="Path_34" data-name="Path 34" d="M283.211,78.453a.69.69,0,0,0-.587-.132c-.153.063-.25.3-.349.423a.146.146,0,0,1-.189.041,2.658,2.658,0,0,1-1.328-1.137.163.163,0,0,1,.02-.222.9.9,0,0,0,.241-.392.859.859,0,0,0-.108-.464,1.1,1.1,0,0,0-.342-.515.469.469,0,0,0-.509.075,1.033,1.033,0,0,0-.358.819,1.149,1.149,0,0,0,.032.26,2.153,2.153,0,0,0,.249.574,4.5,4.5,0,0,0,.26.4,4.01,4.01,0,0,0,1.129,1.048,3.41,3.41,0,0,0,.7.335,1.563,1.563,0,0,0,.819.129.992.992,0,0,0,.743-.553.482.482,0,0,0,.034-.282c-.042-.194-.306-.31-.463-.4" transform="translate(-272.806 -69.622)" fill="#fff"/>
  </g>
</svg>