<?xml version="1.0" encoding="utf-8"?>
<svg viewBox="185.951 131.294 36.743 36.743" xmlns="http://www.w3.org/2000/svg">
  <g id="YT" transform="matrix(2.169256, 0, 0, 2.169256, 185.952789, 131.29424)">
    <path id="Path_35" data-name="Path 35" d="M280.687,129.911a8.469,8.469,0,1,1-8.469-8.469,8.469,8.469,0,0,1,8.469,8.469" transform="translate(-263.75 -121.442)" fill="#e3000f"/>
    <path id="Path_36" data-name="Path 36" d="M282.024,134.073c0-.947-1.029-1.715-2.3-1.715h-5.874c-1.269,0-2.3.768-2.3,1.715v2.04c0,.947,1.029,1.715,2.3,1.715h5.874c1.269,0,2.3-.768,2.3-1.715Zm-3.455,1.173-2.634.973c-.1.042-.454-.014-.454-.1v-2c0-.089.354-.145.457-.1l2.522,1.024c.106.045.217.159.11.2" transform="translate(-268.404 -126.624)" fill="#fff"/>
  </g>
</svg>