<?xml version="1.0" encoding="utf-8"?>
<svg viewBox="324.785 131.294 36.741 36.738" xmlns="http://www.w3.org/2000/svg">
  <g id="TRIPADVISOR" transform="matrix(2.169256, 0, 0, 2.169256, 324.785171, 131.29424)">
    <g id="Group_5" data-name="Group 5">
      <path id="Path_37" data-name="Path 37" d="M7.97,0h.992A.912.912,0,0,0,9.09.027,7.84,7.84,0,0,1,12.427.99,8.312,8.312,0,0,1,16.92,8.114a7.753,7.753,0,0,1-.983,4.325A8.3,8.3,0,0,1,8.822,16.92,7.85,7.85,0,0,1,4.5,15.939a8.342,8.342,0,0,1-4.362-6C.072,9.618.044,9.289,0,8.963V7.971a1.125,1.125,0,0,0,.028-.143A7.965,7.965,0,0,1,.994,4.493a8.355,8.355,0,0,1,6-4.36C7.314.072,7.644.044,7.97,0" fill="#e3000f"/>
      <path id="Path_40" data-name="Path 40" d="M9.643,22.709c.659,0,1.277,0,1.9,0a.805.805,0,0,0,.337-.079,9.844,9.844,0,0,1,5.033-.942,9.066,9.066,0,0,1,3.207.734.38.38,0,0,1,.061.027,1.921,1.921,0,0,0,1.2.252c.412-.017.825,0,1.237,0,.077,0,.155.006.256.01l-.081.117c-.1.151-.212.3-.308.453-.183.294-.346.591.009.882a2.554,2.554,0,0,1-1.111,3.686,3.779,3.779,0,0,1-4.035-.287c-.125-.1-.243-.2-.378-.318l-.706.888-.7-.883c-.12.1-.226.2-.343.295a3.736,3.736,0,0,1-4.689-.164,2.471,2.471,0,0,1-.344-3.4.267.267,0,0,0,.05-.334c-.157-.257-.309-.517-.466-.774a1.846,1.846,0,0,0-.121-.154m9.922,5.018A2.462,2.462,0,0,0,22.215,25.5a2.45,2.45,0,0,0-2.657-2.237,2.467,2.467,0,0,0-2.631,2.22,2.47,2.47,0,0,0,2.638,2.248M12.956,23.25A2.461,2.461,0,0,0,10.324,25.5a2.477,2.477,0,0,0,2.653,2.217A2.469,2.469,0,0,0,15.61,25.48a2.468,2.468,0,0,0-2.654-2.231m3.316,1.782a3.26,3.26,0,0,1,3.088-2.365,8.836,8.836,0,0,0-3.106-.509,9.258,9.258,0,0,0-3.118.5,3.287,3.287,0,0,1,3.136,2.378" transform="translate(-7.802 -16.512)" fill="#fff"/>
      <path id="Path_44" data-name="Path 44" d="M49.128,35.745a1.383,1.383,0,0,1-1.5,1.309,1.4,1.4,0,0,1-1.266-1.475,1.387,1.387,0,0,1,1.5-1.282,1.37,1.37,0,0,1,1.267,1.448m-2.281-.077a.9.9,0,1,0,.911-.9.91.91,0,0,0-.911.9" transform="translate(-36.026 -26.649)" fill="#fff"/>
      <path id="Path_45" data-name="Path 45" d="M19.695,35.673a1.386,1.386,0,1,1-1.373-1.382,1.388,1.388,0,0,1,1.373,1.382m-2.287-.019a.9.9,0,1,0,.91-.887.909.909,0,0,0-.91.887" transform="translate(-13.151 -26.647)" fill="#fff"/>
      <path id="Path_48" data-name="Path 48" d="M51.7,40.054a.455.455,0,1,1,.455-.455.458.458,0,0,1-.455.455" transform="translate(-40.033 -30.585)" fill="#fff"/>
      <path id="Path_49" data-name="Path 49" d="M22.248,40.033a.46.46,0,1,1,0-.92.46.46,0,1,1,0,.92" transform="translate(-17.021 -30.56)" fill="#fff"/>
    </g>
  </g>
</svg>