<svg xmlns="http://www.w3.org/2000/svg" width="70.513" height="77.763" viewBox="0 0 70.513 77.763">
  <g id="Group_215" data-name="Group 215" transform="translate(-15.8 0)">
    <path id="Path_362" data-name="Path 362" d="M78.909,75.737,49.485,45.816a1.126,1.126,0,0,0-1.07-.468H47.88v-12L75.7,19.324a1.287,1.287,0,0,0,.713-.935.864.864,0,0,0-.713-.935L64.286,11.688a1.324,1.324,0,0,0-1.783.468,1.021,1.021,0,0,0,.535,1.558l9.451,4.831L47.88,30.856V5.922L58.4,11.22a1.324,1.324,0,0,0,1.783-.468,1.021,1.021,0,0,0-.535-1.558L47.7,3.273V1.091A1.15,1.15,0,0,0,46.454,0H41.46a1.15,1.15,0,0,0-1.248,1.091V45.349H39.5a1.635,1.635,0,0,0-1.07.468L27.907,56.569a.961.961,0,0,0,.178,1.558,1.3,1.3,0,0,0,1.783-.156L40.034,47.686H47.7L65,65.3,54.3,62.023a1.763,1.763,0,0,0-1.248.156l-9.095,6.857-9.095-6.857a1.223,1.223,0,0,0-1.248-.156L22.914,65.3,26.3,61.868a.961.961,0,0,0-.178-1.558,1.3,1.3,0,0,0-1.783.156L9.183,75.893a.961.961,0,0,0,.178,1.558,1.471,1.471,0,0,0,.892.312,1.635,1.635,0,0,0,1.07-.468l8.2-8.415,14.445-4.519,9.451,7.013a1.471,1.471,0,0,0,.892.312,2.046,2.046,0,0,0,.892-.312l9.451-7.013L69.1,68.88,77.3,77.3a1.339,1.339,0,0,0,1.07.468,2.046,2.046,0,0,0,.892-.312,1.537,1.537,0,0,0-.357-1.714M42.887,2.338h2.318V45.349H42.887Z" transform="translate(6.94 0)" fill="#e3000f"/>
  </g>
</svg>
