<svg id="Group_218" data-name="Group 218" xmlns="http://www.w3.org/2000/svg" width="89.712" height="66.857" viewBox="0 0 89.712 66.857">
  <path id="Path_363" data-name="Path 363" d="M26.666,59.645l-.975-1.364c-.78-.975-20.467-25.145-20.467-36.645a21.636,21.636,0,1,1,43.272,0c0,11.5-19.687,35.67-20.467,36.645Zm0-56.917A18.925,18.925,0,0,0,7.759,21.636c0,9.161,14.814,28.458,18.907,33.721,4.093-5.263,18.907-24.56,18.907-33.721A19.052,19.052,0,0,0,26.666,2.729" transform="translate(4.96 0)" fill="#e3000f"/>
  <path id="Path_364" data-name="Path 364" d="M20.307,23.463a8.382,8.382,0,1,1,8.382-8.382,8.32,8.32,0,0,1-8.382,8.382m0-14.034a5.653,5.653,0,1,0,5.653,5.653,5.657,5.657,0,0,0-5.653-5.653" transform="translate(11.319 6.36)" fill="#e3000f"/>
  <path id="Path_365" data-name="Path 365" d="M1.413,36.94a1.489,1.489,0,0,1-.975-.39,1.3,1.3,0,0,1,0-1.949c.975-.975,1.949-1.754,2.924-2.729a1.316,1.316,0,0,1,1.949.195,1.316,1.316,0,0,1-.195,1.949,18.062,18.062,0,0,0-2.729,2.729,8.442,8.442,0,0,1-.975.195" transform="translate(0 29.918)" fill="#e3000f"/>
  <path id="Path_366" data-name="Path 366" d="M42.041,41.972a27.389,27.389,0,0,1-3.509-.39,1.378,1.378,0,1,1,.39-2.729,19.436,19.436,0,0,0,3.119.39,6.509,6.509,0,0,0,2.924-.585l1.17-.585a1.406,1.406,0,1,1,1.559,2.339,11.574,11.574,0,0,1-1.559.78,9.586,9.586,0,0,1-4.093.78m-11.5-2.339h-.39c-2.144-.585-4.093-1.364-6.237-2.144l-1.949-.78c-.78-.195-.975-.975-.78-1.754s.975-.975,1.754-.78l1.754.78c1.949.78,4.093,1.364,6.043,1.949a1.4,1.4,0,0,1,.975,1.754,1.092,1.092,0,0,1-1.17.975m-24.17-3.7a1.069,1.069,0,0,1-1.17-.78A1.284,1.284,0,0,1,5.786,33.4a18.731,18.731,0,0,1,5.068-1.559,11.783,11.783,0,0,1,3.7,0,1.378,1.378,0,0,1-.39,2.729,8.39,8.39,0,0,0-3.119,0,20.287,20.287,0,0,0-4.288,1.17c0,.195-.195.195-.39.195M52.177,34.37a.716.716,0,0,1-.585-.195,1.515,1.515,0,0,1-.585-1.949l.585-.975a27.31,27.31,0,0,1,4.288-6.237,1.378,1.378,0,0,1,1.949,1.949,21.793,21.793,0,0,0-3.7,5.653l-.585.975a1.689,1.689,0,0,1-1.364.78" transform="translate(4.788 23.327)" fill="#e3000f"/>
  <path id="Path_367" data-name="Path 367" d="M36.014,25.822a1.466,1.466,0,0,1-1.364-.975,1.4,1.4,0,0,1,.975-1.754c1.364-.39,2.534-.585,3.9-.975a1.3,1.3,0,0,1,.585,2.534c-1.17.195-2.534.585-3.7.78-.195.39-.195.39-.39.39" transform="translate(32.842 20.959)" fill="#e3000f"/>
  <path id="Path_368" data-name="Path 368" d="M33.918,12.207a3.805,3.805,0,0,1,1.364-.195h1.364a6.509,6.509,0,0,1,2.924.585,8.049,8.049,0,0,1,2.144,1.364A7,7,0,0,1,43.08,15.91a9.876,9.876,0,0,1,.39,2.534,8.081,8.081,0,0,1-.585,3.119A7.009,7.009,0,0,1,41.325,23.9a11.051,11.051,0,0,1-2.534,1.559,8.08,8.08,0,0,1-3.119.585,5.4,5.4,0,0,1-1.754-.195,13.43,13.43,0,0,1-1.559-.585,3.142,3.142,0,0,1-1.364-.78c-.39-.39-.78-.585-1.17-.975l.975-1.364a1.013,1.013,0,0,1,.78-.39,1.473,1.473,0,0,1,.78.195,4.261,4.261,0,0,0,.975.585l1.17.585a3.8,3.8,0,0,0,1.559.195,5.767,5.767,0,0,0,1.949-.39,3.5,3.5,0,0,0,1.364-.975,4.886,4.886,0,0,0,.78-1.364,5.432,5.432,0,0,0,.195-1.949,3.8,3.8,0,0,0-.195-1.559c-.195-.39-.39-.975-.78-1.17a3.142,3.142,0,0,0-1.364-.78,6.009,6.009,0,0,0-1.949-.195,4.292,4.292,0,0,0-1.559.195,3.672,3.672,0,0,0-1.559.39l-1.949-.585L32.749,4.8H42.885V6.164a2.77,2.77,0,0,1-.39,1.17c-.195.39-.78.39-1.364.39H34.893Z" transform="translate(28.31 4.556)" fill="#e3000f"/>
  <path id="Path_369" data-name="Path 369" d="M53.524,15.221a18.553,18.553,0,0,1-.585,4.873,10.5,10.5,0,0,1-1.559,3.314,6.332,6.332,0,0,1-2.534,1.949,8.609,8.609,0,0,1-6.237,0,5.73,5.73,0,0,1-2.339-1.949,8.7,8.7,0,0,1-1.559-3.314,17.549,17.549,0,0,1-.585-4.873,18.553,18.553,0,0,1,.585-4.873,10.5,10.5,0,0,1,1.559-3.314,6.906,6.906,0,0,1,2.339-1.949,8.609,8.609,0,0,1,6.237,0A8.04,8.04,0,0,1,51.38,7.034a7.5,7.5,0,0,1,1.559,3.314,17.549,17.549,0,0,1,.585,4.873m-3.119,0a20.105,20.105,0,0,0-.39-3.9,7.644,7.644,0,0,0-.975-2.534,9,9,0,0,0-1.364-1.364,5.691,5.691,0,0,0-1.754-.39,5.691,5.691,0,0,0-1.754.39A3.071,3.071,0,0,0,42.8,8.788a6.238,6.238,0,0,0-.975,2.534,19.687,19.687,0,0,0,0,7.8,7.644,7.644,0,0,0,.975,2.534,9,9,0,0,0,1.364,1.364,5.691,5.691,0,0,0,1.754.39,5.691,5.691,0,0,0,1.754-.39,3.071,3.071,0,0,0,1.364-1.364,6.238,6.238,0,0,0,.975-2.534,21.918,21.918,0,0,0,.39-3.9" transform="translate(36.188 4.271)" fill="#e3000f"/>
</svg>
