<svg xmlns="http://www.w3.org/2000/svg" xmlns:xlink="http://www.w3.org/1999/xlink" width="120.736" height="172.483" viewBox="0 0 120.736 172.483">
  <defs>
    <filter id="Union_3" x="0" y="0" width="120.736" height="172.483" filterUnits="userSpaceOnUse">
      <feOffset dy="3" input="SourceAlpha"/>
      <feGaussianBlur stdDeviation="3" result="blur"/>
      <feFlood flood-opacity="0.161"/>
      <feComposite operator="in" in2="blur"/>
      <feComposite in="SourceGraphic"/>
    </filter>
  </defs>
  <g transform="matrix(1, 0, 0, 1, 0, 0)" filter="url(#Union_3)">
    <path id="Union_3-2" data-name="Union 3" d="M-255.739-1426.119c-1.214-.84-1.595-1.3-.5-2.709,5.026-6.48,5.162-13.022.67-19.88a46.265,46.265,0,0,0-6.58-7.591,46.106,46.106,0,0,1-4.593-4.572c2.122-.552,3.88-.811,4.394-3.513,2.046,3.388,3.8,6.224,5.486,9.1,2.51,4.28,5.745,8.021,8.773,11.917,1.29,1.659,3.942,1.307,4.8,3.43,8.361-5.14,12.5-13.571,17.376-21.409.487-.783.989-1.556,1.784-2.807a3.565,3.565,0,0,0,4.081,2.763c-.073,1.3-1.121,1.777-1.777,2.5-2.508,2.758-5.142,5.4-7.606,8.2-6.349,7.2-6.658,13.993-.864,21.71,1.082,1.44.993,1.939-.436,2.912-5,3.4-10.184,6.664-12.483,13.015C-245.5-1419.467-250.758-1422.674-255.739-1426.119Zm4.475-4.29c1.372,3.519,2.171,7.389,6.439,8.552,2.551-4.193-1.554-3.5-3.883-4.444a4.477,4.477,0,0,1,1.87-.257c.862.014,1.519.027,1.665-.97.234-1.611-1.1-2.493-2.491-2.953a5.454,5.454,0,0,0-1.724-.29A5.114,5.114,0,0,0-251.264-1430.41Zm13.116,3.929c-4.174,2.4-4.174,2.4-3.362,4.607,4.183-1.252,4.991-5.025,6.472-8.8a24.69,24.69,0,0,0-2.822.018c-1.674.214-3.218.947-3.368,2.755-.115,1.4.74,1.335,1.65,1.27.192-.014.386-.027.574-.027A1.666,1.666,0,0,1-238.148-1426.481Zm-9.3-12.241c-1.123,2.067-2.236,4.141-3.69,6.837a6.865,6.865,0,0,1,5.456-.387c.513.188,1.048.544,1.4-.205a1.257,1.257,0,0,0-.412-1.494c-.985-1.029-2.268-.957-3.933-.68a4.149,4.149,0,0,1,2.908-1.555,2.488,2.488,0,0,1,.483.029c.5.061,1.038.123,1-.654a3.317,3.317,0,0,0-1.773-2.686,1.023,1.023,0,0,0-.508-.163C-246.989-1439.681-247.216-1439.157-247.452-1438.722Zm6.015,4.492c-.49.438-1.017.884-.744,1.642.355.989,1.038.48,1.588.262,1.613-.639,3.236-.3,5.166.157-1.23-2.281-2.262-4.226-3.331-6.151-.33-.595-.5-1.666-1.482-1.245a3.11,3.11,0,0,0-1.993,2.8c.006.771.522.689,1.047.608a1.717,1.717,0,0,1,.729-.016,3.353,3.353,0,0,1,2.273,1.41c-.483-.019-.951-.068-1.4-.068A2.593,2.593,0,0,0-241.438-1434.23Zm14.5-1.3a3.687,3.687,0,0,1-3.693-3.74,3.8,3.8,0,0,1,3.8-3.667,3.8,3.8,0,0,1,3.668,3.792,3.6,3.6,0,0,1-3.694,3.615Zm-36.329-3.522a3.786,3.786,0,0,1,3.577-3.877,3.787,3.787,0,0,1,3.884,3.567,3.662,3.662,0,0,1-3.59,3.823c-.057,0-.114,0-.171,0A3.6,3.6,0,0,1-263.262-1439.056Zm16.858-12.164a19.673,19.673,0,0,1-2.1-5.219,15.261,15.261,0,0,0-1.712.068c-1.6.121-3.237.244-4.868-1.009,1.643-.375,3.244,0,4.552-.821a2.206,2.206,0,0,0,1.311-1.984c-.073-.625-.573-.616-1.063-.607a2.49,2.49,0,0,1-.561-.032c-3.014-.707-4.7-2.767-4.748-6.233,1.839,1.979,3.288,4.01,6.176,4.136,2.632.114,4.308-2.234,6.169-2.391.842-.071,1.711.565,2.7,1.2a5.833,5.833,0,0,0,3.384,1.2c2.877-.124,4.438-1.979,6.151-3.975a5.472,5.472,0,0,1-4.423,6.048,2.41,2.41,0,0,1-.623.027c-.552-.022-1.12-.044-1.141.754a2.344,2.344,0,0,0,1.429,1.928c1.327.752,2.878.3,4.393.81a6.587,6.587,0,0,1-5.164.932c-.607-.1-1.259-.548-1.516.452a19.81,19.81,0,0,1-1.974,4.715c-.978,2.595-1.956,5.19-3.179,8.437Zm.527-1.871-.028.016a.631.631,0,0,0-.094.061l-.014.014a.37.37,0,0,0-.064.068l0,.007a.259.259,0,0,0-.034.078c-.065.293.47.619.342.909l2.567,4.689,2.563-4.689c-.009-.171-.017-.341-.026-.511-.01-.191-.02-.382-.029-.573-1.732,2.116-3.4,2.094-5.008-.142A1.281,1.281,0,0,0-245.877-1453.091Zm-.93-7.537c-2.225,1.916-2.016,3.066.448,4.237,3.767,3.275,2.55,3.25,6.3,0,2.745-1.982,2.745-1.982.41-4.2-1.766-1.673-2.627-2.483-3.5-2.483S-244.939-1462.238-246.807-1460.629Zm-18.418,16.859a3.069,3.069,0,0,1-3.268-3.123,3.045,3.045,0,0,1,3.23-3.394,3.155,3.155,0,0,1,3.428,3.011c-.15,2.329-1.363,3.506-3.358,3.506Zm40.654-3.37a3.1,3.1,0,0,1,3.406-3.14,3.054,3.054,0,0,1,3.248,3.382,3.069,3.069,0,0,1-3.268,3.126h-.042C-223.207-1443.772-224.443-1444.924-224.571-1447.14Zm8.163-4.061a2.415,2.415,0,0,1-2.449-2.762,2.521,2.521,0,0,1,2.628-2.516c1.76.142,2.743,1.126,2.728,2.673a2.447,2.447,0,0,1-2.624,2.616C-216.217-1451.19-216.312-1451.194-216.408-1451.2Zm-56.5-2.623c0-1.55.979-2.522,2.71-2.653a2.526,2.526,0,0,1,2.639,2.533,2.41,2.41,0,0,1-2.469,2.74q-.136.009-.268.009A2.434,2.434,0,0,1-272.911-1453.823Zm27.178-3.162c-2-1.576-.216-2.359.677-3.377,1.255-1.431,2.433-1.441,3.686,0,.886,1.016,2.686,1.8.684,3.382a3.446,3.446,0,0,1-2.523,1.511A3.447,3.447,0,0,1-245.732-1456.985Zm2.345-2.872a1.234,1.234,0,0,0-1.288,1.423c.03.858.572,1.277,1.49,1.418a1.484,1.484,0,0,0,1.33-1.38,1.283,1.283,0,0,0-1.435-1.463Zm28.913-1.222a11.152,11.152,0,0,1-8.675-5.451,13.235,13.235,0,0,1-1.634-3.229c-1.853-6.958-4.663-13.357-10.487-18,2.977-2.547,2.994-2.556,4.637.392,3.083,5.535,6.169,11.068,9.207,16.627,2.3,4.208,4.869,5.662,8.458,4.657,3.852-1.078,5.7-3.971,5.483-8.582a4.251,4.251,0,0,1,.12-.8,8.178,8.178,0,0,1,1.892,9.429,9.22,9.22,0,0,1-8.079,5.009A7.6,7.6,0,0,1-214.474-1461.079Zm-65.885-3.956c-1.982-3.061-1.692-7.008.991-10.649.171,1.372.252,2.388.43,3.386a7.345,7.345,0,0,0,6.167,6.353c3.093.547,5.491-.682,7.305-3.921,3.273-5.845,6.54-11.695,9.684-17.609,1.19-2.24,2.281-3.322,4.191-.537.009-.073.048.141-.04.231a38.852,38.852,0,0,0-9.867,17.48c-1.193,4.5-4.124,7.892-9.051,8.971a10.271,10.271,0,0,1-2.2.239A8.972,8.972,0,0,1-280.359-1465.035Zm37.174-5.372c-3.3,3.533-7.829,2.962-10.309-1.58a10.49,10.49,0,0,1,1.143.5c3.965,2.446,8.122-.093,8.093-5.141-.024-4.178-.757-8.349-1.07-12.531-.118-1.574-1.344-1.56-2.308-1.97a11.143,11.143,0,0,1-6.629-13.241,11.277,11.277,0,0,1,12.543-8.315c6.019.893,10.244,5.679,9.955,11.541a10.554,10.554,0,0,1-7.223,10.006c-1.776.663-2.137,1.684-2.242,3.291-.194,2.974-.5,5.944-.82,8.909-.755,7.025,2.472,9.653,9.257,7.074-1.756,2.517-3.814,3.765-5.839,3.765A6.185,6.185,0,0,1-243.185-1470.407Zm-.137-40.331a9.256,9.256,0,0,0-9.181,9.274,9.226,9.226,0,0,0,9.543,9.176,9.217,9.217,0,0,0,9.041-9.4,9.25,9.25,0,0,0-9.278-9.05Zm24.761,37.1c-1.974-3.239-3.628-6.673-5.4-10.034a3.514,3.514,0,0,1-.3-3.083,78.4,78.4,0,0,1,11.9,9.152,3.549,3.549,0,0,1-.463,5.4,3.538,3.538,0,0,1-2.179.75A4.222,4.222,0,0,1-218.561-1473.638Zm-53.233,2.088a3.42,3.42,0,0,1-2.727-2.525c-.664-2.031.462-3.4,1.9-4.561,3.465-2.794,6.809-5.761,10.84-8.025a2.607,2.607,0,0,1-.2,2.741c-1.687,3.316-3.356,6.647-5.2,9.878a4.44,4.44,0,0,1-3.859,2.555A4.636,4.636,0,0,1-271.794-1471.55Zm-21.243-14.057a8.544,8.544,0,0,1,1.619-10.034c.887-.936,1.819-1.878,3.662-1.5a9.567,9.567,0,0,0-1.8,7.348c.736,4.307,3.618,6.257,7.858,5.165a22.836,22.836,0,0,0,6.007-2.9q7.638-4.617,15.327-9.151c.707-.415,1.606-1.641,2.351.219.535,1.336.365,1.993-1.012,2.451-1.583.526-3.092,1.283-4.683,1.783a19.23,19.23,0,0,0-7.952,4.948c-3.232,3.23-6.632,6.318-11.448,7.032a8.1,8.1,0,0,1-1.189.087A10.173,10.173,0,0,1-293.036-1485.607Zm87.52,4.862a14.433,14.433,0,0,1-6.151-3.758,33.766,33.766,0,0,0-15.251-9.365c-1.356-.411-2.289-.929-1.425-2.654.995-1.988,1.924-.343,2.615.057,5.075,2.937,10.078,6,15.118,9a39.634,39.634,0,0,0,3.921,2.127c3.37,1.524,6.3,1.276,8.086-.574,1.915-1.989,2.5-6.117,1.22-8.951-.342-.758-.806-1.462-1.366-2.465a7.99,7.99,0,0,1,5.98,10.19,9.8,9.8,0,0,1-9.47,6.922A10.617,10.617,0,0,1-205.517-1480.745Zm-1.256-9.481c-3.775-1.781-7.51-3.653-11.212-5.584-.982-.512-2.713-.976-2.326-2.248.2-.671.978-.575,1.81-.48a4.87,4.87,0,0,0,1.318.033c4.082.419,8.249.807,12.4,1.293,1.934.226,3.62.959,4.234,3.068a3.319,3.319,0,0,1-1.012,3.553,3.7,3.7,0,0,1-2.591,1.049A6.268,6.268,0,0,1-206.773-1490.226Zm-78.687-1.89c-.58-2.066.143-4.027,2.186-4.519a78.353,78.353,0,0,1,18.087-1.848,4.338,4.338,0,0,1-2.565,2.526q-5.58,2.851-11.209,5.6a7.394,7.394,0,0,1-2.381.728,6.088,6.088,0,0,1-.666.038A3.28,3.28,0,0,1-285.46-1492.116Zm38.09-3.991c-.689-.661-2.253-1.138-.811-2.552.217-.213.329-.808-.226-.844-2.235-.142-1.992-1.778-1.6-3.044.281-.908.891-.71,1.523-.511.484.152.982.3,1.356-.04-2.033-2.327-1.714-3.8,1.391-4.669a7.724,7.724,0,0,1,5.711.3c2.616,1.355,2.727,2.051.6,4.282.339.319.865.224,1.393.13.869-.156,1.745-.311,1.81,1.369.08,2.082-1.283,2.041-2.589,2.182.1.972,1.678,1.111,1,2.143a5.182,5.182,0,0,1-3.915,2.428c-.637.05-1.288.107-1.933.107A5.025,5.025,0,0,1-247.37-1496.108Zm19.879-5.945c-.562-1.6.167-2.174,1.748-2.678a95.309,95.309,0,0,1,18.571-3.74,16.088,16.088,0,0,0,4.8-1.388c2.64-1.183,4.122-3.159,3.91-6.14-.211-2.952-1.512-5.131-4.517-6.035-1.148-.346-2.268-.786-3.729-1.3,4.062-2.047,7.968-1.342,10.739,1.669a9,9,0,0,1,1.126,10.4,11.206,11.206,0,0,1-7.7,5.521,16.4,16.4,0,0,1-3.873.455c-6.414-.317-12.6.328-18.374,3.479-.412.225-1.056.779-1.651.779C-226.842-1501.031-227.22-1501.282-227.491-1502.053Zm-33.633.445c-5.972-3.478-12.482-3.838-19.173-3.716-4.6.085-8.594-1.553-11.151-5.721a9.009,9.009,0,0,1,1.009-10.646c2.74-2.979,6.755-3.679,10.7-1.625-1.483.511-2.611.932-3.758,1.291-3,.932-4.284,3.138-4.473,6.086-.191,2.985,1.348,4.927,3.972,6.119,3.819,1.735,7.978,1.785,12.022,2.308,4.1.531,7.921,2.067,11.915,2.949,1.635.361,1.463,1.468,1.156,2.572-.194.7-.53.921-.9.921A2.985,2.985,0,0,1-261.124-1501.608Zm-4.92-6.691q-6.766-2.159-13.515-4.363a5.006,5.006,0,0,1-.759-.355c-2.746-1.429-3.737-3.739-2.523-5.872,1.292-2.27,4.064-2.825,6.52-.986,3.8,2.842,7.454,5.872,11.119,8.883.879.723,2.056,1.321,2.132,2.761a2.7,2.7,0,0,1-1.229.287A5.807,5.807,0,0,1-266.044-1508.3Zm43.423-.162c-.413-.821.5-1.335,1.031-1.775,3.891-3.2,7.789-6.391,11.746-9.507a4.171,4.171,0,0,1,4.968-.486,3.683,3.683,0,0,1,1.848,3.811c-.181,1.709-1.52,2.858-3.245,3.5a118.9,118.9,0,0,1-14.341,4.635,6.074,6.074,0,0,1-1.256.291A.777.777,0,0,1-222.621-1508.46Zm-7.5-1.673c-.589-.913-2.389-1.5-1.015-3.2a55.437,55.437,0,0,1,8.221-8.349c2.9-2.34,5.715-4.784,8.536-7.219a14.285,14.285,0,0,0,1.909-2.04c2.568-3.3,3.1-7.689,1.3-10.432-1.782-2.72-5.651-3.846-9.833-2.788a4.719,4.719,0,0,1-2.116.248c2.43-5.17,9.834-5.575,14.19-2.572a11.382,11.382,0,0,1,2.971,15.195A17.633,17.633,0,0,1-213-1525.06a34.753,34.753,0,0,0-13.773,12.735,6.316,6.316,0,0,1-1.461,1.681c-.365.29-.733,1.051-1.205,1.051C-229.642-1509.592-229.869-1509.738-230.124-1510.133Zm-28.21-.669c-4.488-7.549-11.563-12.13-18.671-16.8-4.14-2.717-5.821-7-4.926-11.944a10.263,10.263,0,0,1,7.908-8.483c4.368-1.209,8.287.269,10.48,4.18a41.07,41.07,0,0,0-4.385-.688c-6.661-.3-10.129,4.783-7.539,10.956,1.274,3.041,3.729,5.071,6.116,7.141,4.705,4.078,9.936,7.575,13.723,12.662.744,1,1.106,1.6.153,2.815-.594.76-1.108,1.2-1.6,1.2C-257.5-1509.759-257.9-1510.081-258.333-1510.8Zm5.612-11.07c-.928-6.844-3.646-13.058-6.657-19.174a27.089,27.089,0,0,1-2.356-6.848c-1.29-6.678,1.468-12.377,7.673-15.2a25.321,25.321,0,0,1,21.675-.019c6.272,2.83,9.052,8.695,7.654,15.454a24.566,24.566,0,0,1-2.295,6.574,66.406,66.406,0,0,0-7.606,26.108c-4.467-1.005-4.6-1.1-3.668-5.379,1.524-7.025,4.242-13.687,6.414-20.516,1.157-3.634,2.333-7.291,1.989-11.209-.37-4.215-2.277-6.32-6.8-7.329.287.9.6,1.724.809,2.575a3.326,3.326,0,0,1-.588,2.659c-.959-3.865-3.46-5.411-7.1-5.286-3.292.113-4.972,1.458-6.342,5.195-1.3-1.844-.272-3.452.233-5.114-4.939.993-7.091,3.786-6.894,8.938.155,4.055,1.482,7.852,2.745,11.654,2,6.006,4.279,11.923,5.673,18.115.943,4.2.9,4.212-3.434,5.873C-251.985-1517.184-252.4-1519.52-252.722-1521.872Zm-6.844-.723a109.427,109.427,0,0,1-10.6-11.858,4.293,4.293,0,0,1-.6-4.744,3.651,3.651,0,0,1,3.478-1.939,4.182,4.182,0,0,1,4.06,2.882c1.895,4.842,3.666,9.733,5.456,14.614.207.563.634,1.346-.094,1.735a.816.816,0,0,1-.389.1C-258.74-1521.805-259.193-1522.245-259.565-1522.595Zm30.046.523c-.727-.5-.13-1.434.1-2.062,1.751-4.789,3.52-9.574,5.411-14.309a4.013,4.013,0,0,1,4.946-2.618,3.522,3.522,0,0,1,2.966,3.439,6.006,6.006,0,0,1-1.285,3.446,126.925,126.925,0,0,1-10.052,11.209c-.432.411-.916,1.09-1.524,1.09A.98.98,0,0,1-229.519-1522.072Zm-18.435-22.591c.167-3.5,2.167-5.852,4.8-5.808s4.531,2.37,4.691,5.932c.292,6.494-1.932,12.367-4.739,18.876C-246.056-1532.113-248.269-1538.073-247.954-1544.663Z" transform="translate(303.62 1572.06)" fill="#fff" stroke="rgba(0,0,0,0)" stroke-width="1"/>
  </g>
</svg>
