<svg xmlns="http://www.w3.org/2000/svg" width="73.621" height="74.076" viewBox="0 0 73.621 74.076">
  <g id="Group_221" data-name="Group 221" transform="translate(0 0)">
    <path id="Path_370" data-name="Path 370" d="M36.528,74.076a6.507,6.507,0,0,1-5.51-2.857,3.944,3.944,0,0,0-2.449-1.837l-.816-.2a3.86,3.86,0,0,0-3.061.2,7.143,7.143,0,0,1-6.122.408,6.729,6.729,0,0,1-3.877-5.1,5.071,5.071,0,0,0-.2-1.633,4.664,4.664,0,0,0-4.081-4.694,6.621,6.621,0,0,1-6.53-6.734,5.65,5.65,0,0,1,.2-1.837,7.106,7.106,0,0,0,.2-4.081l-.2-.612a11.508,11.508,0,0,0-2.245-4.081A6.465,6.465,0,0,1,0,36.324v-.408a9.244,9.244,0,0,1,2.041-3.469,6.584,6.584,0,0,0,2.041-3.877l.2-.408a9.469,9.469,0,0,0-.2-4.081,5.65,5.65,0,0,1-.2-1.837,6.794,6.794,0,0,1,6.734-6.734,4.664,4.664,0,0,0,4.081-4.694V9.387A6.625,6.625,0,0,1,18.57,4.081a6.506,6.506,0,0,1,6.122.408,5.13,5.13,0,0,0,3.061.408l.816-.2a3.944,3.944,0,0,0,2.449-1.837,6.742,6.742,0,0,1,11.02,0,3.944,3.944,0,0,0,2.449,1.837l.612.2a4.377,4.377,0,0,0,3.265-.2,7.189,7.189,0,0,1,5.1-.612,6.459,6.459,0,0,1,4.489,4.081,6.027,6.027,0,0,1,.408,2.653,3.951,3.951,0,0,0,1.224,2.653l1.224,1.224a4.029,4.029,0,0,0,2.857,1.224A6.794,6.794,0,0,1,70.4,22.651a6.238,6.238,0,0,1-1.428,4.081,2.5,2.5,0,0,0-.612,2.245v.408A3.851,3.851,0,0,0,70.4,32.039l.408.2a5.993,5.993,0,0,1,2.653,3.673,6.062,6.062,0,0,1-1.02,4.9A6.415,6.415,0,0,1,70.4,42.854a3.97,3.97,0,0,0-2.041,2.653v.408a2.5,2.5,0,0,0,.612,2.245A7.052,7.052,0,0,1,70.4,52.241a6.794,6.794,0,0,1-6.734,6.734A4.153,4.153,0,0,0,60.608,60.2l-1.224,1.224a3.592,3.592,0,0,0-1.224,2.653,6.027,6.027,0,0,1-.408,2.653,6.418,6.418,0,0,1-4.489,4.081,7.329,7.329,0,0,1-5.1-.612,3.6,3.6,0,0,0-3.265-.2l-.612.2a3.944,3.944,0,0,0-2.449,1.837,7.924,7.924,0,0,1-5.306,2.041m-10-8.163a6.942,6.942,0,0,1,2.041.2l.816.2a7.705,7.705,0,0,1,4.285,3.061,3.517,3.517,0,0,0,2.857,1.633,3.257,3.257,0,0,0,2.857-1.633,7.085,7.085,0,0,1,4.285-3.061l.612-.2A6.911,6.911,0,0,1,50,66.73a3.505,3.505,0,0,0,2.653.408A2.876,2.876,0,0,0,54.894,65.1a3.473,3.473,0,0,0,.2-1.428,6.633,6.633,0,0,1,2.041-4.9l1.02-1.02a7.41,7.41,0,0,1,5.306-2.245A3.525,3.525,0,0,0,66.322,50,5.5,5.5,0,0,1,65.1,45.1v-.408A7.434,7.434,0,0,1,68.567,40c.2,0,.408-.2,1.02-1.02A3.512,3.512,0,0,0,70,36.528a2.972,2.972,0,0,0-1.224-1.837,7.153,7.153,0,0,1-3.877-4.9v-.408a5.644,5.644,0,0,1,1.224-4.9,3.937,3.937,0,0,0,.612-2.041,3.44,3.44,0,0,0-3.469-3.469,7.41,7.41,0,0,1-5.306-2.245c-.408-.408-.612-.816-1.02-1.02a6.2,6.2,0,0,1-2.041-4.9,3.473,3.473,0,0,0-.2-1.428,3.209,3.209,0,0,0-2.245-2.041,2.673,2.673,0,0,0-2.653.408,6.911,6.911,0,0,1-5.714.612l-.612-.2A7.705,7.705,0,0,1,39.181,5.1a3.517,3.517,0,0,0-2.857-1.633A3.257,3.257,0,0,0,33.467,5.1a7.085,7.085,0,0,1-4.285,3.061l-.816.2a6.451,6.451,0,0,1-5.51-.612,3.693,3.693,0,0,0-3.265-.2A3.473,3.473,0,0,0,17.55,10.2v1.224a8.265,8.265,0,0,1-6.938,7.755H10.2a3.44,3.44,0,0,0-3.469,3.469,1.84,1.84,0,0,0,.2,1.02,11.078,11.078,0,0,1,.408,5.714l-.2.408A12.122,12.122,0,0,1,4.081,35.3a5.35,5.35,0,0,0-1.02,1.837,3.277,3.277,0,0,0,1.02,2.245,10.669,10.669,0,0,1,3.061,5.51l.2.612a11.325,11.325,0,0,1-.408,5.714c0,.408-.2.612-.2,1.02A3.44,3.44,0,0,0,10.2,55.71h.408a7.929,7.929,0,0,1,6.938,7.755v1.224a3.1,3.1,0,0,0,2.041,2.653,3.65,3.65,0,0,0,3.265-.2,5.325,5.325,0,0,1,3.673-1.224" transform="translate(0 0)" fill="#e3000f"/>
    <path id="Path_371" data-name="Path 371" d="M7.969,29.8a24.2,24.2,0,0,1,48.16,0H59.19a27.465,27.465,0,0,0-54.69,0Z" transform="translate(4.683 5.099)" fill="#e3000f"/>
    <path id="Path_372" data-name="Path 372" d="M56.229,19.1a24.343,24.343,0,0,1-48.568,0H4.6a27.384,27.384,0,0,0,54.69,0Z" transform="translate(4.787 19.877)" fill="#e3000f"/>
    <path id="Path_373" data-name="Path 373" d="M11.369,25.383,7.9,17.833l2.857-1.224a3.033,3.033,0,0,1,1.837-.408c.612,0,1.02.408,1.428,1.224a1.84,1.84,0,0,1,.2,1.02c0,.408-.2.612-.408,1.02a1.726,1.726,0,0,1,1.428,0,2.09,2.09,0,0,1,1.02,1.224,1.846,1.846,0,0,1,0,2.041,5.5,5.5,0,0,1-1.633,1.428Zm-.2-5.51.2-.2c.2-.2.408-.2.612-.408s.2-.408,0-.816-.408-.408-.612-.408a1.543,1.543,0,0,0-.816.2h-.2Zm1.428,3.061.2-.2a.2.2,0,0,0,.2-.2.2.2,0,0,0,.2-.2l.612-.612c.2-.2.2-.408,0-.816s-.408-.408-.612-.408a1.227,1.227,0,0,0-.816.2h-.612Z" transform="translate(8.221 16.859)" fill="#e3000f"/>
    <path id="Path_374" data-name="Path 374" d="M14.379,14.618a5.018,5.018,0,0,1,3.469-.2A4.143,4.143,0,0,1,20.5,16.658a4.176,4.176,0,0,1,.2,3.469,4.469,4.469,0,0,1-2.449,2.653,4.176,4.176,0,0,1-3.469.2,5.108,5.108,0,0,1-2.653-2.449,3.506,3.506,0,0,1,0-3.469,5.193,5.193,0,0,1,2.245-2.449m-.408,3.265a2.235,2.235,0,0,0,0,1.633A2.158,2.158,0,0,0,15.4,20.74a2.831,2.831,0,0,0,1.837,0,2.158,2.158,0,0,0,1.224-1.428,1.984,1.984,0,0,0-.2-1.837c-.2-.612-.612-.816-1.224-1.02a1.984,1.984,0,0,0-1.837.2,1.84,1.84,0,0,0-1.224,1.224" transform="translate(12.15 14.768)" fill="#e3000f"/>
    <path id="Path_375" data-name="Path 375" d="M18.679,12.618a5.018,5.018,0,0,1,3.469-.2A4.143,4.143,0,0,1,24.8,14.658a4.176,4.176,0,0,1,.2,3.469,4.469,4.469,0,0,1-2.449,2.653,4.176,4.176,0,0,1-3.469.2,4.469,4.469,0,0,1-2.653-2.449,3.506,3.506,0,0,1,0-3.469,4.453,4.453,0,0,1,2.245-2.449m-.2,3.265a2.235,2.235,0,0,0,0,1.633A2.158,2.158,0,0,0,19.9,18.74a2.831,2.831,0,0,0,1.837,0,2.158,2.158,0,0,0,1.224-1.428,1.984,1.984,0,0,0-.2-1.837c-.2-.612-.612-.816-1.224-1.02a1.984,1.984,0,0,0-1.837.2c-.612,0-1.02.612-1.224,1.224" transform="translate(16.625 12.687)" fill="#e3000f"/>
    <path id="Path_376" data-name="Path 376" d="M24.081,10.924,26.53,9.7l-1.224,4.9,5.1,2.449-2.449,1.224L23.877,16.23,25.51,19.5l-2.041,1.02L20,12.965l2.041-1.02,1.428,3.061Z" transform="translate(20.813 10.095)" fill="#e3000f"/>
    <path id="Path_377" data-name="Path 377" d="M10.7,24.569l2.041-1.02,5.51,3.061L16.006,22.12l2.041-1.02,3.469,7.55-2.041,1.02-5.714-2.857,2.245,4.694-2.041,1.02Z" transform="translate(11.135 21.958)" fill="#e3000f"/>
    <path id="Path_378" data-name="Path 378" d="M18.179,20.018a5.018,5.018,0,0,1,3.469-.2A4.411,4.411,0,0,1,24.5,25.527a4.469,4.469,0,0,1-2.449,2.653,4.176,4.176,0,0,1-3.469.2,5.108,5.108,0,0,1-2.653-2.449,3.506,3.506,0,0,1,0-3.469,3.747,3.747,0,0,1,2.245-2.449m-.408,3.265a2.235,2.235,0,0,0,0,1.633A2.158,2.158,0,0,0,19.2,26.14a2.831,2.831,0,0,0,1.837,0,2.158,2.158,0,0,0,1.224-1.428,1.984,1.984,0,0,0-.2-1.837c-.2-.612-.612-.816-1.224-1.02a1.984,1.984,0,0,0-1.837.2,1.84,1.84,0,0,0-1.224,1.224" transform="translate(16.104 20.388)" fill="#e3000f"/>
    <path id="Path_379" data-name="Path 379" d="M24.51,24.975h0l-.612-5.51,1.633-.816L29.2,22.73l-.816-5.51,2.041-1.02,1.224,8.571-2.041,1.02-3.469-3.673.612,5.1-2.041,1.02L19,21.71l2.041-1.02Z" transform="translate(19.773 16.859)" fill="#e3000f"/>
    <path id="Path_380" data-name="Path 380" d="M24.9,16.516l1.837-.816,2.245,4.9-1.837.816Zm4.489,4.9a2.817,2.817,0,0,1,.816.612.927.927,0,0,1,0,1.02,2.817,2.817,0,0,1-.612.816.927.927,0,0,1-1.02,0,2.817,2.817,0,0,1-.816-.612.927.927,0,0,1,0-1.02,2.817,2.817,0,0,1,.612-.816c.408,0,.612-.2,1.02,0" transform="translate(25.913 16.339)" fill="#e3000f"/>
  </g>
</svg>
