<svg id="Rozeta" xmlns="http://www.w3.org/2000/svg" xmlns:xlink="http://www.w3.org/1999/xlink" width="65.983" height="65.979" viewBox="0 0 65.983 65.979">
  <defs>
    <clipPath id="clip-path">
      <rect id="Rectangle_60" data-name="Rectangle 60" width="65.983" height="65.979" fill="none"/>
    </clipPath>
  </defs>
  <g id="Group_50" data-name="Group 50" clip-path="url(#clip-path)">
    <path id="Path_143" data-name="Path 143" d="M129.057,46.006a15.111,15.111,0,0,0,6.37-3.387,19.093,19.093,0,0,0-17.3,3.192,17.926,17.926,0,0,0,10.935.2" transform="translate(-99.159 -35.082)" fill="#e3000f"/>
    <path id="Path_144" data-name="Path 144" d="M62.644,39.714c.942-.351,1.882-.708,2.885-1.086l-2.861-2.417,3.315-1.754c-1.017-.657-1.972-1.294-2.95-1.9-.344-.212-.311-.308-.005-.518.942-.648,1.867-1.322,2.853-2.026l-3.388-1.6,2.745-2.548-3.754-1.215,2.506-3.047L60.3,20.941l1.989-3.175-3.936-.2,1.627-3.594-3.73.315,1.1-3.587c-1.214.265-2.334.506-3.452.755-.295.066-.444.049-.344-.327.105-.4.149-.819.216-1.23.119-.734.235-1.468.361-2.26l-3.449,1.24V5.187c-1.014.52-2.051,1.043-3.077,1.587-.29.154-.386.071-.4-.218-.007-.117-.007-.234-.018-.35-.1-1.048-.208-2.1-.318-3.214L43.8,5.126l-.84-3.652L40.011,4.128,38.627.451,36.211,3.314,34.457,0,32.315,3.311,30.013.1,28.42,3.491,25.871.746,24.651,4.5,21.6,1.991l-.667,3.687L17.767,3.689c-.065,1.242-.134,2.405-.18,3.569-.013.328-.108.345-.38.216-.887-.42-1.783-.82-2.679-1.219-.167-.075-.32-.23-.55-.172.09,1.087.17,2.15.271,3.211.033.339,0,.442-.384.314-1.02-.344-2.057-.641-3.163-.981l.822,3.856-3.892-.642L8.874,15.3H5.191l1.757,3.443-3.93.383c.652.937,1.25,1.817,1.874,2.678.221.3.262.424-.181.511-1.054.207-2.1.469-3.208.724l2.643,2.928-3.7,1.391,2.862,2.415L0,31.527l3.314,2.141L.1,35.966l3.39,1.6L.756,40.1c.15.057.225.09.3.115,1.029.332,2.054.676,3.089.987.321.1.322.189.121.415-.31.349-.6.717-.9,1.077L1.989,44.377l3.689.666-1.99,3.171,3.936.2L6,52.011l3.727-.31-1.1,3.578,3.855-.821-.639,3.892,3.451-1.238v3.681l3.444-1.758c.13,1.318.256,2.589.388,3.927L22.2,60.824l.836,3.656,2.927-2.647L27.342,65.5a2.167,2.167,0,0,0,.174-.159c.667-.79,1.344-1.573,1.994-2.377.225-.278.308-.238.458.057.5.979,1.018,1.945,1.552,2.958.11-.165.2-.3.292-.438.552-.854,1.111-1.7,1.648-2.565.17-.272.266-.273.431-.006.175.283.384.545.578.816l1.5,2.1c.5-1.072.968-2.061,1.421-3.058.122-.269.216-.328.427-.072.265.321.561.618.845.923.471.507.942,1.014,1.45,1.56l1.214-3.754,3.048,2.506c.2-1.123.421-2.184.581-3.253.062-.415.167-.4.467-.2.9.588,1.822,1.153,2.792,1.763l.2-3.94,3.6,1.626L51.7,56.252l3.581,1.1c-.244-1.147-.473-2.232-.705-3.316-.12-.562-.123-.555.431-.459,1.1.19,2.193.371,3.347.566l-1.245-3.46h3.684l-1.754-3.442,3.928-.39c-.679-.97-1.292-1.861-1.923-2.74-.188-.262-.191-.353.167-.427,1.071-.219,2.132-.481,3.269-.743-.717-.793-1.382-1.532-2.051-2.268-.6-.662-.6-.658.218-.964m-29.581,22.2A29,29,0,1,1,62.068,32.9,29.021,29.021,0,0,1,33.062,61.915" fill="#e3000f"/>
    <path id="Path_145" data-name="Path 145" d="M45.689,118.972a16.56,16.56,0,0,0,.839-8.945,19.118,19.118,0,0,0-5.892,16.457,16.717,16.717,0,0,0,5.053-7.512" transform="translate(-34 -92.364)" fill="#e3000f"/>
    <path id="Path_146" data-name="Path 146" d="M294.791,73.7c-.63-4.667-5.338-11.241-11.362-13.391.861,5.51,5.992,11.6,11.362,13.391" transform="translate(-237.929 -50.627)" fill="#e3000f"/>
    <path id="Path_147" data-name="Path 147" d="M58.313,269.224c1.083,5.622,6.134,11.546,11.364,13.3-1.131-6.539-7.2-12.193-11.364-13.3" transform="translate(-48.952 -226.004)" fill="#e3000f"/>
    <path id="Path_148" data-name="Path 148" d="M332.979,215.643c4.02-3.093,7.127-10.609,5.994-16.667a19.415,19.415,0,0,0-5.994,16.667" transform="translate(-279.416 -167.034)" fill="#e3000f"/>
    <path id="Path_149" data-name="Path 149" d="M192.06,341.334a16.082,16.082,0,0,0-5.825,3.17c5.376,2,13.063.523,17.238-3.162-2.914-1.243-7.5-1.251-11.413-.009" transform="translate(-156.338 -285.76)" fill="#e3000f"/>
    <path id="Path_150" data-name="Path 150" d="M66.347,67.78c8.982,1.446,17.052-.63,24.042-6.858a22.229,22.229,0,0,0-7.482-1.571A28.031,28.031,0,0,0,65.119,64.8a1.052,1.052,0,0,1,.075-.11,27.524,27.524,0,0,0,7.089-19.369,20.907,20.907,0,0,0-.652-4.747c-.086-.346-.179-.329-.4-.129-.37.337-.766.647-1.118,1a26.923,26.923,0,0,0-7.9,20.365c.007.371.054.741.083,1.111-3.631-9.845-12.387-15.6-17.908-16.759,1.99,9.268,7.446,15.646,15.672,19.593a27.73,27.73,0,0,0-24.3,6.825,24.946,24.946,0,0,0,13.2,1.185,27.3,27.3,0,0,0,12.078-5.127c.006.071,0,.1-.022.122a27.481,27.481,0,0,0-6.519,23.96c.134.585.142.582.6.193a24.335,24.335,0,0,0,6.292-8.426,27.594,27.594,0,0,0,1.326-3.442,28.184,28.184,0,0,0,.882-3.637,26.935,26.935,0,0,0,.384-3.679,27.332,27.332,0,0,0-.134-3.7,27.43,27.43,0,0,0,6.894,10.819A25.41,25.41,0,0,0,81.9,87.4c-1.981-9.253-7.365-15.6-15.556-19.616" transform="translate(-30.019 -33.83)" fill="#e3000f"/>
  </g>
</svg>
