<svg id="marker" xmlns="http://www.w3.org/2000/svg" xmlns:xlink="http://www.w3.org/1999/xlink" width="36.167" height="51.667" viewBox="0 0 36.167 51.667">
  <defs>
    <clipPath id="clip-path">
      <rect id="Rectangle_60" data-name="Rectangle 60" width="24.398" height="24.396" fill="#fff"/>
    </clipPath>
  </defs>
  <path id="Path_3315" data-name="Path 3315" d="M23.083,2A18.07,18.07,0,0,0,5,20.083C5,33.646,23.083,53.667,23.083,53.667S41.167,33.646,41.167,20.083A18.07,18.07,0,0,0,23.083,2Z" transform="translate(-5 -2)" fill="#0a4bb3"/>
  <g id="Group_50" data-name="Group 50" transform="translate(5.996 5.971)" clip-path="url(#clip-path)">
    <path id="Path_143" data-name="Path 143" d="M122.165,43.349a5.588,5.588,0,0,0,2.355-1.253,7.06,7.06,0,0,0-6.4,1.18,6.628,6.628,0,0,0,4.043.072" transform="translate(-111.11 -39.31)" fill="#fff"/>
    <path id="Path_144" data-name="Path 144" d="M23.163,14.685c.348-.13.7-.262,1.067-.4l-1.058-.894,1.226-.648c-.376-.243-.729-.479-1.091-.7-.127-.078-.115-.114,0-.192.349-.24.69-.489,1.055-.749l-1.253-.592,1.015-.942-1.388-.449.927-1.127L22.3,7.743l.736-1.174-1.455-.075.6-1.329L20.8,5.281l.407-1.326c-.449.1-.863.187-1.276.279-.109.024-.164.018-.127-.121s.055-.3.08-.455c.044-.271.087-.543.133-.835l-1.275.458V1.918c-.375.192-.759.385-1.138.587-.107.057-.143.026-.149-.08,0-.043,0-.086-.007-.129-.038-.388-.077-.775-.118-1.188L16.194,1.9l-.31-1.35-1.089.981L14.283.167,13.39,1.225,12.741,0l-.792,1.224L11.1.038l-.589,1.253L9.566.276,9.115,1.663,7.989.736,7.742,2.1,6.57,1.364c-.024.459-.049.889-.067,1.32,0,.121-.04.128-.141.08-.328-.155-.659-.3-.991-.451-.062-.028-.118-.085-.2-.064.033.4.063.8.1,1.187.012.125,0,.163-.142.116-.377-.127-.76-.237-1.169-.363l.3,1.426L2.822,4.378l.459,1.278H1.919l.65,1.273-1.453.141c.241.346.462.672.693.99.082.112.1.157-.067.189-.39.077-.775.174-1.186.268L1.534,9.6l-1.367.514,1.058.893L0,11.657l1.226.792L.037,13.3l1.253.591-1.011.939c.055.021.083.033.112.043.38.123.76.25,1.142.365.119.036.119.07.045.154-.115.129-.221.265-.331.4l-.512.621,1.364.246-.736,1.172,1.455.076-.6,1.328L3.6,19.118,3.19,20.44l1.425-.3-.236,1.439,1.276-.458v1.361l1.274-.65.143,1.452,1.137-.79.309,1.352L9.6,22.863l.51,1.356a.8.8,0,0,0,.064-.059c.247-.292.5-.582.737-.879.083-.1.114-.088.169.021.183.362.376.719.574,1.094.041-.061.075-.111.108-.162.2-.316.411-.629.609-.948.063-.1.1-.1.159,0s.142.2.214.3l.555.776c.185-.4.358-.762.526-1.131.045-.1.08-.121.158-.027.1.119.207.228.312.341l.536.577.449-1.388,1.127.927c.076-.415.156-.807.215-1.2.023-.153.062-.147.173-.075.334.217.674.426,1.033.652l.075-1.457,1.33.6-.116-1.38,1.324.408c-.09-.424-.175-.825-.261-1.226-.044-.208-.046-.205.159-.17.405.07.811.137,1.238.209l-.461-1.279h1.362L21.83,17.47l1.452-.144c-.251-.359-.478-.688-.711-1.013-.07-.1-.07-.131.062-.158.4-.081.788-.178,1.209-.275-.265-.293-.511-.566-.759-.839-.223-.245-.223-.243.081-.356M12.225,22.894A10.722,10.722,0,1,1,22.951,12.164,10.731,10.731,0,0,1,12.225,22.894" fill="#fff"/>
    <path id="Path_145" data-name="Path 145" d="M42.42,113.335a6.123,6.123,0,0,0,.31-3.308,7.069,7.069,0,0,0-2.179,6.085,6.181,6.181,0,0,0,1.868-2.778" transform="translate(-38.098 -103.496)" fill="#fff"/>
    <path id="Path_146" data-name="Path 146" d="M287.63,65.261a6.993,6.993,0,0,0-4.2-4.952,6.911,6.911,0,0,0,4.2,4.952" transform="translate(-266.605 -56.729)" fill="#fff"/>
    <path id="Path_147" data-name="Path 147" d="M58.313,269.224a7.054,7.054,0,0,0,4.2,4.919,6.826,6.826,0,0,0-4.2-4.919" transform="translate(-54.852 -253.243)" fill="#fff"/>
    <path id="Path_148" data-name="Path 148" d="M332.9,205.139a7,7,0,0,0,2.216-6.163,7.179,7.179,0,0,0-2.216,6.163" transform="translate(-313.092 -187.165)" fill="#fff"/>
    <path id="Path_149" data-name="Path 149" d="M188.389,340.75a5.947,5.947,0,0,0-2.154,1.172,6.921,6.921,0,0,0,6.374-1.169,6.606,6.606,0,0,0-4.22,0" transform="translate(-175.18 -320.2)" fill="#fff"/>
    <path id="Path_150" data-name="Path 150" d="M47.07,50.461a10.27,10.27,0,0,0,8.89-2.536,8.22,8.22,0,0,0-2.766-.581,10.365,10.365,0,0,0-6.577,2.013.389.389,0,0,1,.028-.041,10.177,10.177,0,0,0,2.621-7.162,7.73,7.73,0,0,0-.241-1.755c-.032-.128-.066-.122-.147-.048-.137.125-.283.239-.414.37a9.955,9.955,0,0,0-2.923,7.53c0,.137.02.274.031.411a10.076,10.076,0,0,0-6.622-6.2,10.037,10.037,0,0,0,5.795,7.245,10.254,10.254,0,0,0-8.984,2.524,9.224,9.224,0,0,0,4.88.438,10.094,10.094,0,0,0,4.466-1.9c0,.026,0,.038-.008.045a10.162,10.162,0,0,0-2.411,8.859c.05.216.052.215.222.071a9,9,0,0,0,2.326-3.116,10.2,10.2,0,0,0,.49-1.273,10.421,10.421,0,0,0,.326-1.345,9.961,9.961,0,0,0,.142-1.36,10.106,10.106,0,0,0-.049-1.368,10.143,10.143,0,0,0,2.549,4,9.4,9.4,0,0,0,4.128,2.422,10.074,10.074,0,0,0-5.752-7.253" transform="translate(-33.637 -37.907)" fill="#fff"/>
  </g>
</svg>
