<svg xmlns="http://www.w3.org/2000/svg" xmlns:xlink="http://www.w3.org/1999/xlink" width="98.689" height="83.345" viewBox="0 0 98.689 83.345">
  <defs>
    <filter id="swinka" x="0" y="0" width="98.689" height="83.345" filterUnits="userSpaceOnUse">
      <feOffset dy="3" input="SourceAlpha"/>
      <feGaussianBlur stdDeviation="3" result="blur"/>
      <feFlood flood-opacity="0.161"/>
      <feComposite operator="in" in2="blur"/>
      <feComposite in="SourceGraphic"/>
    </filter>
  </defs>
  <g transform="matrix(1, 0, 0, 1, 0, 0)" filter="url(#swinka)">
    <path id="swinka-2" data-name="swinka" d="M-904.482-4541.31a12.834,12.834,0,0,1-9.1-3.724l-3.725-3.724a3.159,3.159,0,0,1-.62-3.312,3.5,3.5,0,0,1,2.9-1.861h67.247a.924.924,0,0,1,0-1.035c6-15.726,0-30.624-8.9-35.59a20.842,20.842,0,0,0-6.621-2.275,1.138,1.138,0,0,1-1.035-.621,2.626,2.626,0,0,1-.207-1.242,1.137,1.137,0,0,1,.621-1.035,2.624,2.624,0,0,1,1.242-.207,27.831,27.831,0,0,1,7.655,2.69,5.185,5.185,0,0,1,1.449.828,4.875,4.875,0,0,1-.621-4.139c.621-2.482,3.1-3.724,6-3.1a.76.76,0,0,0,.621.207,16.8,16.8,0,0,0-2.484-4.552,1.639,1.639,0,0,1,.207-2.276,1.639,1.639,0,0,1,2.277.207c.207.207,3.724,4.345,3.931,9.1,0,.207.207.207.207.414a8.515,8.515,0,0,1,1.656,6.622,11.928,11.928,0,0,1-3.518,6.828,41.389,41.389,0,0,1,2.07,5.38,36.9,36.9,0,0,1-1.242,24h2.07a2.927,2.927,0,0,1,2.9,1.861,2.568,2.568,0,0,1-.827,3.1l-3.725,3.724a12.991,12.991,0,0,1-9.1,3.724Zm-10.966-9.518v.207l3.724,3.724a10.716,10.716,0,0,0,7.242,2.9h51.315a10.34,10.34,0,0,0,7.242-2.9l3.724-3.724a.2.2,0,0,0-.207-.207.2.2,0,0,0-.207-.207h-72.627Zm68.282-35.589a7.146,7.146,0,0,0,2.068-4.345v-1.447a4.117,4.117,0,0,1-2.482,1.654,3.562,3.562,0,0,1-3.518-.414A41.452,41.452,0,0,1-847.166-4586.417Zm-3.725-9.311a1.609,1.609,0,0,0,.414,1.655,2.406,2.406,0,0,0,2.07.414,2.146,2.146,0,0,0,1.242-1.656v-.414a14.255,14.255,0,0,0-1.656-.621h-.621C-850.064-4596.349-850.685-4596.349-850.892-4595.728Zm-61.452,37.038h-.414l-6.208-3.1a1.555,1.555,0,0,1-1.035-1.447v-11.794a1.574,1.574,0,0,1,1.242-1.656c.207-.207,6-1.242,8.69-3.517a30.416,30.416,0,0,0,2.69-3.518c1.861-2.9,4.345-6.415,8.276-8.069v-9.1a1.781,1.781,0,0,1,1.656-1.656,8.223,8.223,0,0,1,4.345,1.035,12.155,12.155,0,0,1,6.208,6.62c3.517-.827,11.587-2.689,19.863-2.068a1.139,1.139,0,0,1,1.035.62,2.952,2.952,0,0,1,.414,1.242,1.137,1.137,0,0,1-.621,1.035,2.941,2.941,0,0,1-1.242.414c-9.932-.828-20.07,2.276-20.07,2.276a1.708,1.708,0,0,1-2.07-1.035c-1.654-4.759-4.345-6.208-6.206-6.828v8.277a1.8,1.8,0,0,1-1.242,1.654c-3.311,1.035-5.587,4.346-7.656,7.243a17.1,17.1,0,0,1-3.31,4.138c-2.483,2.07-6.828,3.312-8.9,3.931v9.519c1.449.621,3.311,1.655,5.38,2.689a2.068,2.068,0,0,1,.828,1.035,1.319,1.319,0,0,1,0,1.242,2.066,2.066,0,0,1-1.035.828Zm8.276-17.174a3.069,3.069,0,0,1,2.9-3.312,3.068,3.068,0,0,1,2.9,3.312,3.068,3.068,0,0,1-2.9,3.31A3.068,3.068,0,0,1-904.068-4575.863Z" transform="translate(929 4612.66)" fill="#fff"/>
  </g>
</svg>
