<svg xmlns="http://www.w3.org/2000/svg" width="49.044" height="75.399" viewBox="0 0 49.044 75.399">
  <g id="Group_42" data-name="Group 42" transform="translate(-373.317 -3495.044)">
    <path id="Path_94" data-name="Path 94" d="M203.144,49.671a4.65,4.65,0,0,1-3.718-1.933,2.794,2.794,0,0,0-1.636-1.19L197.2,46.4a3.268,3.268,0,0,0-2.082.149,4.737,4.737,0,0,1-4.015.3,4.334,4.334,0,0,1-2.528-3.42V42.384a3.089,3.089,0,0,0-2.826-3.123,4.474,4.474,0,0,1-4.461-4.461,4.118,4.118,0,0,1,.149-1.338,4.224,4.224,0,0,0,.149-2.677l-.149-.3a5.948,5.948,0,0,0-1.487-2.677,4.28,4.28,0,0,1-1.338-3.123v-.3a8.059,8.059,0,0,1,1.338-2.379,5.382,5.382,0,0,0,1.487-2.677l.149-.3a5.623,5.623,0,0,0-.149-2.677,4.118,4.118,0,0,1-.149-1.338,4.474,4.474,0,0,1,4.461-4.461,3.081,3.081,0,0,0,2.677-3.123V6.395a4.347,4.347,0,0,1,2.528-3.569,4.267,4.267,0,0,1,4.015.3,2.515,2.515,0,0,0,2.082.149l.595-.149a2.794,2.794,0,0,0,1.636-1.19,4.542,4.542,0,0,1,7.436,0,2.794,2.794,0,0,0,1.636,1.19l.446.149a2.871,2.871,0,0,0,2.231-.149,4.556,4.556,0,0,1,3.42-.446,4.151,4.151,0,0,1,2.974,2.677,7.465,7.465,0,0,1,.3,1.785,3.09,3.09,0,0,0,.744,1.785c.3.3.446.595.744.744a2.4,2.4,0,0,0,1.933.892A4.382,4.382,0,0,1,225.6,15.02a4.152,4.152,0,0,1-.892,2.677c-.149.3-.595.892-.446,1.487v.3a3.2,3.2,0,0,0,1.338,1.785l.149.149a4.434,4.434,0,0,1,1.785,2.528,4.13,4.13,0,0,1-.595,3.272,4.218,4.218,0,0,1-1.487,1.338,2.447,2.447,0,0,0-1.338,1.785v.3a1.655,1.655,0,0,0,.446,1.487,4.152,4.152,0,0,1,.892,2.677,4.474,4.474,0,0,1-4.461,4.461,2.4,2.4,0,0,0-1.933.892c-.3.3-.446.595-.744.744a2.166,2.166,0,0,0-.744,1.785,3.773,3.773,0,0,1-.3,1.785,4.151,4.151,0,0,1-2.974,2.677,4.557,4.557,0,0,1-3.42-.446,2.813,2.813,0,0,0-2.231-.149l-.446.149a2.794,2.794,0,0,0-1.636,1.19,3.774,3.774,0,0,1-3.42,1.785m-6.692-5.5a4.117,4.117,0,0,1,1.338.149l.595.149a5.434,5.434,0,0,1,2.826,2.082,2.363,2.363,0,0,0,3.867,0,5.434,5.434,0,0,1,2.826-2.082l.446-.149a4.437,4.437,0,0,1,3.867.446,2.56,2.56,0,0,0,1.785.3,2.338,2.338,0,0,0,1.636-1.487,1.886,1.886,0,0,0,.149-.892,4.614,4.614,0,0,1,1.338-3.272l.744-.744a4.613,4.613,0,0,1,3.569-1.487,2.349,2.349,0,0,0,2.379-2.379,2.869,2.869,0,0,0-.446-1.487,3.776,3.776,0,0,1-.744-3.272v-.3A4.645,4.645,0,0,1,225,26.62c.149,0,.3-.149.595-.744a2.065,2.065,0,0,0,.3-1.636,3.238,3.238,0,0,0-.744-1.19,5.018,5.018,0,0,1-2.528-3.272v-.3a3.878,3.878,0,0,1,.744-3.272,2.512,2.512,0,0,0,.446-1.487,2.349,2.349,0,0,0-2.379-2.379,5.193,5.193,0,0,1-3.569-1.487c-.149-.3-.446-.446-.744-.744a4.07,4.07,0,0,1-1.338-3.272,1.886,1.886,0,0,0-.149-.892A2.7,2.7,0,0,0,214,4.461a1.9,1.9,0,0,0-1.785.3,5.54,5.54,0,0,1-3.867.446l-.446-.149a4.917,4.917,0,0,1-2.826-2.082,2.364,2.364,0,0,0-3.867,0,4.917,4.917,0,0,1-2.826,2.082l-.595.149a5.239,5.239,0,0,1-3.718-.446A2.342,2.342,0,0,0,190.5,6.395v.892a5.554,5.554,0,0,1-4.61,5.205h-.149a2.349,2.349,0,0,0-2.379,2.379,1.341,1.341,0,0,0,.149.744,8.716,8.716,0,0,1,.3,3.867l-.149.3A6.614,6.614,0,0,1,181.58,23.5a5.216,5.216,0,0,0-.744,1.19,2.065,2.065,0,0,0,.744,1.487,7.768,7.768,0,0,1,2.082,3.718l.149.3a7.08,7.08,0,0,1-.3,3.867,6.441,6.441,0,0,0-.149.744,2.349,2.349,0,0,0,2.379,2.379h.149a5.426,5.426,0,0,1,4.61,5.205v.744a2.145,2.145,0,0,0,1.338,1.785,2.384,2.384,0,0,0,2.231-.149,4.709,4.709,0,0,1,2.379-.595" transform="translate(194.711 3495.044)" fill="#fff"/>
    <path id="Path_95" data-name="Path 95" d="M185.088,21.256a16.3,16.3,0,0,1,32.42,0h2.082a18.372,18.372,0,0,0-36.584,0Z" transform="translate(196.854 3497.285)" fill="#fff"/>
    <path id="Path_96" data-name="Path 96" d="M217.508,17.6a16.246,16.246,0,0,1-32.42,0h-2.082A18.179,18.179,0,0,0,201.3,34.851,18.388,18.388,0,0,0,219.59,17.6Z" transform="translate(196.854 3503.618)" fill="#fff"/>
    <path id="Path_97" data-name="Path 97" d="M207.177,32.038l-7.882-5.8-7.882,5.8,2.974-9.369-7.882-5.8h9.815L199.3,7.5l2.974,9.369h9.815l-7.882,5.8Zm-8.031-8.328,4.015,2.826-1.487-4.61L205.69,19.1h-4.908L199.3,14.49l-1.487,4.61H192.9l4.015,2.826-1.487,4.61Z" transform="translate(198.559 3498.698)" fill="#fff"/>
    <path id="Path_98" data-name="Path 98" d="M208.977,60.443,198.716,49.587l-10.41,10.856v-29.3h2.082V55.238l8.328-8.774,8.179,8.774V30.7h2.082Z" transform="translate(199.436 3510)" fill="#fff"/>
  </g>
</svg>
