<svg xmlns="http://www.w3.org/2000/svg" xmlns:xlink="http://www.w3.org/1999/xlink" width="50.252" height="71.835" viewBox="0 0 50.252 71.835">
  <defs>
    <clipPath id="clip-path">
      <rect id="Rectangle_38" data-name="Rectangle 38" width="50.252" height="71.835" fill="#fff"/>
    </clipPath>
  </defs>
  <g id="Group_41" data-name="Group 41" transform="translate(-209.312 -3453.083)">
    <g id="Group_33" data-name="Group 33" transform="translate(209.312 3453.083)">
      <g id="Group_32" data-name="Group 32" transform="translate(0 0)" clip-path="url(#clip-path)">
        <path id="Path_86" data-name="Path 86" d="M18.041,7.488a.776.776,0,0,0,.77.385,1.091,1.091,0,0,0,.641-.385,1.1,1.1,0,0,0,0-.9l-2.437-4.1c-.128-.257-.257-.385-.513-.385a.961.961,0,0,0-.641.128c-.257.128-.385.257-.385.513a.961.961,0,0,0,.128.641Z" transform="translate(4.376 0.594)" fill="#fff"/>
        <path id="Path_87" data-name="Path 87" d="M38.084,22.8l-4.233-2.181a.881.881,0,0,0-1.154.385.583.583,0,0,0,0,.641,1.771,1.771,0,0,0,.385.513l4.233,2.181a.471.471,0,0,0,.385.128h.257a1.771,1.771,0,0,0,.513-.385.583.583,0,0,0,0-.641.8.8,0,0,0-.385-.641" transform="translate(9.218 5.802)" fill="#fff"/>
        <path id="Path_88" data-name="Path 88" d="M10.46,9.161l4.1,2.437a.641.641,0,0,0,.77,0,1,1,0,0,0,.513-.513.86.86,0,0,0-.385-1.026l-4.1-2.437a1.1,1.1,0,0,0-.9,0,.776.776,0,0,0-.385.77,1.109,1.109,0,0,0,.385.77" transform="translate(2.849 2.128)" fill="#fff"/>
        <path id="Path_89" data-name="Path 89" d="M29.366,7.872a.914.914,0,0,0,.77-.385l2.437-4.1a1.1,1.1,0,0,0,0-.9A.776.776,0,0,0,31.8,2.1a.914.914,0,0,0-.77.385L28.6,6.59a1.1,1.1,0,0,0,0,.9,1.109,1.109,0,0,0,.77.385" transform="translate(8.059 0.594)" fill="#fff"/>
        <path id="Path_90" data-name="Path 90" d="M23.773,6.542a.877.877,0,0,0,.9-.9V.9a.9.9,0,1,0-1.8,0V5.644a1.081,1.081,0,0,0,.9.9" transform="translate(6.468 0)" fill="#fff"/>
        <path id="Path_91" data-name="Path 91" d="M39.719,14.9H34.973a.9.9,0,1,0,0,1.8h4.746a.9.9,0,0,0,0-1.8" transform="translate(9.635 4.213)" fill="#fff"/>
        <path id="Path_92" data-name="Path 92" d="M33.088,11.5a.641.641,0,0,0,.77,0l4.1-2.437a.776.776,0,0,0,.385-.77.914.914,0,0,0-.385-.77,1.1,1.1,0,0,0-.9,0l-4.1,2.437a.776.776,0,0,0-.385.77.866.866,0,0,0,.513.77" transform="translate(9.211 2.099)" fill="#fff"/>
        <path id="Path_93" data-name="Path 93" d="M40.632,31.616a.949.949,0,0,0-.513,1.154,14.193,14.193,0,0,1,.257,10.519l-6.8,16.8a1.4,1.4,0,0,0-.128.641V67.79H16.131V60.478A.471.471,0,0,0,16,60.093c0-.128-.128-.128-.128-.257a.126.126,0,0,0-.128-.128l-.128-.128a.126.126,0,0,0-.128-.128h-.128c-.128-.128-.257-.257-.385-.257a1.9,1.9,0,0,0-.9-.128l-5.9.641a1.889,1.889,0,0,1-1.154-2.052l.641-8.851a2.167,2.167,0,0,0-.385-1.283,2.083,2.083,0,0,0-1.154-.641H2.79l3.592-6.157V40.6c0-.128.128-.128.128-.257V36.362A15.171,15.171,0,0,1,15.1,22.508a13.793,13.793,0,0,1,5-1.539h.128a10.747,10.747,0,0,0,3.335,4.875l.128.128,1.026,2.181-.257.128a3.1,3.1,0,0,0-1.283,2.437,3.582,3.582,0,0,0,1.026,2.566l.128.128v3.335l-.128.128a3.4,3.4,0,0,0-.9,3.592,3.209,3.209,0,0,0,3.079,2.052h7.183a3.549,3.549,0,0,0,3.079-2.052,3.177,3.177,0,0,0-.9-3.592l-.128-.128V33.54l.128-.128a2.789,2.789,0,0,0,1.026-2.566A3.1,3.1,0,0,0,35.5,28.409l-.257-.128L36.4,25.972a10.437,10.437,0,0,0,3.335-11.545A10.251,10.251,0,0,0,29.856,7.5a10.674,10.674,0,0,0-9.877,6.927,13.331,13.331,0,0,0-.513,5A17.213,17.213,0,0,0,13.95,21.1,16.9,16.9,0,0,0,4.458,36.619v3.463L.1,47.394a1.1,1.1,0,0,0,0,.9,1.055,1.055,0,0,0,.77.513H5.612l-.641,8.723a3.562,3.562,0,0,0,2.566,4.1h.257l6.029-.641v7.825a.877.877,0,0,0,.9.9H33.833a.877.877,0,0,0,.9-.9V60.991l6.8-16.933a15.661,15.661,0,0,0-.385-11.8c.385-.641-.128-.77-.513-.641m-5.131-6.8h0l-.257.257-1.283,2.566H26.649l-1.283-2.566c0-.128-.128-.128-.128-.257a8.706,8.706,0,0,1-3.079-9.749,8.547,8.547,0,0,1,8.21-5.9A8.667,8.667,0,0,1,35.5,24.817m-9.108,9.364h7.825v1.924H26.393Zm.385,3.72h7.183a1.539,1.539,0,1,1,0,3.079H26.778a1.539,1.539,0,1,1,0-3.079m7.055-5.388H26.649a1.539,1.539,0,0,1,0-3.079h7.183a1.539,1.539,0,1,1,0,3.079" transform="translate(0 2.121)" fill="#fff"/>
      </g>
    </g>
  </g>
</svg>
