<svg id="Group_40" data-name="Group 40" xmlns="http://www.w3.org/2000/svg" width="58.916" height="59.232" viewBox="0 0 58.916 59.232">
  <path id="Path_99" data-name="Path 99" d="M36.883,172.932a5.132,5.132,0,0,1-4.145-2.139,3.951,3.951,0,0,0-2.139-1.6l-.669-.134a4.036,4.036,0,0,0-2.808.267,5,5,0,0,1-7.488-3.61c0-.4-.134-.8-.134-1.2a4.187,4.187,0,0,0-3.61-4.145,4.966,4.966,0,0,1-4.947-5.081,5.687,5.687,0,0,1,.267-1.471,6.365,6.365,0,0,0,.267-3.476l-.134-.4a6.284,6.284,0,0,0-2.006-3.343,8.117,8.117,0,0,1-.936-1.337,4.4,4.4,0,0,1,.134-3.878,4.7,4.7,0,0,1,.936-1.2,6.519,6.519,0,0,0,1.872-3.343l.134-.4a6.435,6.435,0,0,0-.267-3.476,4.807,4.807,0,0,1-.267-1.471,5.079,5.079,0,0,1,5.081-5.081,4.307,4.307,0,0,0,3.61-4.145,3.7,3.7,0,0,1,.134-1.2,5.067,5.067,0,0,1,2.808-3.878,5.519,5.519,0,0,1,4.813.134,3.958,3.958,0,0,0,2.808.267l.669-.134a3.951,3.951,0,0,0,2.139-1.6A5.132,5.132,0,0,1,37.15,113.7a4.76,4.76,0,0,1,4.145,2.273,3.951,3.951,0,0,0,2.139,1.6l.535.134a4.333,4.333,0,0,0,2.942-.267,5.579,5.579,0,0,1,3.878-.535,4.833,4.833,0,0,1,3.343,3.075,3.505,3.505,0,0,1,.267,2.006,3.3,3.3,0,0,0,1.07,2.273l.936.936a4.909,4.909,0,0,0,2.674,1.2,5.079,5.079,0,0,1,5.081,5.081,5.357,5.357,0,0,1-1.07,3.075,2.581,2.581,0,0,0-.535,2.139l.134.267a3.78,3.78,0,0,0,1.872,2.407c.134,0,.134.134.267.134a4.3,4.3,0,0,1,2.006,2.808,4.641,4.641,0,0,1-.8,3.744,5.351,5.351,0,0,1-1.6,1.471,3.349,3.349,0,0,0-1.738,2.273l-.134.267a2.581,2.581,0,0,0,.535,2.139,5.049,5.049,0,0,1-4.011,8.156,3.366,3.366,0,0,0-2.674,1.2,6.177,6.177,0,0,1-.936.936,3.3,3.3,0,0,0-1.07,2.273,10.321,10.321,0,0,1-.267,2.006,5.106,5.106,0,0,1-3.343,3.075,4.94,4.94,0,0,1-3.878-.535,4.333,4.333,0,0,0-2.942-.267l-.535.134a3.951,3.951,0,0,0-2.139,1.6,5.642,5.642,0,0,1-4.412,2.139m-8.022-6.017a6.713,6.713,0,0,1,1.6.267l.669.134a5.6,5.6,0,0,1,3.209,2.407,3.291,3.291,0,0,0,2.674,1.337,3.49,3.49,0,0,0,2.674-1.337,5.6,5.6,0,0,1,3.209-2.407l.535-.134a5.776,5.776,0,0,1,4.279.4,3,3,0,0,0,2.407.267,3.309,3.309,0,0,0,2.139-1.872,2.2,2.2,0,0,0,.134-1.337A5.28,5.28,0,0,1,54,160.9a5.815,5.815,0,0,0,.8-.936,5.558,5.558,0,0,1,4.011-1.738,3.254,3.254,0,0,0,3.209-3.209,3.2,3.2,0,0,0-.669-1.872,4.534,4.534,0,0,1-.936-3.61l.134-.267a5.7,5.7,0,0,1,2.674-3.61,2.813,2.813,0,0,0,.936-.936,2.733,2.733,0,0,0,.4-2.273,2.662,2.662,0,0,0-1.07-1.6l-.134-.134a5.466,5.466,0,0,1-2.808-3.61l-.134-.267a4.089,4.089,0,0,1,.936-3.61,3.2,3.2,0,0,0,.669-1.872,3.254,3.254,0,0,0-3.209-3.209A6.287,6.287,0,0,1,54,125.466a5.28,5.28,0,0,1-1.6-3.744,5.016,5.016,0,0,0-.134-1.337,3.268,3.268,0,0,0-4.546-1.6,5.259,5.259,0,0,1-4.279.4l-.535-.134a5.212,5.212,0,0,1-3.209-2.407,2.97,2.97,0,0,0-2.674-1.337,3.49,3.49,0,0,0-2.674,1.337,6.238,6.238,0,0,1-3.209,2.407l-.669.134a5.5,5.5,0,0,1-4.145-.4,3.532,3.532,0,0,0-3.075-.134,2.879,2.879,0,0,0-1.6,2.407,3.323,3.323,0,0,1-.134,1.07,6.042,6.042,0,0,1-5.215,5.883h-.267a3.254,3.254,0,0,0-3.209,3.209,2.275,2.275,0,0,0,.134.936,8.426,8.426,0,0,1,.267,4.412l-.134.4a8.008,8.008,0,0,1-2.407,4.279,2.53,2.53,0,0,0-.535.8,2.42,2.42,0,0,0-.134,2.139,1.966,1.966,0,0,0,.669.8,9.134,9.134,0,0,1,2.407,4.279l.134.4a8.426,8.426,0,0,1-.267,4.412,1.983,1.983,0,0,0-.134.936,3.254,3.254,0,0,0,3.209,3.209h.267a5.928,5.928,0,0,1,5.215,5.883v.936a2.828,2.828,0,0,0,1.738,2.407,3.246,3.246,0,0,0,2.942-.134,16.039,16.039,0,0,1,2.674-.4" transform="translate(-8.017 -113.7)" fill="#fff"/>
  <path id="Path_100" data-name="Path 100" d="M15.478,139.689a19.887,19.887,0,0,1,39.577,0h1.872a21.749,21.749,0,0,0-43.321,0Z" transform="translate(-6.134 -111.61)" fill="#fff"/>
  <path id="Path_101" data-name="Path 101" d="M55.155,137.1a19.828,19.828,0,0,1-39.577,0H13.706a21.7,21.7,0,0,0,43.321,0Z" transform="translate(-6.1 -105.812)" fill="#fff"/>
  <path id="Path_102" data-name="Path 102" d="M25.253,149.119H22.312a2.056,2.056,0,0,1-2.006-2.006V132.406a2.056,2.056,0,0,1,2.006-2.006h2.942a2.056,2.056,0,0,1,2.006,2.006v14.708a2.056,2.056,0,0,1-2.006,2.006m-2.942-16.847a.131.131,0,0,0-.134.134v14.708a.131.131,0,0,0,.134.134h2.942a.131.131,0,0,0,.134-.134V132.406a.131.131,0,0,0-.134-.134Z" transform="translate(-3.875 -108.071)" fill="#fff"/>
  <path id="Path_103" data-name="Path 103" d="M46.615,138.384h-8.29a.936.936,0,0,1,0-1.872H46.08a2.157,2.157,0,0,0,.4-1.2,1.518,1.518,0,0,0-.4-1.07l-14.307-.134,2.674-5.616a1.849,1.849,0,0,0-.4-2.139l-1.07-1.07h-.134a.131.131,0,0,0-.134.134l-6.953,12.034a1.21,1.21,0,0,1-1.337.4,1.21,1.21,0,0,1-.4-1.337l6.953-12.034a2.07,2.07,0,0,1,1.471-1.07,2.106,2.106,0,0,1,1.738.535l1.07,1.07a3.659,3.659,0,0,1,.8,4.279l-1.471,2.942,12.034.134.267.267a3.49,3.49,0,0,1,1.337,2.674,4.315,4.315,0,0,1-1.07,2.808l-.267.267Z" transform="translate(-2.641 -110.439)" fill="#fff"/>
  <path id="Path_104" data-name="Path 104" d="M44.189,147.018H33.759a7.572,7.572,0,0,1-2.407-.4l-6.685-2.273a.931.931,0,1,1,.669-1.738l6.685,2.273a7.893,7.893,0,0,0,1.872.267h9.761a1.927,1.927,0,0,0,0-2.674H38.707a.936.936,0,1,1,0-1.872h5.749l.535.4a4.148,4.148,0,0,1,1.2,2.942,4.06,4.06,0,0,1-1.6,2.808Z" transform="translate(-2.621 -104.633)" fill="#fff"/>
  <path id="Path_105" data-name="Path 105" d="M42.262,143.719h-1.6a.936.936,0,1,1,0-1.872h1.6c.134,0,.134,0,.134-.134a1.858,1.858,0,0,0-.134-2.54l-.4-.4H35.042a.936.936,0,0,1,0-1.872H42.53l.936.936a3.753,3.753,0,0,1,.267,5.215,1.725,1.725,0,0,1-1.471.669" transform="translate(0.776 -105.88)" fill="#fff"/>
  <path id="Path_106" data-name="Path 106" d="M40.455,140.132a1.156,1.156,0,0,1-.8-.4,1.029,1.029,0,0,1,.134-1.337l.936-.669a1.6,1.6,0,0,0,.669-1.2,2.58,2.58,0,0,0-.4-1.337l-.4-.4a.95.95,0,1,1,1.471-1.2l.4.4a3.523,3.523,0,0,1,.8,2.808,3.831,3.831,0,0,1-1.471,2.54l-.936.669a.586.586,0,0,1-.4.134" transform="translate(2.583 -107.107)" fill="#fff"/>
</svg>
