<svg xmlns="http://www.w3.org/2000/svg" width="34.7" height="34.72" viewBox="0 0 34.7 34.72">
  <path id="Union_11" data-name="Union 11" d="M-282.428-6651.114h-2.457a2.165,2.165,0,0,1-1.548-.617,2.234,2.234,0,0,1-.673-1.854.485.485,0,0,1,.543-.49c.275-.007.55,0,.823,0h.8a.671.671,0,0,0,.03-.131c0-2.819.018-5.639-.015-8.458a4.712,4.712,0,0,1,1.047-3.14,3.606,3.606,0,0,0,.844-2.559c-.02-.341.007-.683-.005-1.021-.015-.428.1-.877-.2-1.263a.487.487,0,0,1-.037-.258c0-.568-.008-1.14,0-1.71a.667.667,0,0,1,.689-.723q1.431-.028,2.863,0a.668.668,0,0,1,.681.731c.007.572,0,1.142,0,1.712a.464.464,0,0,1-.042.255,1.569,1.569,0,0,0-.179,1.042c-.005.439.018.879-.005,1.315a3.46,3.46,0,0,0,.788,2.413,4.945,4.945,0,0,1,1.088,3.294c-.039,2.818-.012,5.637-.012,8.479h2.683c0-.022,0-.05-.01-.059a4.938,4.938,0,0,1-1.645-5.046,6.947,6.947,0,0,1,6.9-5.669c1.186,0,2.37-.025,3.554.01.631.017,1.258.146,1.889.209a.629.629,0,0,0,.384-.079,2.681,2.681,0,0,1,2.35-.384.34.34,0,0,0,.4-.112c.226-.24.458-.473.7-.7a2.773,2.773,0,0,0,.708-1.006,1.824,1.824,0,0,1,2.065-1.033,1.856,1.856,0,0,1,1.484,1.707,1.793,1.793,0,0,1-1.31,1.9c-.782.169-1.117.842-1.649,1.292-.037.032-.013.163.013.236a2.728,2.728,0,0,1-.216,2.374.6.6,0,0,0-.029.419,6.261,6.261,0,0,1,.151,3.469c-.065.243-.2.448-.463.433a.674.674,0,0,1-.449-.251.63.63,0,0,1-.029-.466,5.235,5.235,0,0,0-.065-2.578,2.392,2.392,0,0,0-.213.166c-.307.3-.6.614-.917.9a3.04,3.04,0,0,1-4.287-.233,3.023,3.023,0,0,1-.144-4.242c.272-.3.59-.552.889-.827l-.045-.111a3.675,3.675,0,0,0-.555-.077c-.5,0-1-.007-1.5-.014a34.127,34.127,0,0,0-3.564.074,5.9,5.9,0,0,0-5.169,6.341,3.8,3.8,0,0,0,3.624,3.373c2.8.029,5.593.019,8.391,0a3.6,3.6,0,0,0,2.42-.966,1.6,1.6,0,0,1,.253-.208.448.448,0,0,1,.6.079.46.46,0,0,1,.037.63c-.116.158-.258.3-.414.475h.325q2.189,0,4.377,0c.545,0,.7.163.689.711a2.2,2.2,0,0,1-2.284,2.249c-.8,0-1.6,0-2.378,0a6.693,6.693,0,0,1-.158.763,1.769,1.769,0,0,1-1.676,1.208c-.911.01-1.821,0-2.73,0-5.278,0-10.554-.017-15.829.015h-.02A1.96,1.96,0,0,1-282.428-6651.114Zm1.9.984c.394.007.788,0,1.184,0q8.732,0,17.466,0c.673,0,1-.313.981-.97h-20.5A.825.825,0,0,0-280.529-6650.13Zm-4.21-1.972h27.172c.089,0,.176,0,.263,0a1.177,1.177,0,0,0,1.077-.964h-29.845A1.189,1.189,0,0,0-284.739-6652.1Zm.818-2.281c0,.218.138.305.344.305h4.827c.225,0,.356-.1.357-.332.005-.36,0-.721,0-1.107h-5.531C-283.922-6655.125-283.927-6654.753-283.92-6654.383Zm.023-2.16h5.484v-5.092h-.376c-.766,0-1.535.005-2.3,0a.483.483,0,0,1-.522-.476.5.5,0,0,1,.5-.5,3.587,3.587,0,0,1,.362-.005h2.336a3.277,3.277,0,0,0-.753-2.505,4.74,4.74,0,0,1-1.09-3.356c.032-.543.005-1.092.005-1.66h-1.8c0,.641-.015,1.265,0,1.887a4.5,4.5,0,0,1-.959,2.938,7.389,7.389,0,0,0-.5.729,3.026,3.026,0,0,0-.394,1.971c.218,0,.416-.013.612,0a.483.483,0,0,1,.49.508.478.478,0,0,1-.523.469c-.193.009-.386,0-.577,0Zm20.614-7.192c-.481.479-.966.954-1.441,1.442a2.046,2.046,0,0,0,.065,3.037,2.043,2.043,0,0,0,3.016.023c.485-.475.978-.944,1.431-1.451a2.029,2.029,0,0,0,.446-.783c.285-1.013-.916-2.608-2.046-2.757-.087-.012-.176-.017-.2-.02A1.7,1.7,0,0,0-263.283-6663.735Zm5.444-3.282a.793.793,0,0,0-.785.55,2.644,2.644,0,0,1-.792,1.148c-.275.26-.543.527-.8.775.24.249.444.458.7.718.183-.2.347-.375.51-.555a2.491,2.491,0,0,1,1.468-.926.816.816,0,0,0,.439-.315.814.814,0,0,0,.072-.929.828.828,0,0,0-.769-.467Zm-24.426-4.163h2.226v-1.141h-2.226Zm15.522-3.371c-.991-1.694-1.987-3.383-2.972-5.081a.453.453,0,0,0-.463-.265c-.647.017-1.295.015-1.942,0a.455.455,0,0,0-.465.262q-1.484,2.561-3,5.1a.831.831,0,0,1-.458.362c-.312.075-.46-.171-.567-.431-.763-1.83-1.538-3.655-2.288-5.489a.563.563,0,0,0-.5-.371c-.255-.05-.324.119-.429.267q-1.726,2.385-3.45,4.771c-.156.215-.315.4-.614.345s-.361-.283-.434-.52c-.585-1.9-1.177-3.787-1.759-5.681a.406.406,0,0,0-.367-.344,5.733,5.733,0,0,1-.991-.222,2.817,2.817,0,0,1-.562-.345v-.658h.725a3.183,3.183,0,0,0,.364.121,87.5,87.5,0,0,0,12.391,1.744,53.046,53.046,0,0,0,9.723-.257c2.588-.309,5.159-.748,7.735-1.154.686-.109,1.36-.3,2.039-.455h.394c.2.146.381.312.315.592s-.275.369-.532.419c-.344.065-.681.171-1.026.22a.379.379,0,0,0-.344.324c-.584,1.905-1.179,3.807-1.768,5.712-.074.24-.161.46-.448.5s-.439-.131-.587-.337q-1.741-2.415-3.489-4.825c-.1-.134-.171-.265-.387-.216s-.4.054-.5.322c-.213.587-.473,1.155-.716,1.731-.169.4-.423.55-.718.422s-.359-.4-.186-.818c.2-.473.4-.946.607-1.453-1.456.113-2.868.22-4.335.332.812,1.386,1.61,2.751,2.444,4.17.133-.307.24-.564.352-.82.158-.361.4-.488.689-.364s.369.389.22.751c-.213.517-.434,1.028-.647,1.546-.1.242-.2.465-.513.481h-.031C-266.5-6674.151-266.621-6674.344-266.743-6674.551Zm-9.265-1.189,2.45-4.176c-1.471-.114-2.885-.221-4.341-.332C-277.258-6678.726-276.645-6677.261-276.007-6675.74Zm-7.6-.9,2.87-3.968-4.32-.712C-284.579-6679.762-284.106-6678.237-283.612-6676.643Zm22.055-3.965c.964,1.332,1.9,2.62,2.868,3.963.493-1.592.966-3.116,1.451-4.678Z" transform="translate(288.501 6683.345)" fill="#fff" stroke="rgba(0,0,0,0)" stroke-miterlimit="10" stroke-width="1"/>
</svg>
