<svg xmlns="http://www.w3.org/2000/svg" width="21.165" height="29.515" viewBox="0 0 21.165 29.515">
  <g id="Group_208" data-name="Group 208" transform="translate(0.504 0.5)">
    <path id="Union_7" data-name="Union 7" d="M8.191,28.515a.688.688,0,0,1-.4-.719c.016-.824.006-1.649.006-2.518H7.453q-3.393,0-6.788,0c-.46,0-.744-.3-.646-.688A1.209,1.209,0,0,1,.2,24.247q1.413-2.15,2.83-4.3c.055-.083.1-.169.191-.31H2.774a.576.576,0,0,1-.5-.955q1.605-2.457,3.2-4.917c.059-.091.115-.182.194-.307-.124-.01-.2-.023-.282-.02a.572.572,0,0,1-.6-.316.613.613,0,0,1,.117-.669c.43-.594.853-1.192,1.278-1.788.441-.619.888-1.235,1.32-1.86a1.089,1.089,0,0,0,.147-.4A2.242,2.242,0,0,0,6.967,6.2a2.777,2.777,0,0,1-.374-.484.544.544,0,0,1,.3-.867c.494-.157,1-.288,1.489-.45a.728.728,0,0,0,.342-.245c.3-.4.569-.824.857-1.233a.559.559,0,0,1,1,0c.289.409.56.831.857,1.234a.734.734,0,0,0,.34.245c.466.154.941.28,1.41.422a.569.569,0,0,1,.321.983c-.3.391-.607.774-.895,1.172a.889.889,0,0,0-.134.4,2.833,2.833,0,0,0,.694,2.193c.727.9,1.357,1.879,2.033,2.82.163.227.307.448.17.739a.623.623,0,0,1-.681.318,1.425,1.425,0,0,0-.2.022c.073.115.124.2.178.281q1.593,2.446,3.186,4.895a1.057,1.057,0,0,1,.171.4.521.521,0,0,1-.473.582c-.182.027-.368.021-.6.033.066.107.113.19.166.27q1.423,2.161,2.847,4.319a.67.67,0,0,1,.134.721c-.145.284-.4.314-.688.314q-3.338-.005-6.676,0h-.366v.737c0,.594-.014,1.189,0,1.782a.687.687,0,0,1-.4.719Zm.735-1.132H11.24v-2.1H8.927Zm-4.5-7.54c-.891,1.366-1.791,2.727-2.688,4.091-.042.063-.073.135-.115.211H18.559c-.071-.114-.122-.2-.176-.282-.872-1.324-1.748-2.645-2.612-3.975a.478.478,0,0,0-.468-.252c-.815.013-1.631,0-2.447,0-.084,0-.168,0-.251,0a.567.567,0,0,1-.563-.572.551.551,0,0,1,.592-.535c1.159-.006,2.318,0,3.477,0h.322a1.31,1.31,0,0,0-.062-.138c-1.041-1.6-2.081-3.2-3.133-4.8a.436.436,0,0,0-.317-.147c-1.891-.009-3.783,0-5.675-.009a.373.373,0,0,0-.357.2C5.883,15.19,4.867,16.74,3.857,18.295c-.041.063-.071.134-.123.232h.35c1.132,0,2.263,0,3.394,0a.577.577,0,0,1,.593.324c.182.4-.1.783-.593.788q-1.336.014-2.67,0H4.8A.394.394,0,0,0,4.426,19.843ZM8.662,9.389a.278.278,0,0,0-.078.027,1.239,1.239,0,0,0-.3.229c-.593.818-1.178,1.643-1.764,2.466-.039.057-.07.12-.115.2h7.358c-.031-.056-.045-.088-.065-.115-.618-.869-1.235-1.739-1.86-2.6a.536.536,0,0,0-.242-.168,5.287,5.287,0,0,0-1.522-.485h-.021A4.738,4.738,0,0,0,8.662,9.389Zm.856-4.407a.919.919,0,0,1-.59.424c-.311.078-.616.182-.951.281.212.277.394.534.6.773a.953.953,0,0,1,.233.716c-.017.312,0,.627,0,.977a9.641,9.641,0,0,1,.959-.331,1.424,1.424,0,0,1,.641,0,9.764,9.764,0,0,1,.958.331c0-.358.011-.681,0-1a.9.9,0,0,1,.218-.665c.209-.247.4-.512.614-.8-.353-.1-.688-.178-1-.3a1.328,1.328,0,0,1-.5-.361c-.219-.259-.393-.554-.607-.864C9.881,4.451,9.689,4.71,9.518,4.983ZM5.454,2.751a.534.534,0,0,1,.81-.461,1.978,1.978,0,0,1,.577.582.647.647,0,0,1,0,.538c-.071.146-.276.228-.422.337A1.377,1.377,0,0,1,5.454,2.751Zm7.855.138a2.22,2.22,0,0,1,.6-.6.533.533,0,0,1,.807.468,1.237,1.237,0,0,1-.927.935A.534.534,0,0,1,13.309,2.889Zm-3.244-1.2a.538.538,0,0,1-.531-.5,5.02,5.02,0,0,1,0-.665A.549.549,0,0,1,10.074,0a.559.559,0,0,1,.563.534c.008.111,0,.221,0,.332h0a2.775,2.775,0,0,1,0,.333.545.545,0,0,1-.548.493Z" transform="translate(0 0)" fill="#fff" stroke="rgba(0,0,0,0)" stroke-miterlimit="10" stroke-width="1"/>
  </g>
</svg>
