<svg xmlns="http://www.w3.org/2000/svg" xmlns:xlink="http://www.w3.org/1999/xlink" width="26.222" height="31.481" viewBox="0 0 26.222 31.481">
  <defs>
    <clipPath id="clip-path">
      <rect id="Rectangle_148" data-name="Rectangle 148" width="26.222" height="31.481" fill="#fff"/>
    </clipPath>
  </defs>
  <g id="Group_212" data-name="Group 212" transform="translate(0 0)">
    <g id="Group_211" data-name="Group 211" transform="translate(0 0)" clip-path="url(#clip-path)">
      <path id="Path_354" data-name="Path 354" d="M12.927,31.481a.767.767,0,0,1-.312-.712q.017-2.367,0-4.733a.756.756,0,0,0-.2-.473c-.536-.548-1.1-1.074-1.577-1.54A10.188,10.188,0,0,1,9.1,24.58a4.847,4.847,0,0,1-4.5-1.724A14.636,14.636,0,0,1,3.42,21.29a6.063,6.063,0,0,0-2.92-2.3c-.047-.019-.095-.039-.142-.057a.5.5,0,0,1,0-.962,13.031,13.031,0,0,1,3.053-.787,8.966,8.966,0,0,1,4.68.473,6.715,6.715,0,0,1,2.649,1.89,4.214,4.214,0,0,1,.929,2.044,2.494,2.494,0,0,1-.2,1.41.339.339,0,0,0,.042.3c.338.342.7.664,1.077,1.022V17.723c-.147-.01-.308-.012-.465-.033A2.369,2.369,0,0,1,10,15.243a.745.745,0,0,0-.4-.722A6.317,6.317,0,0,1,6.557,9.14C6.5,6.427,6.539,3.711,6.54,1A.5.5,0,0,1,7.349.511c.838.451,1.673.907,2.5,1.378a.391.391,0,0,0,.492-.032c.786-.555,1.582-1.1,2.374-1.642.421-.291.5-.289.927.017.757.542,1.519,1.08,2.269,1.632a.364.364,0,0,0,.463.031C17.184,1.436,18,.99,18.818.542c.51-.281.865-.072.865.514,0,2.632.028,5.266-.007,7.9a6.426,6.426,0,0,1-3.235,5.68c-.218.134-.213.292-.211.486a2.363,2.363,0,0,1-1.458,2.38,6.313,6.313,0,0,1-1.15.273v9.853l1.223-1.148a2.649,2.649,0,0,1-.182-2.105,4.639,4.639,0,0,1,1.506-2.233,7.7,7.7,0,0,1,5.386-1.769,12.91,12.91,0,0,1,4.193.848c.252.1.475.212.475.528s-.221.425-.474.525a6.066,6.066,0,0,0-2.981,2.362,8.444,8.444,0,0,1-1.784,2.138,4.771,4.771,0,0,1-4.668.9,7.241,7.241,0,0,1-.871-.421c-.571.557-1.175,1.137-1.766,1.729a.439.439,0,0,0-.072.281c-.008.5-.018,1,0,1.506a.75.75,0,0,1-.313.712ZM7.522,1.724v.392q0,3.334,0,6.667a8.636,8.636,0,0,0,.05.888A5.584,5.584,0,0,0,18.7,8.906c.006-2.284,0-4.567,0-6.852V1.743c-.125.062-.215.1-.3.15q-1.668.914-3.335,1.831c-.359.2-.646.148-.8-.129s-.038-.531.333-.737l.571-.316c-.663-.475-1.291-.928-1.925-1.373a.207.207,0,0,0-.186.009c-.659.447-1.313.9-2,1.372.561.31,1.093.589,1.609.895a4.517,4.517,0,0,1,2.359,4.1c.006,1.26,0,2.52,0,3.779q0,.937,0,1.874a.468.468,0,0,1-.411.524c-.348.056-.57-.182-.57-.617q0-2.781,0-5.561a3.528,3.528,0,0,0-1.83-3.224c-.553-.33-1.126-.627-1.691-.937L7.522,1.724m2.5,21.537c-.653-.5-1.229-1-1.856-1.416-.935-.626-1.906-1.2-2.861-1.793a.493.493,0,1,1,.479-.855,29.045,29.045,0,0,1,4.593,3.114c.066.057.141.1.212.154l.1-.022a4.658,4.658,0,0,0-.008-.8,3.177,3.177,0,0,0-.9-1.711,6.021,6.021,0,0,0-2.345-1.474,8.668,8.668,0,0,0-4.307-.225c-.212.035-.423.078-.632.127s-.394.1-.66.172a6.732,6.732,0,0,1,2.562,2.436c.2.309.425.6.65.894a4.376,4.376,0,0,0,2.541,1.715,3.553,3.553,0,0,0,2.44-.316m14.348-1.442a11.063,11.063,0,0,0-3.8-.424,6.373,6.373,0,0,0-3.939,1.655A3.3,3.3,0,0,0,15.553,24.9a5.436,5.436,0,0,0-.008.925c.135-.093.179-.117.215-.148a25.063,25.063,0,0,1,3.92-2.737c.265-.155.524-.32.794-.467a.489.489,0,1,1,.495.842c-.093.063-.194.115-.288.176-1.115.723-2.237,1.435-3.341,2.175-.377.253-.711.572-1.108.9.173.079.286.142.406.184a3.881,3.881,0,0,0,4.279-1.282c.442-.521.837-1.086,1.226-1.648a6.3,6.3,0,0,1,1.906-1.8c.086-.053.171-.107.319-.2M11.008,15.212a1.371,1.371,0,0,0,1.337,1.506c.511.017,1.024.017,1.535,0a1.37,1.37,0,0,0,1.333-1.512,6.53,6.53,0,0,1-4.205.006" transform="translate(0 0)" fill="#fff"/>
    </g>
  </g>
</svg>
