<svg xmlns="http://www.w3.org/2000/svg" width="32.396" height="33.337" viewBox="0 0 32.396 33.337">
  <path id="dynia" d="M-59.862-4508.663a.873.873,0,0,0-.167-.06,4.6,4.6,0,0,1-2.555-1.251.474.474,0,0,0-.541-.125,3.738,3.738,0,0,1-1.964.066,1.611,1.611,0,0,0-.628-.013,6.085,6.085,0,0,1-5.175-1.431,11.36,11.36,0,0,1-3.793-6.759c-.15-.715-.213-1.45-.316-2.175v-1.769c.1-.716.166-1.44.312-2.146a11.378,11.378,0,0,1,3.829-6.816,6.2,6.2,0,0,1,4.494-1.5.474.474,0,0,0,.311-.07,4.824,4.824,0,0,1,3.363-1.214,10.873,10.873,0,0,0,.734-2.905c.11-1.106.145-2.222.192-3.334.026-.619.215-.837.815-.838q1.655,0,3.31,0c.559,0,.793.229.78.8a17.351,17.351,0,0,0,.493,4.878c.107.4.232.806.373,1.2a.339.339,0,0,0,.251.187,4.9,4.9,0,0,1,3.083,1.141.709.709,0,0,0,.437.139,6.231,6.231,0,0,1,4.046,1.183,9.87,9.87,0,0,1,3.523,4.7,14.813,14.813,0,0,1,.122,10.628,9.894,9.894,0,0,1-3.859,5.151,5.922,5.922,0,0,1-4.505.948,1.491,1.491,0,0,0-.6.005,3.868,3.868,0,0,1-2.056-.072.38.38,0,0,0-.435.095,4.645,4.645,0,0,1-2.635,1.3.587.587,0,0,0-.136.057Zm-3.076-4.448a4.539,4.539,0,0,0,.657,1.614,3.6,3.6,0,0,0,5.036.906,3.833,3.833,0,0,0,1.525-2.354,2.78,2.78,0,0,1,.08-.3.607.607,0,0,1,.677-.456.584.584,0,0,1,.488.688c-.119.591-.3,1.168-.48,1.828a7.944,7.944,0,0,0,1.259-.11,4.7,4.7,0,0,0,2.551-1.856,10.161,10.161,0,0,0,1.468-2.752c.163-.439.49-.623.825-.5a.665.665,0,0,1,.318.948c-.175.447-.356.9-.565,1.327a11.068,11.068,0,0,1-2.033,2.893c.237-.055.478-.1.709-.167a6.5,6.5,0,0,0,3.32-2.519,11.75,11.75,0,0,0,2.156-5.786,12.989,12.989,0,0,0-1.728-8.349,6.921,6.921,0,0,0-3.193-2.934,13.234,13.234,0,0,0-1.395-.424c.394.72.75,1.343,1.079,1.98a7.144,7.144,0,0,1,.4.987.615.615,0,0,1-.316.767.575.575,0,0,1-.768-.25c-.069-.115-.11-.249-.174-.367-.427-.787-.812-1.6-1.3-2.347a4.606,4.606,0,0,0-2.167-1.789,2.709,2.709,0,0,0-2.152-.015,9.848,9.848,0,0,1,1.417,2.53,1.432,1.432,0,0,1,.1.329.6.6,0,0,1-.395.668.569.569,0,0,1-.695-.246,3.1,3.1,0,0,1-.2-.424,8.122,8.122,0,0,0-1.364-2.268,1.772,1.772,0,0,0-2.837-.177,6.841,6.841,0,0,0-1.549,2.433,2.755,2.755,0,0,1-.216.451.548.548,0,0,1-.672.233.585.585,0,0,1-.41-.627,1.337,1.337,0,0,1,.1-.361,9.929,9.929,0,0,1,1.414-2.533,2.526,2.526,0,0,0-1.753-.122,4.933,4.933,0,0,0-2.582,1.924,10.354,10.354,0,0,0-1.387,2.62c-.2.515-.509.706-.869.554s-.456-.505-.27-1.016a11.385,11.385,0,0,1,1.369-2.667,1.8,1.8,0,0,0,.106-.208,4.6,4.6,0,0,0-1.992.67,8.336,8.336,0,0,0-3.38,4.16,13.371,13.371,0,0,0,0,10.455,8.34,8.34,0,0,0,3.327,4.128,4.672,4.672,0,0,0,1.966.691c-.081-.089-.119-.135-.161-.175a10.012,10.012,0,0,1-2.439-3.884.643.643,0,0,1,.3-.876.606.606,0,0,1,.82.384c.1.218.179.447.277.666A7.271,7.271,0,0,0-65.9-4511.7a2.9,2.9,0,0,0,2.286.43,2.978,2.978,0,0,1-.138-.31c-.135-.429-.285-.854-.389-1.29a.635.635,0,0,1,.322-.771.611.611,0,0,1,.271-.065A.658.658,0,0,1-62.938-4513.11Zm1.475-20.536c.447.263.445.258.874.043a2.607,2.607,0,0,1,2.555.015.685.685,0,0,0,.877-.067,17.2,17.2,0,0,1-.93-6.058h-2.452A17.246,17.246,0,0,1-61.463-4533.646Zm-4.974,15.221c-.273-.633-.512-1.282-.769-1.923a.658.658,0,0,1,.094-.735.639.639,0,0,1,.7-.161c1.135.3,2.274.582,3.413.865a.682.682,0,0,1,.62.79c0,.261,0,.523,0,.8h1.226c0-.217-.005-.425,0-.633a.624.624,0,0,1,.663-.7q1.179-.016,2.358,0a.617.617,0,0,1,.653.674c.008.209,0,.419,0,.662h1.226c0-.291,0-.571,0-.852a.654.654,0,0,1,.571-.733l3.531-.9a.608.608,0,0,1,.764.77,11.433,11.433,0,0,1-2.5,4.534,7.555,7.555,0,0,1-5.386,2.229A7.779,7.779,0,0,1-66.436-4518.426Zm7.57,3.433a6.559,6.559,0,0,0,5.811-4.657l-1.965.461c0,.337.006.652,0,.967a.638.638,0,0,1-.681.714c-.765.009-1.531.007-2.3,0-.458,0-.687-.253-.7-.731,0-.194,0-.39,0-.58h-1.226c0,.2,0,.39,0,.577-.01.492-.242.732-.724.735q-1.118.008-2.235,0c-.478,0-.709-.247-.716-.743,0-.314,0-.628,0-.94l-1.993-.466A6.65,6.65,0,0,0-58.866-4514.993Zm.259-6.582c-.225-.228-.436-.472-.708-.769-.267.295-.481.548-.713.782-.327.33-.681.347-.944.063a.646.646,0,0,1,.078-.951q.533-.566,1.083-1.116a.621.621,0,0,1,1.015.014q.538.538,1.061,1.094a.648.648,0,0,1,.072.973.56.56,0,0,1-.4.185A.785.785,0,0,1-58.607-4521.574Zm6.179-.941c-1.084-.4-2.165-.812-3.247-1.218-.4-.151-.808-.294-1.206-.456a.636.636,0,0,1-.155-1.157q1.72-1.318,3.455-2.616a.6.6,0,0,1,1.009.343c.355,1.446.693,2.9,1.036,4.346a1.134,1.134,0,0,1,.017.166.59.59,0,0,1-.6.652A.9.9,0,0,1-52.427-4522.516Zm-3.01-2.472,2.448.918-.555-2.357ZM-67.1-4523.2c.106-.446.235-.986.362-1.526.214-.909.425-1.818.64-2.726.168-.708.6-.866,1.167-.435,1.087.821,2.171,1.646,3.259,2.464a.734.734,0,0,1,.383.7.708.708,0,0,1-.543.574c-1.448.538-2.893,1.084-4.341,1.623a.935.935,0,0,1-.326.063C-66.857-4522.459-67.107-4522.721-67.1-4523.2Zm1.469-.874,2.452-.92-1.9-1.435Z" transform="translate(75.5 4541.5)" fill="#fff" stroke="rgba(0,0,0,0)" stroke-miterlimit="10" stroke-width="1"/>
</svg>
