<svg xmlns="http://www.w3.org/2000/svg" width="36.832" height="35.522" viewBox="0 0 36.832 35.522">
  <path id="Union_9" data-name="Union 9" d="M-270.4-4109.481c-.32,0-.509-.2-.51-.586,0-1.129-.026-2.259.012-3.386a46.435,46.435,0,0,1,1.035-8.865,18.248,18.248,0,0,1,2.088-5.49c-.2.08-.32.124-.439.18a10.5,10.5,0,0,0-4.572,4.412c-.322.551-.6,1.126-.9,1.69-.183.342-.42.438-.71.292a.516.516,0,0,1-.231-.75,14.29,14.29,0,0,1,3.8-5.22c.587-.477,1.238-.871,1.942-1.358-.729.043-1.4.046-2.056.125a13.144,13.144,0,0,0-7.426,3.242,14.7,14.7,0,0,0-3.426,4.68c-.256.534-.459.662-.8.5s-.392-.445-.143-.967a14.532,14.532,0,0,1,7.137-7.274,15.471,15.471,0,0,1,6.835-1.348c.091,0,.181,0,.272,0l.079-.093a.473.473,0,0,1-.142-.029,12.545,12.545,0,0,0-5.841-1.86,20.309,20.309,0,0,0-2.5.19c-.245.023-.488.105-.679-.127a.55.55,0,0,1,.369-.906,10.419,10.419,0,0,1,4.062-.118,14.99,14.99,0,0,1,5.332,2.028c.08.048.16.1.241.141.018.009.043,0,.076,0,0-.03.017-.068.005-.094a13.444,13.444,0,0,0-4.965-6.062,9.993,9.993,0,0,0-3.639-1.39c-.42-.076-.6-.287-.543-.629s.32-.5.748-.419a12.071,12.071,0,0,1,8.033,5.621c.215.323.412.66.6,1,.185.323.354.657.566,1.056.092-.649.142-1.223.262-1.783a9.836,9.836,0,0,1,.436-1.38.437.437,0,0,1,.548-.327.564.564,0,0,1,.4.6,2.317,2.317,0,0,1-.092.451,22.328,22.328,0,0,0-.419,2.254c.395-.541.771-1.093,1.185-1.618a14.928,14.928,0,0,1,9.408-5.787c.744-.126,1.5-.158,2.259-.214.453-.034.681.146.7.5s-.187.551-.644.562a13.572,13.572,0,0,0-5.23,1.118,15.338,15.338,0,0,0-7.1,6.612.33.33,0,0,0-.014.1c.469-.209.917-.424,1.375-.616a9.924,9.924,0,0,1,2.822-.773c.42-.042.629.091.673.427.046.359-.127.579-.542.628a11.469,11.469,0,0,0-3.76,1.263c-.07.036-.134.083-.2.121.8.293,1.61.539,2.378.88a18.376,18.376,0,0,1,7.512,6.421,29.733,29.733,0,0,1,3.514,6.782c.148.391.044.662-.283.783-.3.114-.546-.017-.692-.4a28.663,28.663,0,0,0-3.568-6.791,17.006,17.006,0,0,0-7.315-5.988c-.57-.232-1.17-.39-1.759-.576a3.062,3.062,0,0,0-.395-.063c.161.3.29.533.416.771a28.967,28.967,0,0,1,2.707,8.087c.133.674.248,1.353.36,2.031.071.427-.073.666-.411.725s-.533-.132-.623-.558c-.33-1.566-.617-3.142-1.006-4.692a21.281,21.281,0,0,0-2.4-5.9c-.054-.089-.118-.172-.2-.289a9.461,9.461,0,0,0-1.324,2.271,24.077,24.077,0,0,0-1.6,5.994,55.074,55.074,0,0,0-.574,9.451c0,.047,0,.1,0,.143-.007.386-.2.6-.527.6Zm10.58-3.021a1.539,1.539,0,0,0-.609-1.915.631.631,0,0,1-.16-.559c.046-.161.265-.3.439-.381a1.283,1.283,0,0,1,.546-.1.742.742,0,0,0,.79-.587,1.758,1.758,0,0,1,.26-.54,3.1,3.1,0,0,1,.469-.408c.19.161.417.256.462.409a1.551,1.551,0,0,0,1.666,1.2.516.516,0,0,1,.293.889,4.343,4.343,0,0,1-.546.551.6.6,0,0,0-.2.687,5.044,5.044,0,0,1,.127.735c.045.485-.379.83-.754.559a1.559,1.559,0,0,0-2.039.03.442.442,0,0,1-.255.082A.517.517,0,0,1-259.817-4112.5Zm.99-1.922c.094.294.2.629.3.922h1a.791.791,0,0,1,.268-.884l-.8-.606Zm-22.837,1.281a.629.629,0,0,1-.272-.506,1.322,1.322,0,0,0-.787-1.567,1.242,1.242,0,0,1-.276-.257v-.428a2.337,2.337,0,0,1,.64-.368,1.016,1.016,0,0,0,.934-.952,1.033,1.033,0,0,1,.085-.27c.175-.451.7-.568.92-.156a1.439,1.439,0,0,0,1.626.847.5.5,0,0,1,.415.842,1.5,1.5,0,0,0-.29,1.841.493.493,0,0,1-.658.653,1.372,1.372,0,0,0-1.773.272.484.484,0,0,1-.326.1A.523.523,0,0,1-281.665-4113.143Zm.5-2.335c.11.227.225.463.336.69l.747-.117c.038-.26.078-.527.111-.762-.221-.121-.46-.252-.673-.368Zm14.671-.687a.506.506,0,0,1,.5-.558.493.493,0,0,1,.5.521.486.486,0,0,1-.481.534h-.017A.49.49,0,0,1-266.5-4116.165Zm-9.9-.281c.145-.695.314-1.384.5-2.068a.5.5,0,0,1,.659-.361.552.552,0,0,1,.33.693c-.153.632-.313,1.263-.461,1.9a.542.542,0,0,1-.452.452h-.01A.528.528,0,0,1-276.4-4116.446Zm24.31-9.88a.514.514,0,0,1-.491-.539.5.5,0,0,1,.534-.521.487.487,0,0,1,.469.547.5.5,0,0,1-.5.513Zm3.965-.732a17.21,17.21,0,0,0-5.407-3.054,13.721,13.721,0,0,0-3.487-.683c-.54-.034-.764-.206-.735-.584s.262-.51.781-.485a16.187,16.187,0,0,1,8.585,3.264c.313.228.618.467.918.711a.52.52,0,0,1,.139.8.481.481,0,0,1-.38.211A.672.672,0,0,1-248.124-4127.058Zm-34.713-1.337a.482.482,0,0,1,.122-.642c.7-.622,1.4-1.245,2.115-1.851a4.386,4.386,0,0,1,.706-.456.456.456,0,0,1,.665.175.5.5,0,0,1-.123.721,12.95,12.95,0,0,0-2.679,2.21,1.67,1.67,0,0,1-.395.215A1.959,1.959,0,0,1-282.837-4128.4Zm33.494-3.706a1.406,1.406,0,0,0-1.8-.448.5.5,0,0,1-.6-.717,1.543,1.543,0,0,0-.129-1.92c-.283-.365.034-.826.615-.811.673.334,1.17-.053,1.608-.683a.623.623,0,0,1,.545-.168.58.58,0,0,1,.361.4,1.429,1.429,0,0,0,1.167,1.435.621.621,0,0,1,.348.461.624.624,0,0,1-.28.507,1.418,1.418,0,0,0-.965,1.579.587.587,0,0,1-.308.45.553.553,0,0,1-.194.03A.512.512,0,0,1-249.342-4132.1Zm-.982-2.635.058.806.791.2c.138-.221.294-.469.433-.694l-.514-.628Zm-29.066-.662a.5.5,0,0,1-.491-.532.485.485,0,0,1,.493-.524.5.5,0,0,1,.512.544.5.5,0,0,1-.5.513Zm14.879-1.613c-.3-.151-.365-.467-.168-.851a11.45,11.45,0,0,1,3.338-4.092.765.765,0,0,1,.6-.1c.147.046.241.274.386.456a2.429,2.429,0,0,1-.36.477,10.944,10.944,0,0,0-3.038,3.755c-.141.274-.322.412-.521.412A.523.523,0,0,1-264.512-4137.011Zm-5.758-1.142a.715.715,0,0,1-.287-.506c-.045-.458.111-.993-.072-1.363s-.7-.524-1.033-.816a.71.71,0,0,1-.252-.527.785.785,0,0,1,.4-.462,5.175,5.175,0,0,1,.961-.315.5.5,0,0,0,.411-.412c.08-.345.191-.683.295-1.023a.58.58,0,0,1,.643-.422,1.967,1.967,0,0,1,.348.293c.227.286.412.606.641.888a.566.566,0,0,0,.369.187c.158.009.317,0,.476,0a4.1,4.1,0,0,1,.606.01.754.754,0,0,1,.534.286.771.771,0,0,1-.066.612c-.18.33-.442.611-.644.929a.532.532,0,0,0-.053.379c.1.376.249.74.362,1.113a.53.53,0,0,1-.67.71c-.369-.105-.725-.259-1.1-.358a.559.559,0,0,0-.4.071c-.312.208-.584.478-.9.668a.808.808,0,0,1-.383.1A.42.42,0,0,1-270.27-4138.152Zm.041-2.964a1.179,1.179,0,0,1,.728,1.408,1.159,1.159,0,0,1,1.538-.262,1.224,1.224,0,0,1,.214-1.577,1.118,1.118,0,0,1-1.374-.7A1.18,1.18,0,0,1-270.229-4141.117Zm13.44.7a.484.484,0,0,1-.49-.557.5.5,0,0,1,.519-.5.5.5,0,0,1,.475.548.481.481,0,0,1-.5.511Z" transform="translate(283.5 4144.503)" fill="#fff" stroke="rgba(0,0,0,0)" stroke-miterlimit="10" stroke-width="1"/>
</svg>
