<svg id="Group_229" data-name="Group 229" xmlns="http://www.w3.org/2000/svg" xmlns:xlink="http://www.w3.org/1999/xlink" width="30.401" height="35.3" viewBox="0 0 30.401 35.3">
  <defs>
    <clipPath id="clip-path">
      <rect id="Rectangle_151" data-name="Rectangle 151" width="30.401" height="35.3" fill="#fff"/>
    </clipPath>
  </defs>
  <g id="Group_228" data-name="Group 228" transform="translate(0 0)" clip-path="url(#clip-path)">
    <path id="Path_385" data-name="Path 385" d="M15.363,6.005l1.034.582a2.065,2.065,0,0,0-.194.905A2.415,2.415,0,0,0,20.6,8.85l.84.453a.238.238,0,0,0,.194.065.4.4,0,0,0,.388-.259.383.383,0,0,0-.194-.582l-.905-.517a1.424,1.424,0,0,0,.065-.517A2.423,2.423,0,0,0,16.85,5.811l-1.1-.582a.383.383,0,0,0-.582.194.4.4,0,0,0,.194.582M18.6,8.979a1.463,1.463,0,0,1-1.487-1.487c0-.194.065-.323.065-.453l2.586,1.422a1.772,1.772,0,0,1-1.164.517" transform="translate(-5.339 -1.803)" fill="#fff"/>
    <path id="Path_386" data-name="Path 386" d="M29.872,9.375a10.974,10.974,0,0,1-1.228.065,8.22,8.22,0,0,1-3.621-.711c-.453-.259-1.487-.711-2.392-1.164A2.418,2.418,0,0,0,18.041,8.6a2.429,2.429,0,0,0,2.392,2.392h.323a.41.41,0,0,0,.323.388l2.586.711,1.875,2.457-2.2,2.715-.776-.517a.238.238,0,0,0-.194-.065h-.065l1.1-2.457a.4.4,0,0,0-.065-.453l-1.358-1.746a.459.459,0,1,0-.711.582l1.164,1.552-1.1,2.457-2.392-.194-.711-2.715.517-.84,1.164.453c.259.065.517,0,.582-.259s0-.517-.259-.582L18.752,11.9a.407.407,0,0,0-.517.194l-.776,1.293a.7.7,0,0,0-.065.323l.711,2.909-.97.647-1.81-2.651,2.845-2.974a.457.457,0,1,0-.647-.647L16.1,12.478v-1.94a.461.461,0,0,0-.194-.388L13.45,8.663a.466.466,0,0,0-.517.776L15.2,10.8v2.586l-.711.776.388-2.392c.065-.259-.129-.453-.388-.517s-.453.129-.517.388l-.517,2.974-3.685-.97.129-4.59A.391.391,0,0,0,9.7,8.663L3.623,5.043,3.235,4.2a.552.552,0,0,1,0-.453L3.3,3.556l.84.517L11.123,8.34a.466.466,0,1,0,.517-.776L5.045,3.556l.647-1.034h1.1l.84,1.1a.461.461,0,0,0,.388.194.559.559,0,0,0,.388-.194l1.1-1.681a.552.552,0,0,0,0-.453.437.437,0,0,0-.388-.259L7.567,1.1,6.856.194A.461.461,0,0,0,6.468,0,.559.559,0,0,0,6.08.194L4.27,3.039l-.905-.582a.82.82,0,0,0-.388-.065.5.5,0,0,0-.259.259l-.323.582a1.508,1.508,0,0,0,0,1.293l.388.711L.067,9.7a.5.5,0,0,0,.129.647c.065.065.129.065.259.065a.461.461,0,0,0,.388-.194L3.429,5.948,8.989,9.31,8.86,13.965,7.7,16.68v.259l-.065,6.788a.336.336,0,0,0,.129.259l1.81,2.2L7.308,32.455v.129a1.614,1.614,0,0,0,.84,1.875,1.721,1.721,0,0,0,.776.194,1.766,1.766,0,0,0,1.228-.517c.065-.065.065-.065.065-.129l3.1-7.047c0-.065,0-.065.065-.129l.129-1.228,4.4.065-.323,2.392a.389.389,0,0,0,.065.259l3.1,6.142c0,.065.065.065.065.129l.194.194a1.619,1.619,0,0,0,1.164.517,1.888,1.888,0,0,0,.582-.129,1.544,1.544,0,0,0,.97-1.422.238.238,0,0,0-.065-.194l-.711-1.487L24.7,34.2l.065.065.194.129a1.484,1.484,0,0,0,.905.259,1.3,1.3,0,0,0,.84-.259,1.581,1.581,0,0,0,.647-1.616c0-.065-.065-.129-.065-.194l-3.944-4.978.194-1.875,6.077.065a.442.442,0,0,0,.453-.453V22.176a.559.559,0,0,0-.194-.388l-5.56-3.879L26.7,14.935a.485.485,0,0,0,0-.582l-2.2-2.909a.336.336,0,0,0-.259-.129l-2.263-.647a2.434,2.434,0,0,0,1.034-1.487l.647.388a12.627,12.627,0,0,0,5.043.905h.259A8.133,8.133,0,0,0,30,10.409a.414.414,0,0,0,.388-.517.474.474,0,0,0-.517-.517M8.343,2l-.323.517L7.632,1.94ZM6.6,1.164l.259.388H6.339Zm7.694,14.288.129-.711,2,2.974-2.392,1.616.259-1.358V15.452Zm-4.655-.905,3.75.97v1.81L8.8,16.422ZM9.377,33.361a.83.83,0,0,1-.84.129.782.782,0,0,1-.388-.84l2.327-6.53v-.065l.905-6.465c.065-.259-.129-.453-.388-.517s-.453.129-.517.388l-.711,5.431L8.537,23.4,8.6,17.327l4.72.905-.323,2-.582,6.271Zm13.318.259a.879.879,0,0,1-.388.517.574.574,0,0,1-.711-.194l-.129-.129-3.039-5.948.323-2.392h1.293l-.194,2.134a.389.389,0,0,0,.065.259l.194.388a.484.484,0,0,0,.065.323l.194.194Zm-.259-5.754,3.944,5.043a.623.623,0,0,1-.259.582.552.552,0,0,1-.711,0l-.194-.129-4.073-4.978-.388-.776.194-2.069H22.5l-.194,2a1.092,1.092,0,0,0,.129.323M29.1,24.7,13.58,24.5l.323-4.008,4.978-3.3,3.427.259,6.788,4.72ZM19.01,8.6h2.974A1.539,1.539,0,0,1,20.5,10.021,1.49,1.49,0,0,1,19.01,8.6" transform="translate(0 0)" fill="#fff"/>
  </g>
</svg>
