<svg xmlns="http://www.w3.org/2000/svg" width="29.108" height="26.138" viewBox="0 0 29.108 26.138">
  <g id="Group_209" data-name="Group 209" transform="translate(0 0)">
    <g id="Group_210" data-name="Group 210">
      <path id="Path_330" data-name="Path 330" d="M0,4.146c.075-.6.133-1.2.229-1.8C.329,1.723.463,1.1.59.483a.552.552,0,0,1,.5-.477.55.55,0,0,1,.594.345A3.654,3.654,0,0,0,3.431,2.14a.538.538,0,0,1,.26.746.541.541,0,0,1-.772.249c-.517-.3-1.006-.652-1.519-.99-.055.408-.128.872-.176,1.337a12.726,12.726,0,0,0,.542,5.606,7.358,7.358,0,0,0,4.616,4.871,6.913,6.913,0,0,0,7.553-1.925c.04-.04.076-.084.115-.125a.594.594,0,0,1,1.013.013,7.468,7.468,0,0,0,2.2,1.684,6.833,6.833,0,0,0,5.211.444c.063-.019.126-.043.19-.058a.569.569,0,0,1,.726.373.555.555,0,0,1-.4.709,7.713,7.713,0,0,1-2.99.412,8.322,8.322,0,0,1-5.322-2.33c-.034-.032-.07-.062-.109-.1A8.325,8.325,0,0,1,4.549,14.41V24c0,1.287-.25,1.662-1.423,2.142H2.615a1.793,1.793,0,0,1-1.476-2.1q0-6.6,0-13.2a1.333,1.333,0,0,0-.108-.516,11.41,11.41,0,0,1-.8-2.652C.137,7.124.075,6.572,0,6.022ZM2.276,12.5v3.9q0,3.977,0,7.955A.588.588,0,0,0,2.843,25a.572.572,0,0,0,.568-.616q0-5.328,0-10.654a.384.384,0,0,0-.089-.248c-.339-.331-.689-.65-1.043-.981" fill="#fff"/>
      <path id="Path_332" data-name="Path 332" d="M27.644,2.08c-1.3,1.418-3,1.625-4.77,1.576-1.022-.028-2.042-.123-3.064-.146a10.181,10.181,0,0,0-1.754.1,3.275,3.275,0,0,0-2.7,2.305c-.091.248-.159.5-.235.758a.573.573,0,0,1-1.133,0c-.056-.19-.106-.383-.17-.571A3.421,3.421,0,0,0,10.4,3.526c-.652-.03-1.306,0-1.959,0a1.024,1.024,0,0,1-.389-.047.511.511,0,0,1-.324-.572A.5.5,0,0,1,8.2,2.426a9.532,9.532,0,0,1,3.907.288A4.143,4.143,0,0,1,14.39,4.622c.043.073.089.144.134.215,0,.006.017.005.047.013.025-.039.057-.082.082-.128A4.376,4.376,0,0,1,18.145,2.44a19.141,19.141,0,0,1,3.63.03A12,12,0,0,0,24.8,2.4,3.448,3.448,0,0,0,27.358.476l.051-.1a.576.576,0,0,1,1.112.137c.154.817.333,1.632.44,2.456A14.608,14.608,0,0,1,28.7,8.493a10.408,10.408,0,0,1-1.3,3.069c-.226.357-.535.46-.832.28a.579.579,0,0,1-.137-.867,11.162,11.162,0,0,0,1.5-6.758c-.042-.707-.138-1.41-.21-2.114l-.076-.023" fill="#fff"/>
      <path id="Path_333" data-name="Path 333" d="M20.476,10.143a4.144,4.144,0,0,1-2.8-1.12.661.661,0,0,1-.2-.742,4.119,4.119,0,0,1,6.756-1.809.67.67,0,0,1,.2.741,4.131,4.131,0,0,1-3.954,2.93m-1.8-1.787a2.913,2.913,0,0,0,4.552-1.231,2.935,2.935,0,0,0-4.552,1.231" fill="#fff"/>
      <path id="Path_334" data-name="Path 334" d="M8.614,10.144A4.13,4.13,0,0,1,4.686,7.255a.7.7,0,0,1,.214-.81,4.116,4.116,0,0,1,6.714,1.794.7.7,0,0,1-.213.812,4.153,4.153,0,0,1-2.787,1.093m1.814-1.783a2.915,2.915,0,0,0-4.56-1.214,2.935,2.935,0,0,0,4.56,1.214" fill="#fff"/>
      <path id="Path_335" data-name="Path 335" d="M5,10.4a.566.566,0,1,1-.552-.568A.572.572,0,0,1,5,10.4" fill="#fff"/>
      <path id="Path_336" data-name="Path 336" d="M25.137,12.72a.556.556,0,0,1,.553.565.566.566,0,1,1-1.132-.024.562.562,0,0,1,.579-.541" fill="#fff"/>
      <path id="Path_337" data-name="Path 337" d="M24.674,9.832a.566.566,0,1,1-.57.55.579.579,0,0,1,.57-.55" fill="#fff"/>
      <path id="Path_338" data-name="Path 338" d="M11.856,11.817a.566.566,0,0,1,.025-1.132.566.566,0,1,1-.025,1.132" fill="#fff"/>
      <path id="Path_339" data-name="Path 339" d="M26.022,7.508a.576.576,0,0,1,.578.541.566.566,0,0,1-1.131.055.578.578,0,0,1,.553-.6" fill="#fff"/>
      <path id="Path_340" data-name="Path 340" d="M17.8,11.26a.559.559,0,0,1-.556.557.566.566,0,1,1-.011-1.132.562.562,0,0,1,.567.575" fill="#fff"/>
      <path id="Path_341" data-name="Path 341" d="M3.069,8.639A.56.56,0,0,1,2.5,8.065a.566.566,0,1,1,1.132.025.564.564,0,0,1-.565.549" fill="#fff"/>
      <path id="Path_342" data-name="Path 342" d="M6.066,11.835a.564.564,0,0,1,.544-.577.571.571,0,0,1,.58.572.563.563,0,0,1-.562.559.553.553,0,0,1-.562-.554" fill="#fff"/>
      <path id="Path_343" data-name="Path 343" d="M23.036,11.847a.553.553,0,0,1-.574.542.562.562,0,0,1-.55-.569.572.572,0,0,1,.592-.561.564.564,0,0,1,.532.588" fill="#fff"/>
      <path id="Path_344" data-name="Path 344" d="M9.85,12.2a.555.555,0,0,1-.569.546.561.561,0,1,1,.032-1.122.55.55,0,0,1,.537.576" fill="#fff"/>
      <path id="Path_345" data-name="Path 345" d="M19.253,12.176a.55.55,0,0,1,.566-.548.562.562,0,1,1-.566.548" fill="#fff"/>
      <path id="Path_346" data-name="Path 346" d="M5.163,3.1a.546.546,0,0,1,.556-.557.561.561,0,0,1,.572.547.577.577,0,0,1-.576.579A.565.565,0,0,1,5.163,3.1" fill="#fff"/>
    </g>
  </g>
</svg>
