<svg id="Group_218" data-name="Group 218" xmlns="http://www.w3.org/2000/svg" width="34.513" height="25.72" viewBox="0 0 34.513 25.72">
  <path id="Path_363" data-name="Path 363" d="M13.474,22.946l-.375-.525c-.3-.375-7.874-9.673-7.874-14.1a8.324,8.324,0,1,1,16.647,0c0,4.424-7.574,13.723-7.874,14.1Zm0-21.9A7.281,7.281,0,0,0,6.2,8.324c0,3.524,5.7,10.948,7.274,12.973,1.575-2.025,7.274-9.448,7.274-12.973A7.329,7.329,0,0,0,13.474,1.05" transform="translate(-1.307 0)" fill="#fff"/>
  <path id="Path_364" data-name="Path 364" d="M15.149,13.149a3.224,3.224,0,1,1,3.224-3.224,3.2,3.2,0,0,1-3.224,3.224m0-5.4a2.175,2.175,0,1,0,2.175,2.175A2.176,2.176,0,0,0,15.149,7.75" transform="translate(-2.983 -1.676)" fill="#fff"/>
  <path id="Path_365" data-name="Path 365" d="M.544,33.6a.573.573,0,0,1-.375-.15.5.5,0,0,1,0-.75c.375-.375.75-.675,1.125-1.05a.506.506,0,0,1,.75.075.506.506,0,0,1-.075.75,6.948,6.948,0,0,0-1.05,1.05,3.248,3.248,0,0,1-.375.075" transform="translate(0 -7.884)" fill="#fff"/>
  <path id="Path_366" data-name="Path 366" d="M19.277,31.268a10.536,10.536,0,0,1-1.35-.15.53.53,0,1,1,.15-1.05,7.477,7.477,0,0,0,1.2.15,2.5,2.5,0,0,0,1.125-.225l.45-.225a.541.541,0,1,1,.6.9,4.452,4.452,0,0,1-.6.3,3.688,3.688,0,0,1-1.575.3m-4.424-.9H14.7c-.825-.225-1.575-.525-2.4-.825l-.75-.3c-.3-.075-.375-.375-.3-.675s.375-.375.675-.3l.675.3c.75.3,1.575.525,2.325.75a.537.537,0,0,1,.375.675.42.42,0,0,1-.45.375m-9.3-1.425a.411.411,0,0,1-.45-.3.494.494,0,0,1,.225-.675,7.206,7.206,0,0,1,1.95-.6,4.533,4.533,0,0,1,1.425,0,.53.53,0,1,1-.15,1.05,3.228,3.228,0,0,0-1.2,0,7.8,7.8,0,0,0-1.65.45c0,.075-.075.075-.15.075m17.622-.6a.275.275,0,0,1-.225-.075.583.583,0,0,1-.225-.75l.225-.375a10.506,10.506,0,0,1,1.65-2.4.53.53,0,1,1,.75.75,8.384,8.384,0,0,0-1.425,2.175l-.225.375a.65.65,0,0,1-.525.3" transform="translate(-1.262 -6.147)" fill="#fff"/>
  <path id="Path_367" data-name="Path 367" d="M35.144,23.52a.564.564,0,0,1-.525-.375.537.537,0,0,1,.375-.675c.525-.15.975-.225,1.5-.375a.5.5,0,0,1,.225.975c-.45.075-.975.225-1.425.3-.075.15-.075.15-.15.15" transform="translate(-8.654 -5.523)" fill="#fff"/>
  <path id="Path_368" data-name="Path 368" d="M31.4,7.65a1.464,1.464,0,0,1,.525-.075h.525a2.5,2.5,0,0,1,1.125.225,3.1,3.1,0,0,1,.825.525,2.693,2.693,0,0,1,.525.75,3.8,3.8,0,0,1,.15.975,3.109,3.109,0,0,1-.225,1.2,2.7,2.7,0,0,1-.6.9,4.252,4.252,0,0,1-.975.6,3.109,3.109,0,0,1-1.2.225A2.076,2.076,0,0,1,31.4,12.9a5.167,5.167,0,0,1-.6-.225,1.209,1.209,0,0,1-.525-.3c-.15-.15-.3-.225-.45-.375l.375-.525a.39.39,0,0,1,.3-.15.567.567,0,0,1,.3.075,1.639,1.639,0,0,0,.375.225l.45.225a1.462,1.462,0,0,0,.6.075,2.219,2.219,0,0,0,.75-.15A1.345,1.345,0,0,0,33.5,11.4a1.88,1.88,0,0,0,.3-.525,2.09,2.09,0,0,0,.075-.75,1.462,1.462,0,0,0-.075-.6c-.075-.15-.15-.375-.3-.45a1.209,1.209,0,0,0-.525-.3,2.312,2.312,0,0,0-.75-.075,1.651,1.651,0,0,0-.6.075,1.413,1.413,0,0,0-.6.15l-.75-.225.675-3.9h3.9v.525a1.066,1.066,0,0,1-.15.45c-.075.15-.3.15-.525.15h-2.4Z" transform="translate(-7.46 -1.201)" fill="#fff"/>
  <path id="Path_369" data-name="Path 369" d="M44.049,8.624a7.137,7.137,0,0,1-.225,1.875,4.041,4.041,0,0,1-.6,1.275,2.436,2.436,0,0,1-.975.75,3.312,3.312,0,0,1-2.4,0,2.2,2.2,0,0,1-.9-.75,3.348,3.348,0,0,1-.6-1.275,6.751,6.751,0,0,1-.225-1.875A7.137,7.137,0,0,1,38.35,6.75a4.041,4.041,0,0,1,.6-1.275,2.657,2.657,0,0,1,.9-.75,3.312,3.312,0,0,1,2.4,0,3.093,3.093,0,0,1,.975.75,2.886,2.886,0,0,1,.6,1.275,6.751,6.751,0,0,1,.225,1.875m-1.2,0a7.735,7.735,0,0,0-.15-1.5,2.941,2.941,0,0,0-.375-.975,3.464,3.464,0,0,0-.525-.525,1.593,1.593,0,0,0-1.35,0,1.181,1.181,0,0,0-.525.525,2.4,2.4,0,0,0-.375.975,7.574,7.574,0,0,0,0,3,2.941,2.941,0,0,0,.375.975,3.464,3.464,0,0,0,.525.525,1.593,1.593,0,0,0,1.35,0,1.181,1.181,0,0,0,.525-.525,2.4,2.4,0,0,0,.375-.975,8.432,8.432,0,0,0,.15-1.5" transform="translate(-9.536 -1.126)" fill="#fff"/>
</svg>
