<svg xmlns="http://www.w3.org/2000/svg" width="32.376" height="36.069" viewBox="0 0 32.376 36.069">
  <path id="Union_6" data-name="Union 6" d="M-1226.915-2754.335a8.624,8.624,0,0,0-2.963-1.726,10.592,10.592,0,0,0-2.925-.463,5.46,5.46,0,0,1-4.882-7.509c.132-.345.316-.671.474-1a.738.738,0,0,0-.08-.083,3.145,3.145,0,0,1-.125-4.829.387.387,0,0,0,.085-.316c-.11-.593-.247-1.182-.362-1.774a.342.342,0,0,0-.3-.3,3.226,3.226,0,0,1-.782-.326,2.7,2.7,0,0,1-1.225-1.848v-.753c.072-.2.13-.408.217-.6a2.625,2.625,0,0,1,1.975-1.552c0-.908-.005-1.806,0-2.7a7.524,7.524,0,0,1,2.218-5.487,11.679,11.679,0,0,1,5.729-3.006c.673-.158,1.366-.231,2.049-.344h5c.3.045.606.088.908.132a12.724,12.724,0,0,1,8.02,4.3c1.162,1.342,2.166,2.821,3.233,4.245.561.747,1.147,1.483,1.64,2.275a2.57,2.57,0,0,1-1.444,3.774,2.615,2.615,0,0,1-1.91-.126c-.04.112-.071.194-.1.28a2.5,2.5,0,0,1-1.859,1.739c-.245.062-.3.184-.335.388-.1.513-.2,1.028-.324,1.536a.524.524,0,0,0,.162.589,3.03,3.03,0,0,1,.849,3.069,3.171,3.171,0,0,1-1.156,1.713.468.468,0,0,0,.016.086c.059.111.121.219.18.329a5.33,5.33,0,0,1,.376,4.43,5.48,5.48,0,0,1-5.3,3.7,8.511,8.511,0,0,0-5.576,2.185c-.319.282-.524.424-.73.424S-1226.585-2754.043-1226.915-2754.335Zm-9.347-14.759a1.756,1.756,0,0,0-.761,2.048,1.929,1.929,0,0,0,1.126,1.164.671.671,0,0,1,.247,1.1c-.062.082-.132.157-.194.239a3.945,3.945,0,0,0-.833,3.083,4.085,4.085,0,0,0,4.139,3.578,9.842,9.842,0,0,1,6.126,2.188c.19.152.3.128.493,0a21.483,21.483,0,0,1,2.215-1.34,10.217,10.217,0,0,1,4.116-.865,3.9,3.9,0,0,0,3.613-2.454,3.945,3.945,0,0,0-.585-4.27c-.492-.629-.42-1,.308-1.358a1.789,1.789,0,0,0,1-1.268,1.764,1.764,0,0,0-.973-1.928,1.673,1.673,0,0,0-2.04.426,1.054,1.054,0,0,1,.175,1.34,4.918,4.918,0,0,1-4.908,2.954c-.209-.025-.372-.04-.464.246a2.88,2.88,0,0,1-2.732,2.005,2.9,2.9,0,0,1-2.758-2.021c-.072-.211-.173-.244-.37-.24a6.352,6.352,0,0,1-1.329-.021,5,5,0,0,1-3.665-2.94,1.03,1.03,0,0,1,.232-1.373,1.778,1.778,0,0,0-1.267-.55A1.761,1.761,0,0,0-1236.263-2769.094Zm8.6,4.357a1.47,1.47,0,0,0,1.4,1.159,1.522,1.522,0,0,0,1.533-1.15l-1.471-.851Zm2.013-2.285a3.782,3.782,0,0,0,2.466,1.187,3.311,3.311,0,0,0,3.255-1.271,3.424,3.424,0,0,1-1.925-.671c-.41-.267-.813-.55-1.238-.795a1.927,1.927,0,0,0-2.1-.041c-.127.077-.245.167-.364.255-.555.415-.738.414-1.3-.007-.073-.055-.144-.114-.22-.165a1.774,1.774,0,0,0-1.844-.213c-.5.242-.958.565-1.445.838-.426.238-.852.478-1.3.673a3.979,3.979,0,0,1-.793.167,3.032,3.032,0,0,0,1.791,1.174,4.073,4.073,0,0,0,3.872-1.1.861.861,0,0,1,.6-.325A.742.742,0,0,1-1225.654-2767.022Zm1.051-4.276a.683.683,0,0,1,.625.756c0,.088,0,.176,0,.225a5.641,5.641,0,0,1,1.012.318c.7.373,1.373.8,2.066,1.194.269.151.565.252.849.376a3.241,3.241,0,0,1,3.7-2.246,14.25,14.25,0,0,0,.428-5.308h-20.513a17.035,17.035,0,0,0,.435,5.308,3.23,3.23,0,0,1,3.7,2.205,6.4,6.4,0,0,0,1.882-1.05,4.978,4.978,0,0,1,1.979-.76c.007-.06.015-.094.015-.128,0-.577.2-.862.621-.89s.649.227.748.791c0,.012,0,.023,0,.034a.9.9,0,0,0,.681.688.8.8,0,0,0,.879-.384,1.461,1.461,0,0,0,.156-.478c.081-.415.324-.655.68-.655Zm10.093-2.452a1.167,1.167,0,0,0,.8-1.146c-.021-.419-.337-1.006-.8-1.053Zm-24.1-.976a1.021,1.021,0,0,0,.806.949c0-.682,0-1.362,0-2.042,0-.043-.009-.087-.016-.156A1.2,1.2,0,0,0-1238.614-2774.725Zm26.142-1.97a1.237,1.237,0,0,0,1.223,1.219,1.239,1.239,0,0,0,1.237-1.242,1.24,1.24,0,0,0-1.224-1.219h-.006A1.237,1.237,0,0,0-1212.472-2776.7Zm-3.942-5.491a1.933,1.933,0,0,1,1.878,1.858c.016.3.006.593.007.89v2l.726.222a2.661,2.661,0,0,1,2.131-2.065c-.006-.047,0-.073-.014-.089-1.129-1.49-2.167-3.061-3.41-4.45a10.968,10.968,0,0,0-7.551-3.7c-1.487-.115-2.986-.083-4.48-.064a11.477,11.477,0,0,0-6.646,2.2c-.387.276-.726.62-1.086.933,1.677.078,3.3.078,4.915.079a2.606,2.606,0,0,1,.376.013.665.665,0,0,1,.6.674.666.666,0,0,1-.607.669,2.273,2.273,0,0,1-.341.013c-1.86,0-3.721,0-5.58,0-.118,0-.291.038-.34.119a4.8,4.8,0,0,0-.3.7h.205l19.238,0C-1216.6-2782.19-1216.5-2782.19-1216.414-2782.186Zm-19.268,1.366c-.565,0-.755.194-.757.764,0,.672,0,1.345,0,2.02,0,.5.209.713.706.713q9.563,0,19.127,0c.5,0,.7-.212.706-.715,0-.651,0-1.3,0-1.951s-.17-.831-.828-.831h-18.956Zm15.274,21.032a.707.707,0,0,1,.651-.74c1.027-.184,1.324-.474,1.5-1.465.086-.482.363-.724.775-.673.394.048.6.361.568.859a2.816,2.816,0,0,1-2.694,2.635h-.043A.684.684,0,0,1-1220.408-2759.788Zm-9.443-12.854a.871.871,0,0,0-1.59-.009.686.686,0,0,1-.966.276.7.7,0,0,1-.182-1.017,2.233,2.233,0,0,1,1.949-1.135,2.214,2.214,0,0,1,1.947,1.164.686.686,0,0,1-.222,1.008.629.629,0,0,1-.319.091A.772.772,0,0,1-1229.851-2772.642Zm8.811,0a.875.875,0,0,0-1.592-.022.678.678,0,0,1-.989.269.7.7,0,0,1-.165-1,2.3,2.3,0,0,1,2.135-1.133,2.151,2.151,0,0,1,1.777,1.18.685.685,0,0,1-.23.977.646.646,0,0,1-.33.1A.757.757,0,0,1-1221.04-2772.637Z" transform="translate(1240.5 2789.466)" fill="#fff" stroke="rgba(0,0,0,0)" stroke-miterlimit="10" stroke-width="1"/>
</svg>
