<svg xmlns="http://www.w3.org/2000/svg" width="30.171" height="28.253" viewBox="0 0 30.171 28.253">
  <path id="Union_10" data-name="Union 10" d="M-1230.1-4123.013v-.919h1.849l.028-.066a1.123,1.123,0,0,0-.172-.134,2.928,2.928,0,0,1-1.723-2.839c0-.232,0-.466,0-.723h-.924c0-.411-.018-.8,0-1.187a5.775,5.775,0,0,1,4.009-5.21.579.579,0,0,0,.442-.583,5.741,5.741,0,0,1-3.456-4.293c-.2,0-.392.009-.578,0a1.41,1.41,0,0,1-1.341-1.114,1.355,1.355,0,0,1,.67-1.5.412.412,0,0,0,.243-.419,23.238,23.238,0,0,1,.082-2.641,6.582,6.582,0,0,1,5.861-5.588,6.586,6.586,0,0,1,6.933,4.689,17.835,17.835,0,0,1,.345,1.866,7.536,7.536,0,0,1,6.678-6.542,7.537,7.537,0,0,1,8.008,5.411c.135.48.2.978.3,1.468v7.8a1.257,1.257,0,0,0-.052.191,5.242,5.242,0,0,1-1.329,2.839c-.19.211-.378.423-.575.641a6.067,6.067,0,0,1,.961,4.193h-.885c0,.28,0,.534,0,.789a2.926,2.926,0,0,1-1.7,2.745,1.67,1.67,0,0,0-.2.144c.009.025.019.051.027.076h1.849v.909Zm17.235-7.16a1.36,1.36,0,0,0-.331.986c.005,1.65,0,3.3,0,4.951v.3h5.645v-.349c0-1.574,0-3.149,0-4.723a1.494,1.494,0,0,0-.267-1.107c.22-.244.419-.466.618-.687a2.614,2.614,0,0,1,.6,2.155h1.848a4.772,4.772,0,0,0-2.558-4.175l-.046.1a2.04,2.04,0,0,1-2.871,1.035.427.427,0,0,0-.325.021,2.036,2.036,0,0,1-2.786-.971c-.031-.065-.068-.129-.1-.193a4.692,4.692,0,0,0-2.521,4.186h1.81c.026-.4.028-.79.082-1.171a1.688,1.688,0,0,1,.512-.974Zm-14.136.039a1.234,1.234,0,0,0-.293.9c0,1.67,0,3.339,0,5.008,0,.092.009.185.015.279h5.629v-.328c0-1.622,0-3.244,0-4.867a1.4,1.4,0,0,0-.307-1.008c.216-.23.42-.451.628-.675a2.576,2.576,0,0,1,.61,2.177h1.861a4.825,4.825,0,0,0-2.713-4.271l-1.317,2.623c-.49-.326-.957-.629-1.416-.947a.266.266,0,0,0-.352,0c-.46.318-.928.623-1.416.948l-1.322-2.636a4.807,4.807,0,0,0-2.7,4.278h1.823c.028-.405.029-.8.089-1.176a1.62,1.62,0,0,1,.52-.966C-1227.431-4130.564-1227.22-4130.353-1227-4130.134Zm8.166,3.22a2.913,2.913,0,0,1-1.719,2.786,2.27,2.27,0,0,0-.239.18h6.656a.318.318,0,0,0-.165-.19,2.9,2.9,0,0,1-1.705-2.763v-.791h-.929a6.261,6.261,0,0,1,1.053-4.214c-.049-.047-.082-.08-.118-.111a5.207,5.207,0,0,1-1.885-4.07c0-.788,0-1.575,0-2.363v-.582c-.154.024-.274.05-.395.061a2.214,2.214,0,0,1-.4,0c-.193-.018-.249.063-.293.248a5.585,5.585,0,0,1-3.132,3.922c-.092.045-.184.086-.271.128.126.458.126.458.546.6.064.021.127.042.189.066a5.91,5.91,0,0,1,3.72,6.309h-.915Zm-1.859,1.789a2.456,2.456,0,0,0,.91-2.534h-.91Zm14.115-.023a2.292,2.292,0,0,0,.869-2.524h-.869Zm-7.559-.017v-2.5h-.9A2.261,2.261,0,0,0-1214.142-4125.166Zm-14.1-.007v-2.49h-.911C-1229.279-4126.369-1228.926-4125.408-1228.246-4125.173Zm1.762-8.053.779,1.561c.247-.164.479-.32.744-.5l-1.476-1.106Zm2.49,1.063.747.5c.267-.536.522-1.046.776-1.554l-.052-.042Zm14.127-.434a1.044,1.044,0,0,0,1.044.117,1.042,1.042,0,0,0,.645-.805A6.465,6.465,0,0,0-1209.867-4132.6Zm-1.021-.02c-.576-.177-1.006-.627-1.659-.659A1.051,1.051,0,0,0-1210.887-4132.617Zm-6.055-10.3c-.053,2.313-.033,4.629,0,6.944a4.225,4.225,0,0,0,1.661,3.326c.075-.067.138-.122.2-.179a5.309,5.309,0,0,1,2.113-1.247.607.607,0,0,0,.493-.586c-.012-.014-.023-.031-.038-.039-.077-.038-.155-.071-.231-.108a5.436,5.436,0,0,1-3.186-4.346,21.579,21.579,0,0,1-.068-2.869,2.558,2.558,0,0,1,3.142-2.525c1.179.242,2.349.523,3.526.772a2.964,2.964,0,0,0,3.283-1.1l.79.526-.61.714c.021.026.03.044.045.053.058.033.117.064.177.091a1.485,1.485,0,0,1,.928,1.518c-.016.7.009,1.405-.006,2.106a5.437,5.437,0,0,1-1.915,4.157,17.362,17.362,0,0,1-1.605,1.109.549.549,0,0,0,.458.515,5.032,5.032,0,0,1,1.77.944c.192.152.373.318.556.477a.488.488,0,0,0,.085-.047c.059-.048.117-.1.172-.15a4.307,4.307,0,0,0,1.419-3.266c0-2.192-.005-4.382,0-6.574a6.585,6.585,0,0,0-6.247-6.609q-.172-.009-.343-.009A6.556,6.556,0,0,0-1216.943-4142.914Zm-8.751,9c.383.333.806.623,1.219.931l1.038-.778c.316-.236.316-.236.15-.573h-2.419C-1225.705-4134.215-1225.774-4133.978-1225.694-4133.909Zm14.024-.128c.4.2.79.4,1.182.589a.31.31,0,0,0,.236,0c.391-.187.776-.388,1.181-.592-.043-.128-.08-.239-.109-.325-.42.031-.805.081-1.192.08s-.787-.051-1.193-.08C-1211.6-4134.259-1211.632-4134.154-1211.67-4134.038Zm-3.382-8.124a17.126,17.126,0,0,0,.048,2.952,4.653,4.653,0,0,0,4.324,3.99,4.728,4.728,0,0,0,4.759-3.164,6.941,6.941,0,0,0,.251-2.389c0-.408-.011-.815,0-1.224a.6.6,0,0,0-.4-.648c-.2-.084-.385-.209-.589-.282a.646.646,0,0,0-.394-.022,4.333,4.333,0,0,1-2.273.139c-1.26-.261-2.513-.561-3.774-.819a1.779,1.779,0,0,0-.362-.038A1.569,1.569,0,0,0-1215.052-4142.161Zm-14.092-.1a18.907,18.907,0,0,0,.018,2.954,4.667,4.667,0,0,0,4.438,4.1,4.663,4.663,0,0,0,4.752-3.542,17.034,17.034,0,0,0,.23-2.111l-.063,0c0-.4,0-.8,0-1.2a.54.54,0,0,0-.334-.543c-.232-.107-.453-.238-.69-.334a.526.526,0,0,0-.343-.013,4.354,4.354,0,0,1-2.328.139c-1.27-.266-2.532-.566-3.8-.825a1.5,1.5,0,0,0-.3-.03A1.571,1.571,0,0,0-1229.144-4142.261Zm-1.83,1.643a.6.6,0,0,0,.014.495c.146.247.377.227.614.208a1.765,1.765,0,0,1,.215-.01v-.922a1.983,1.983,0,0,1-.247,0c-.048,0-.1,0-.143,0A.442.442,0,0,0-1230.974-4140.619Zm12.389.7c.233.014.459.027.6-.218a.594.594,0,0,0,0-.493c-.139-.252-.368-.237-.606-.223a2.155,2.155,0,0,1-.231,0v.925c.026,0,.052,0,.078,0C-1218.69-4139.92-1218.637-4139.917-1218.585-4139.915Zm-10.9-6.368a7.139,7.139,0,0,0-.62,3.847,2.626,2.626,0,0,1,3.366-2.062c1.109.248,2.216.51,3.328.736a2.935,2.935,0,0,0,3.2-1.048c.015-.019.047-.027.075-.042l.756.51-.632.745a1.651,1.651,0,0,1,1.115,1.041,15.105,15.105,0,0,0-.011-1.882,5.6,5.6,0,0,0-4.676-4.807,5.4,5.4,0,0,0-.9-.075A5.714,5.714,0,0,0-1229.482-4146.282Zm11.651,2.619C-1217.844-4143.638-1217.835-4143.648-1217.832-4143.664Zm6.535,16.893v-.9h1.848v.9Zm0-1.877v-.9h1.842v.9Zm-.881-8.709.8-.4a1.1,1.1,0,0,0,2.016,0l.8.4a1.9,1.9,0,0,1-1.741,1.205h-.049A1.92,1.92,0,0,1-1212.18-4137.357Zm-14.116.005.8-.4c.694.9,1.348.9,2.034,0,.258.129.52.261.778.389a1.86,1.86,0,0,1-1.58,1.2c-.066.005-.132.008-.2.008A1.951,1.951,0,0,1-1226.3-4137.352Zm13.559-1.616a1.412,1.412,0,0,1-1.39-1.428,1.411,1.411,0,0,1,1.42-1.4,1.41,1.41,0,0,1,1.389,1.427,1.41,1.41,0,0,1-1.4,1.4Zm-.453-1.435a.469.469,0,0,0,.454.485.47.47,0,0,0,.484-.456.465.465,0,0,0-.469-.47h0A.464.464,0,0,0-1213.189-4140.4Zm5.168,1.435a1.425,1.425,0,0,1-1.408-1.417,1.423,1.423,0,0,1,1.415-1.409,1.422,1.422,0,0,1,1.407,1.417,1.425,1.425,0,0,1-1.41,1.409Zm-.462-1.438a.46.46,0,0,0,.446.489.455.455,0,0,0,.481-.452.452.452,0,0,0-.458-.473h0A.456.456,0,0,0-1208.484-4140.406Zm-19.736.477a1.555,1.555,0,0,1,.626-1.632,1.378,1.378,0,0,1,1.554.014,1.572,1.572,0,0,1,.609,1.618h-.929c0-.146.005-.294,0-.439a.454.454,0,0,0-.461-.472.448.448,0,0,0-.467.466c-.008.14,0,.281,0,.447Zm4.734,0a1.476,1.476,0,0,1,.532-1.587,1.388,1.388,0,0,1,1.549-.07,1.5,1.5,0,0,1,.655,1.653h-.884c-.056-.721-.147-.893-.47-.905s-.426.141-.52.91Z" transform="translate(1232.517 4150.766)" fill="#fff" stroke="rgba(0,0,0,0)" stroke-miterlimit="10" stroke-width="1"/>
</svg>
