<svg xmlns="http://www.w3.org/2000/svg" width="27.5" height="33.872" viewBox="0 0 27.5 33.872">
  <g id="Group_225" data-name="Group 225" transform="translate(0.001)">
    <path id="Path_381" data-name="Path 381" d="M21.159,0c.42.308.339.741.223,1.133a24.489,24.489,0,0,1-.8,2.372c-.415,1.005-.9,1.98-1.361,2.976a3.534,3.534,0,0,0,.383.426.392.392,0,0,0,.311.048c1.411-.387,2.819-.786,4.229-1.178a1.6,1.6,0,0,1,2.016.859,1.551,1.551,0,0,1-.832,2.036c-.343.139-.707.228-1.13.362.752.176,1.438.319,2.115.5a1.534,1.534,0,0,1,1.153,1.843,1.5,1.5,0,0,1-1.739,1.207c-1.444-.3-2.878-.643-4.315-.969a17.416,17.416,0,0,0-1.772-.339q.48.581.96,1.16c1.019,1.229,2.1,2.414,3.043,3.7a11.843,11.843,0,0,1,2.219,5.83,10.445,10.445,0,0,1-.645,5.316,9.347,9.347,0,0,1-3.6,4.243,14.783,14.783,0,0,1-6.6,2.233,17.6,17.6,0,0,1-7.94-.879,11.3,11.3,0,0,1-4.591-2.907A9.26,9.26,0,0,1,0,23.332a13.429,13.429,0,0,1,3.6-8.9q1.39-1.594,2.751-3.215a9.568,9.568,0,0,0,.545-.789c-.981-.378-1.4-.922-1.333-1.714.063-.759.568-1.246,1.55-1.466-.123-.181-.237-.351-.355-.519a10.925,10.925,0,0,1-1.719-4.5.5.5,0,0,1,.751-.557,10.178,10.178,0,0,0,4.548.787,2.338,2.338,0,0,0,.246-.036C10.368,1.9,10.188,1.4,9.964.914,9.748.447,9.769.284,10.181,0h.4a1.018,1.018,0,0,0,.176.066,26.653,26.653,0,0,0,7.053.375C18.8.351,19.777.15,20.762,0ZM16.717,8.289c-.091,0-.166-.013-.241-.013q-4.594,0-9.19,0a1.181,1.181,0,0,0-.324.042.512.512,0,0,0-.4.571.518.518,0,0,0,.48.505,2.747,2.747,0,0,0,.363.013c.6,0,1.19-.008,1.785.006.359.008.573.221.562.516s-.213.465-.563.476c-.3.01-.6-.02-.891.014a.609.609,0,0,0-.379.223c-.208.281-.35.617-.573.886-1.017,1.23-2.05,2.449-3.086,3.664a12.573,12.573,0,0,0-3.25,7.7,8.386,8.386,0,0,0,2.038,6.2A10.554,10.554,0,0,0,7.873,32.09a16.671,16.671,0,0,0,7.048.669,13.754,13.754,0,0,0,6.188-2.109,8.191,8.191,0,0,0,3.454-4.489,10.353,10.353,0,0,0,.062-5.484A12.3,12.3,0,0,0,22,15.584c-1.108-1.342-2.241-2.663-3.372-3.986a.456.456,0,0,0-.308-.118,1.5,1.5,0,0,1-1.376-.818.43.43,0,0,0-.465-.256c-1.51.006-3.019,0-4.529,0a2.93,2.93,0,0,1-.363-.014.485.485,0,0,1-.042-.957,1.733,1.733,0,0,1,.36-.03q2.23,0,4.462,0h.346Zm-5.182-5.9a1.254,1.254,0,0,0,.153,0c.555-.077,1.11-.157,1.666-.232a.509.509,0,0,1,.654.512,10,10,0,0,0,.945,3.552c.148.353.244.819.518,1s.723.044,1.1.06a.325.325,0,0,0,.355-.206,1.581,1.581,0,0,1,1.024-.821.627.627,0,0,0,.356-.277c.406-.793.816-1.586,1.171-2.4.341-.783.617-1.594.951-2.471a27.587,27.587,0,0,1-9.212.063c.114.432.215.812.322,1.22m2.792,4.891a14.259,14.259,0,0,1-1.291-4.053,14.956,14.956,0,0,1-6.835-.3A10.313,10.313,0,0,0,7.788,6.509a1.5,1.5,0,0,0,1.6.782A10.141,10.141,0,0,1,10.8,7.279Zm5.551,2.944c.083.023.176.053.27.075q2.215.508,4.433,1.015c.428.1.855.207,1.288.275a.53.53,0,0,0,.632-.442.573.573,0,0,0-.406-.635,1.584,1.584,0,0,0-.19-.055l-4.3-.989c-.562-.129-1.125-.253-1.724-.388Zm.067-2.229-.006.065c.675.156,1.349.315,2.025.465a.626.626,0,0,0,.292,0c.849-.233,1.7-.468,2.542-.714a.567.567,0,1,0-.314-1.08c-.965.264-1.928.537-2.892.807l-1.647.46m-1.077.842c0-.331.009-.661,0-.992a.573.573,0,0,0-.546-.625.565.565,0,0,0-.575.6q-.029,1.023,0,2.049a.563.563,0,1,0,1.123-.005c.013-.341,0-.683,0-1.025" fill="#fff"/>
    <path id="Path_383" data-name="Path 383" d="M17.462,18.739c0,.2.01.4,0,.595a1.29,1.29,0,0,1-2.573.02c-.022-.3,0-.595-.012-.893A1.094,1.094,0,0,0,13.8,17.348a12.237,12.237,0,0,0-1.256,0,1.492,1.492,0,0,0-.025,2.983,12.708,12.708,0,0,1,1.9.168,4.07,4.07,0,0,1,.2,7.823c-.275.085-.371.21-.341.484a3.812,3.812,0,0,1,0,.595,1.312,1.312,0,0,1-1.307,1.271,1.293,1.293,0,0,1-1.277-1.259,5.208,5.208,0,0,1,0-.661c.013-.2-.073-.264-.253-.307a3.587,3.587,0,0,1-2.851-2.829,2.85,2.85,0,0,1-.059-1.012A1.238,1.238,0,0,1,9.8,23.55a1.29,1.29,0,0,1,1.253,1.1,2.672,2.672,0,0,0,.182.728.978.978,0,0,0,.911.555c.418.009.838.012,1.256,0a1.49,1.49,0,0,0,.011-2.979,6.821,6.821,0,0,1-2.187-.244,4.126,4.126,0,0,1-2.751-3.864,4.065,4.065,0,0,1,2.881-3.891c.261-.08.356-.2.328-.463a3.862,3.862,0,0,1,0-.627,1.272,1.272,0,0,1,1.285-1.242,1.285,1.285,0,0,1,1.3,1.236,4.7,4.7,0,0,1,0,.661c-.016.209.063.279.265.323A3.488,3.488,0,0,1,17.155,17a10.8,10.8,0,0,1,.4,1.718Zm-4.184-4.133a3.392,3.392,0,0,0-.014-.692.413.413,0,0,0-.293-.267c-.093,0-.251.168-.271.281a3.843,3.843,0,0,0-.014.759c.035,1.131-.164,1-.925,1.183a3.079,3.079,0,0,0-2.275,2.944,3.022,3.022,0,0,0,2.1,2.933,11.131,11.131,0,0,0,1.991.214,2.505,2.505,0,0,1,2.274,2.17,2.394,2.394,0,0,1-1.67,2.643,9.4,9.4,0,0,1-2.094.148,1.919,1.919,0,0,1-1.539-.776,2.231,2.231,0,0,1-.468-1.281c-.016-.2-.134-.368-.34-.3a.443.443,0,0,0-.23.36,3.591,3.591,0,0,0,.261,1.078,2.585,2.585,0,0,0,2.269,1.52c.485.038.64.209.646.692,0,.32,0,.64,0,.959,0,.226-.016.487.3.477s.294-.271.3-.5v-.794c0-.709.051-.771.756-.91a3.083,3.083,0,0,0-.377-6.083c-.439-.029-.881-.02-1.319-.061a2.461,2.461,0,0,1-2.226-2.1,2.385,2.385,0,0,1,1.76-2.732,7.1,7.1,0,0,1,2.1-.108,2.038,2.038,0,0,1,1.9,2.086,4.548,4.548,0,0,0,.019.758c.023.118.2.206.3.308.091-.1.256-.2.262-.31A6.369,6.369,0,0,0,16.422,18a2.674,2.674,0,0,0-2.142-2.2c-1-.167-1-.167-1-1.2" fill="#fff"/>
  </g>
</svg>
