<svg id="ognisko" xmlns="http://www.w3.org/2000/svg" xmlns:xlink="http://www.w3.org/1999/xlink" width="19.815" height="19.511" viewBox="0 0 19.815 19.511">
  <defs>
    <clipPath id="clip-path">
      <rect id="Rectangle_29" data-name="Rectangle 29" width="19.815" height="19.511" fill="#7c7c7c"/>
    </clipPath>
  </defs>
  <g id="Group_21" data-name="Group 21" transform="translate(0 0)" clip-path="url(#clip-path)">
    <path id="Path_59" data-name="Path 59" d="M19.761,16.226a1.4,1.4,0,0,0-.782-1.043c-.782-.261-1.721.469-2.138,1.668a3.284,3.284,0,0,0-.156,1.564v.052L11.419,16.9l6.987-1.877.052-.313a4.3,4.3,0,0,0-.052-1.981,1.885,1.885,0,0,0-.939-1.3l-.313-.156V10.96h-.365l.365-.052a10.976,10.976,0,0,0-.052-1.2,7.781,7.781,0,0,0-.626-2.5,9.189,9.189,0,0,0-1.2-1.929,8.05,8.05,0,0,0-1.512-1.46,1.125,1.125,0,0,0-1.147-.156A6.26,6.26,0,0,0,10.584.271a1.1,1.1,0,0,0-1.3-.1,1.161,1.161,0,0,0-.626,1.147,3.646,3.646,0,0,1-1.095,2.4C5.423,5.485,3.441,7.519,3.337,10.126v.313c0,.156-.052.313-.052.521v.261a2.224,2.224,0,0,0-1.3,1.356,4.592,4.592,0,0,0-.1,2.346l-1.043.261a1.291,1.291,0,0,0-.782,1.043A2.744,2.744,0,0,0,.209,17.79a3.309,3.309,0,0,0,.834,1.3,1.512,1.512,0,0,0,.939.417,1.018,1.018,0,0,0,.365-.052l.313-.156,7.456-2.033,7.039,2.086.052-.1a1.091,1.091,0,0,0,.313.209.773.773,0,0,0,.365.052,1.512,1.512,0,0,0,.939-.417,2.823,2.823,0,0,0,.834-1.3,3.237,3.237,0,0,0,.1-1.564m-2.033-3.389a5.471,5.471,0,0,1,.1,1.512l-14.7,3.963a2.783,2.783,0,0,0-.156-1.564A3.024,3.024,0,0,0,2.19,15.5l13.869-3.754A1.228,1.228,0,0,1,17.1,11.9a1.51,1.51,0,0,1,.626.939M10.845,8.874a.472.472,0,0,0,.521-.156,2.512,2.512,0,0,0,.365-.782l.209.209a4.76,4.76,0,0,1,.417.678,2.34,2.34,0,0,1,.209.886v.469a2.3,2.3,0,0,1-1.2,2.033,3.207,3.207,0,0,0-.834-1.46.394.394,0,0,0-.417-.052.349.349,0,0,0-.209.365,1.793,1.793,0,0,1-.521,1.2,2.347,2.347,0,0,1-1.408-2.138V9.761c.052-.73.469-1.356,1.616-2.294a2.04,2.04,0,0,0,.73-1.095,5.084,5.084,0,0,1,.313.73,4.947,4.947,0,0,1,0,1.251.353.353,0,0,0,.209.521m-.365,2.868a5.084,5.084,0,0,1,.313.73l-.886.261a3.244,3.244,0,0,0,.574-.991m-6.413-1.3v-.365c.1-2.4,1.981-4.275,3.963-5.944A3.838,3.838,0,0,0,9.385,1.157.489.489,0,0,1,9.646.688.313.313,0,0,1,9.854.636a.741.741,0,0,1,.313.1,5.691,5.691,0,0,1,1.877,3.233c0,.052.052.156.052.209l.1.782.521-.626a.72.72,0,0,1,.209-.156.49.49,0,0,1,.469.052,8.663,8.663,0,0,1,1.408,1.356A6.275,6.275,0,0,1,15.9,7.362a7.484,7.484,0,0,1,.574,2.346,9.311,9.311,0,0,1,.052,1.095v.261a2.538,2.538,0,0,0-.626.052L12.618,12a3.207,3.207,0,0,0,.626-1.825V9.656a3.983,3.983,0,0,0-.261-1.095,2.8,2.8,0,0,0-.521-.834,7.079,7.079,0,0,0-.626-.626.321.321,0,0,0-.365-.052c-.052,0-.1.052-.156.1v-.1a2.761,2.761,0,0,0-.886-1.564.394.394,0,0,0-.417-.052A.349.349,0,0,0,9.8,5.8,1.686,1.686,0,0,1,9.229,7C8.29,7.779,7.4,8.666,7.4,9.761v.365a3.025,3.025,0,0,0,1.825,2.763L5.005,14.036a6.224,6.224,0,0,1-.886-3.181.394.394,0,0,1-.052-.417m-1.3,2.242a1.447,1.447,0,0,1,.678-.782,6.642,6.642,0,0,0,.782,2.294l-1.564.417a3.561,3.561,0,0,1,.1-1.929M1.512,18.52a2.318,2.318,0,0,1-.626-.991,2.41,2.41,0,0,1-.1-1.2c.052-.261.156-.469.313-.521h.1c.365,0,.834.469,1.095,1.2a2.41,2.41,0,0,1,.1,1.2,2.542,2.542,0,0,1-.156.365l-.1.052v.052a.182.182,0,0,1-.1.052c-.1.052-.313-.052-.521-.209m17.415-.991a2.318,2.318,0,0,1-.626.991.716.716,0,0,1-.574.209c-.156-.052-.261-.261-.313-.521a2.454,2.454,0,0,1,.1-1.2c.261-.834.886-1.3,1.2-1.2.156.052.261.261.313.521a1.937,1.937,0,0,1-.1,1.2" transform="translate(0 0)" fill="#7c7c7c"/>
    <rect id="Rectangle_27" data-name="Rectangle 27" width="1.408" height="0.73" transform="matrix(0.982, -0.19, 0.19, 0.982, 4.74, 16.093)" fill="#7c7c7c"/>
    <rect id="Rectangle_28" data-name="Rectangle 28" width="1.408" height="0.73" transform="translate(10.578 14.265) rotate(-10.931)" fill="#7c7c7c"/>
  </g>
</svg>
