<svg xmlns="http://www.w3.org/2000/svg" width="32.198" height="32.237" viewBox="0 0 32.198 32.237">
  <path id="Union_5" data-name="Union 5" d="M-744.082-2758.607a2.134,2.134,0,0,1,.217-3.164,2.2,2.2,0,0,0,.879-1.772,4.635,4.635,0,0,0-.555-2.192,7.161,7.161,0,0,0-1.749-2.507,1.111,1.111,0,0,0-.669-.305,6.3,6.3,0,0,1-5.066-3.6,6.686,6.686,0,0,1-.622-2.249c-.017-.14-.043-.279-.072-.461-.208.254-.383.488-.576.7a6.333,6.333,0,0,1-4.222,2.131.713.713,0,0,0-.374.167,7.135,7.135,0,0,0-2.028,2.961,3.849,3.849,0,0,0-.414,1.73,4.876,4.876,0,0,0,.276,1.205,1.37,1.37,0,0,0,.494.578,2.1,2.1,0,0,1,.834,2.307c-.05.176-.113.347-.178.519a.543.543,0,0,1-.811.374q-1.762-.636-3.52-1.28l-3.949-1.435c-.614-.223-.681-.388-.478-1a2.131,2.131,0,0,1,1.781-1.588.883.883,0,0,1,.363-.014,1.487,1.487,0,0,0,1.417-.455,3.756,3.756,0,0,0,.9-1.129,7.606,7.606,0,0,0,.738-4.207,1.189,1.189,0,0,0-.323-.723,6.37,6.37,0,0,1-.867-7.692c.946-1.578,1.93-3.131,2.9-4.695a.534.534,0,0,1,.748-.264q4.308,1.565,8.612,3.135c.4.146.5.333.433.751q-.14.92-.27,1.839a2.274,2.274,0,0,0,0,.3l2.269-.824q2.29-.834,4.578-1.667c.446-.162.622-.1.867.292.926,1.493,1.858,2.984,2.774,4.484a6.419,6.419,0,0,1-.881,7.969.725.725,0,0,0-.179.365,7.138,7.138,0,0,0,.349,3.571c.091.258.183.517.286.77a2.828,2.828,0,0,0,1.5,1.566,1.561,1.561,0,0,0,.728.121,2.1,2.1,0,0,1,2.2,1.349c.068.167.139.332.21.5v.365a3.339,3.339,0,0,1-.6.377c-1.776.659-3.56,1.3-5.34,1.95-.75.274-1.493.563-2.24.846Zm5.971-4.282c-.946.337-1.887.684-2.831,1.028-.667.242-1.337.477-2,.73a.951.951,0,0,0-.589,1.318l6.784-2.469a1,1,0,0,0-.939-.685A1.277,1.277,0,0,0-738.112-2762.889Zm-5.968-5.624a.562.562,0,0,0,.055.083,9.2,9.2,0,0,1,1.862,3.393,4.084,4.084,0,0,1,.16,2.043c-.024.133-.045.268-.073.436l2.445-.891a3.692,3.692,0,0,1-1.42-1.661,14.989,14.989,0,0,1-.7-2.167,18.071,18.071,0,0,1-.242-2Zm-21.479,2.738,6.793,2.474a1,1,0,0,0-.627-1.337c-.759-.287-1.526-.555-2.288-.833-.848-.309-1.694-.625-2.545-.926a1.208,1.208,0,0,0-.4-.071A.954.954,0,0,0-765.558-2765.776Zm5.18-6.9a9.346,9.346,0,0,1-.85,3.99,3.812,3.812,0,0,1-1.019,1.39c-.127.112-.26.216-.422.352l2.425.881c-.014-.1-.018-.163-.031-.219a3.766,3.766,0,0,1,.03-1.959,9.246,9.246,0,0,1,1.884-3.619c.052-.059.1-.123.122-.156-.714-.262-1.42-.521-2.13-.78A.869.869,0,0,0-760.379-2772.672Zm19.477-5.274q-4.748,1.729-9.5,3.454c-.187.067-.183.161-.163.319a5.42,5.42,0,0,0,4.416,4.571,5.379,5.379,0,0,0,5.775-2.931,5.359,5.359,0,0,0-.368-5.455A1.573,1.573,0,0,0-740.9-2777.946Zm-20.574,2.71a5.409,5.409,0,0,0,5.964,1.975,5.362,5.362,0,0,0,3.759-4.664l-9.8-3.569A5.412,5.412,0,0,0-761.476-2775.237Zm17.959-6.744q-3.347,1.221-6.7,2.432a.384.384,0,0,0-.282.371,20.488,20.488,0,0,1-.332,2.1,4.816,4.816,0,0,0,.077,1.6l9.437-3.435c-.637-1.03-1.251-2.011-1.851-3-.057-.094-.113-.124-.174-.124A.575.575,0,0,0-743.517-2781.98Zm-15.6-3.451c-.633.992-1.247,2-1.886,3.029l9.436,3.433c.182-1.251.356-2.453.532-3.677-.114-.044-.214-.086-.318-.124l-3.117-1.135c-1.44-.524-2.878-1.049-4.322-1.564a.411.411,0,0,0-.132-.019C-759.012-2785.489-759.1-2785.47-759.121-2785.432Zm12.519,1.061a.507.507,0,0,1,.2-.729c.583-.348,1.169-.69,1.763-1.018.373-.206.787.025.8.533a1.2,1.2,0,0,1-.286.359c-.576.358-1.168.691-1.761,1.021a.6.6,0,0,1-.29.08A.494.494,0,0,1-746.6-2784.371Zm-2.018-2.237c.343-.643.714-1.271,1.093-1.893a.493.493,0,0,1,.674-.139.483.483,0,0,1,.2.656q-.525.957-1.1,1.89c-.074.12-.25.176-.31.214C-748.535-2785.88-748.8-2786.266-748.62-2786.607Zm-2.067-.124a.507.507,0,0,1-.5-.54c-.013-.346,0-.691,0-1.037h0c0-.326-.009-.652,0-.977a.52.52,0,0,1,.518-.56.513.513,0,0,1,.519.558c.011.671.012,1.342,0,2.013a.5.5,0,0,1-.515.542Z" transform="translate(767.238 2790.344)" fill="#fff" stroke="rgba(0,0,0,0)" stroke-miterlimit="10" stroke-width="1"/>
</svg>
