<svg id="Group_237" data-name="Group 237" xmlns="http://www.w3.org/2000/svg" xmlns:xlink="http://www.w3.org/1999/xlink" width="32.474" height="31.544" viewBox="0 0 32.474 31.544">
  <defs>
    <clipPath id="clip-path">
      <rect id="Rectangle_153" data-name="Rectangle 153" width="32.474" height="31.544" fill="#fff"/>
    </clipPath>
  </defs>
  <g id="Group_236" data-name="Group 236" transform="translate(0 0)" clip-path="url(#clip-path)">
    <path id="Path_398" data-name="Path 398" d="M16.6,39.378h0a.076.076,0,0,1,.078-.078c0,.078,0,.078-.078.078" transform="translate(-3.734 -8.841)" fill="#fff"/>
    <path id="Path_399" data-name="Path 399" d="M28.71,19.01c-.078,0-.233.078-.31.078l.078-.388Z" transform="translate(-6.389 -4.207)" fill="#fff"/>
    <path id="Path_400" data-name="Path 400" d="M29.288,17.308l-.388-.465.155-.543Z" transform="translate(-6.501 -3.667)" fill="#fff"/>
    <path id="Path_401" data-name="Path 401" d="M26.894,7.229C24.8,4.9,22.631,3.741,20.461,3.9c-2.48.155-5.038,2.015-7.363,5.348h-.31A9.647,9.647,0,0,0,6.51,13.119H5.735C.775,13.429,0,21.567,0,21.567V32.418H32.474V14.592ZM20.539,4.981c1.86-.078,3.72.853,5.5,2.945l4.728,6.433c-.543,0-1.24.078-2.093.155L27.9,11.956l-1.085,2.868c-.853.155-1.783.31-2.868.543L22.631,8.624l-1.085,4.34a9.6,9.6,0,0,0-7.13-3.72c1.55-2.015,3.72-4.108,6.123-4.263M21.779,21.8v2.635a16.5,16.5,0,0,0-2.093.62A25.024,25.024,0,0,0,9.921,21.8a58.709,58.709,0,0,1,10.618-4.5l-1.163,4.5Zm-1.085-1.085.93-3.8.31-1.163.078-.388.388-1.4.155-.543.155.93.233,1.085.155.62.078.465.775,4.108H20.694Zm2.17,1.085h2.4l-.233-1.4h2.015v3.1a33.658,33.658,0,0,0-4.185.7Zm1.4-5.425c.775-.155,1.473-.31,2.17-.388l-1.473,3.8Zm1.705,3.178,1.473-3.72.465-1.163.31,1.085,1.163,3.8ZM12.943,10.406a8.308,8.308,0,0,1,7.905,3.41l.388.465-.465,1.783a51.7,51.7,0,0,0-6.665,2.4c-.775-1.163-3.255-4.34-6.433-5.115a8.806,8.806,0,0,1,5.27-2.945m-7.13,3.875c3.333-.388,6.278,3.255,7.285,4.65-2.635,1.24-4.573,2.325-5.115,2.635a29.254,29.254,0,0,0-3.72-.155c-1.085,0-2.17.078-3.178.155.31-1.783,1.4-6.9,4.728-7.285m6.51,15.888c-.078.155-.155.233-.233.388s-.078.233-.155.31-.078.155-.078.31c0,.078-.078.155-.078.233H1.085V22.652c1.085-.078,2.17-.155,3.255-.155,5.425,0,10.541,1.163,14.028,3.1l-.465.233c-.465.233-1.008.465-1.4.7-.233.155-.388.233-.62.388-.155.078-.31.233-.465.31-.078.078-.155.078-.233.155-.155.078-.31.233-.465.31a2.355,2.355,0,0,1-.543.388c-.155.155-.31.233-.388.388l-.31.31a9.818,9.818,0,0,0-.853,1.008c-.155.155-.233.31-.31.388m18.989,1.24H12.866a.076.076,0,0,1,.078-.078c0-.078.078-.155.078-.233.078-.078.078-.233.155-.388s.155-.233.233-.388c.078-.078.155-.233.233-.31.155-.155.233-.31.388-.465.078-.155.233-.233.388-.388l.078-.078c.155-.078.233-.233.388-.31a4.3,4.3,0,0,1,.62-.465,1.694,1.694,0,0,1,.388-.233c.155-.155.388-.233.543-.388a1.558,1.558,0,0,1,.62-.31c.233-.078.388-.233.62-.31a4.6,4.6,0,0,0,.62-.31,2.753,2.753,0,0,0,.7-.31,2.753,2.753,0,0,0,.7-.31,33.848,33.848,0,0,1,11.238-1.783h.31Zm0-8.06H31c-.93,0-1.938,0-2.868.078V20.4h2.325L28.987,15.6a15.328,15.328,0,0,1,2.325-.155Z" transform="translate(0 -0.873)" fill="#fff"/>
    <path id="Path_402" data-name="Path 402" d="M13.611,4.263H.9V3.72A2.58,2.58,0,0,1,3.458,1.163,2.476,2.476,0,0,1,4.543,1.4,3.833,3.833,0,0,1,7.488,0a3.752,3.752,0,0,1,2.79,1.24,2.146,2.146,0,0,1,.7-.078A2.58,2.58,0,0,1,13.533,3.72ZM2.14,3.178H12.448a1.531,1.531,0,0,0-1.4-.93,2.263,2.263,0,0,0-.7.155l-.388.233-.233-.388a2.682,2.682,0,0,0-2.17-1.163A2.726,2.726,0,0,0,5.24,2.4l-.31.543-.465-.388a1.489,1.489,0,0,0-.93-.31,1.531,1.531,0,0,0-1.4.93" transform="translate(-0.202 0)" fill="#fff"/>
    <path id="Path_403" data-name="Path 403" d="M38.493,7.385a2.093,2.093,0,1,1,2.093-2.093,2.084,2.084,0,0,1-2.093,2.093m0-3.1A1.008,1.008,0,1,0,39.5,5.293a1.026,1.026,0,0,0-1.008-1.008" transform="translate(-8.188 -0.72)" fill="#fff"/>
  </g>
</svg>
