<svg id="Group_234" data-name="Group 234" xmlns="http://www.w3.org/2000/svg" xmlns:xlink="http://www.w3.org/1999/xlink" width="35.484" height="28.736" viewBox="0 0 35.484 28.736">
  <defs>
    <clipPath id="clip-path">
      <rect id="Rectangle_152" data-name="Rectangle 152" width="35.484" height="28.736" fill="#fff"/>
    </clipPath>
  </defs>
  <g id="Group_233" data-name="Group 233" transform="translate(0 0)" clip-path="url(#clip-path)">
    <path id="Path_395" data-name="Path 395" d="M3.367,21.271H3.64a.908.908,0,0,0,.455-.364.58.58,0,0,0,0-.546.908.908,0,0,0-.364-.455C2.821,19.451,2,19,1.365,18.723V14.537a12.012,12.012,0,0,0,3.913-1.729,7.521,7.521,0,0,0,1.456-1.82C7.643,9.715,8.644,8.259,10.1,7.8a.793.793,0,0,0,.546-.728V3.436a4.28,4.28,0,0,1,2.73,3,.751.751,0,0,0,.91.455,26.955,26.955,0,0,1,8.826-1,1.293,1.293,0,0,0,.546-.182.5.5,0,0,0,.273-.455,1.293,1.293,0,0,0-.182-.546.5.5,0,0,0-.455-.273,29.509,29.509,0,0,0-8.735.91,5.346,5.346,0,0,0-2.73-2.912A3.619,3.619,0,0,0,9.918,1.98a.783.783,0,0,0-.728.728v4a8.574,8.574,0,0,0-3.64,3.549,13.383,13.383,0,0,1-1.183,1.547c-1.183,1-3.731,1.456-3.822,1.547A.692.692,0,0,0,0,14.082v5.186a.684.684,0,0,0,.455.637l2.73,1.365h.182" transform="translate(0 -0.178)" fill="#fff"/>
    <path id="Path_396" data-name="Path 396" d="M7.7,14.737a1.349,1.349,0,0,0,1.274,1.456,1.349,1.349,0,0,0,1.274-1.456,1.349,1.349,0,0,0-1.274-1.456A1.349,1.349,0,0,0,7.7,14.737" transform="translate(-0.694 -1.197)" fill="#fff"/>
    <path id="Path_397" data-name="Path 397" d="M35.477,24.1a1.288,1.288,0,0,0-1.274-.819h-.91a16.23,16.23,0,0,0,.546-10.555,18.23,18.23,0,0,0-.91-2.366,5.246,5.246,0,0,0,1.547-3,3.744,3.744,0,0,0-.728-2.912c0-.091-.091-.091-.091-.182a7.371,7.371,0,0,0-1.729-4,.721.721,0,0,0-1-.091.721.721,0,0,0-.091,1,7.391,7.391,0,0,1,1.092,2,.334.334,0,0,1-.273-.091,2.068,2.068,0,0,0-2.639,1.365,2.143,2.143,0,0,0,.273,1.82,2.281,2.281,0,0,0-.637-.364,12.246,12.246,0,0,0-3.367-1.183,1.154,1.154,0,0,0-.546.091.5.5,0,0,0-.273.455,1.154,1.154,0,0,0,.091.546.5.5,0,0,0,.455.273,9.159,9.159,0,0,1,2.912,1c3.913,2.184,6.551,8.735,3.913,15.65a.406.406,0,0,0,0,.455H2.265A1.541,1.541,0,0,0,.991,24a1.388,1.388,0,0,0,.273,1.456L2.9,27.1a5.646,5.646,0,0,0,4,1.638H29.471a5.715,5.715,0,0,0,4-1.638l1.638-1.638a1.128,1.128,0,0,0,.364-1.365M32.11,4.987a.944.944,0,0,1-.546.728,1.058,1.058,0,0,1-.91-.182.708.708,0,0,1-.182-.728c.091-.273.364-.273.637-.273h.273a6.269,6.269,0,0,1,.728.273ZM31.928,7.08a1.811,1.811,0,0,0,1.092-.728v.637A3.145,3.145,0,0,1,32.11,8.9a18.2,18.2,0,0,0-1.729-2,1.566,1.566,0,0,0,1.547.182m2.366,17.561-1.638,1.638a4.547,4.547,0,0,1-3.185,1.274H6.905a4.712,4.712,0,0,1-3.185-1.274L2.083,24.641V24.55l.091-.091H34.112a6138.65,6138.65,0,0,1,.182.182" transform="translate(-0.081 0)" fill="#fff"/>
  </g>
</svg>
