<svg id="Group_214" data-name="Group 214" xmlns="http://www.w3.org/2000/svg" xmlns:xlink="http://www.w3.org/1999/xlink" width="33.282" height="33.243" viewBox="0 0 33.282 33.243">
  <defs>
    <clipPath id="clip-path">
      <rect id="Rectangle_149" data-name="Rectangle 149" width="33.282" height="33.243" fill="#fff"/>
    </clipPath>
  </defs>
  <g id="Group_213" data-name="Group 213" transform="translate(0 0)" clip-path="url(#clip-path)">
    <path id="Path_355" data-name="Path 355" d="M31.616,7.277a1.886,1.886,0,0,0-1.86,1.86,4.465,4.465,0,0,1-2.867,4.184l-.232.077.077-.232a2.475,2.475,0,0,0,.232-1.085v-.387a2.635,2.635,0,1,0-5.269,0v.387a2.018,2.018,0,0,0,.31,1.162l.077.232-.232-.077A4.487,4.487,0,0,1,18.6,9.06a1.86,1.86,0,1,0-3.719,0v.775a4.611,4.611,0,0,1-3.255,3.642l-.232.077.077-.232a3.247,3.247,0,0,0,.31-1.162v-.387a2.635,2.635,0,1,0-5.269,0v.387a2.735,2.735,0,0,0,.232,1.085l.077.232L6.587,13.4A4.544,4.544,0,0,1,3.719,9.215a1.886,1.886,0,0,0-1.86-1.86A1.886,1.886,0,0,0,0,9.215,7.88,7.88,0,0,0,1.627,14.1a8.106,8.106,0,0,0,3.642,2.79h.077v5.192a.58.58,0,0,0,.465.542h.077V27.27a5.918,5.918,0,0,1-1.782,4.262.562.562,0,0,0,0,.775l1.86,1.86a.518.518,0,0,0,.775,0,9.341,9.341,0,0,0,1.55-2.015l.155-.31v2.48a.53.53,0,0,0,.542.542h2.635a.53.53,0,0,0,.542-.542v-4.8a.542.542,0,0,0-1.085,0V33.7H9.531V24.48a.542.542,0,1,0-1.085,0v2.712a8.189,8.189,0,0,1-2.092,5.579l-.077.077L5.192,31.764l.077-.077A7.03,7.03,0,0,0,6.9,27.115V22.388H11v4.029a.542.542,0,1,0,1.085,0V22.388h.077a.583.583,0,0,0,.387-.542V16.809h.077a7.909,7.909,0,0,0,3.8-2.557l.077-.077.077.077a8.491,8.491,0,0,0,3.8,2.557h.077v5.037a.583.583,0,0,0,.387.542h.077V34.166a.53.53,0,0,0,.542.542H24.1a.53.53,0,0,0,.542-.542v-2.48L24.8,32a9.341,9.341,0,0,0,1.55,2.015.518.518,0,0,0,.775,0l1.86-1.86a.562.562,0,0,0,0-.775A5.918,5.918,0,0,1,27.2,27.115V22.465h.077a.665.665,0,0,0,.465-.542v-3.1a.542.542,0,1,0-1.085,0V21.38H21.464V16.5a.583.583,0,0,0-.387-.542,7.145,7.145,0,0,1-5.424-6.974.775.775,0,0,1,1.55,0,5.688,5.688,0,0,0,5.657,5.657h2.015a5.688,5.688,0,0,0,5.657-5.657.775.775,0,0,1,1.55,0A7.165,7.165,0,0,1,27.121,15.8a.583.583,0,0,0-.387.542v.31a.665.665,0,0,0,.465.542.479.479,0,0,0,.62-.387v-.077H27.9a8.322,8.322,0,0,0,3.719-2.79A7.88,7.88,0,0,0,33.243,9.06a1.546,1.546,0,0,0-1.627-1.782M24.332,10.3A1.471,1.471,0,0,1,25.8,11.772v.387a1.524,1.524,0,0,1-1.472,1.472,1.54,1.54,0,0,1-1.55-1.472v-.387a1.6,1.6,0,0,1,1.55-1.472M11.7,16.576v4.882H6.509V16.421a.583.583,0,0,0-.387-.542A7.165,7.165,0,0,1,1.162,9.06a.777.777,0,0,1,.775-.775.732.732,0,0,1,.775.775,5.688,5.688,0,0,0,5.657,5.657h2.015A5.683,5.683,0,0,0,14.026,13.4,5.075,5.075,0,0,0,15.188,12l.077-.155.077.155a6.869,6.869,0,0,0,.62,1.317V13.4l-.077.077a7.6,7.6,0,0,1-3.874,2.557.918.918,0,0,0-.31.542M9.221,10.3a1.471,1.471,0,0,1,1.472,1.472v.387a1.471,1.471,0,0,1-1.472,1.472,1.54,1.54,0,0,1-1.55-1.472v-.387A1.6,1.6,0,0,1,9.221,10.3m15.11,13.793a.53.53,0,0,0-.542.542v9.144h-1.55V22.62h4.107v4.727a7.03,7.03,0,0,0,1.627,4.572l.077.077-1.085,1.085L26.889,33A8.735,8.735,0,0,1,24.8,27.425V24.713c.155-.387-.155-.62-.465-.62" transform="translate(0 -1.621)" fill="#fff"/>
    <path id="Path_356" data-name="Path 356" d="M35.116,2.015a.611.611,0,0,0,.62-.62V.62a.611.611,0,0,0-.62-.62.667.667,0,0,0-.62.62v.775c-.077.387.232.62.62.62" transform="translate(-7.763 0)" fill="#fff"/>
    <path id="Path_357" data-name="Path 357" d="M35.116,7.115a.611.611,0,0,0,.62-.62V5.72a.611.611,0,0,0-.62-.62.667.667,0,0,0-.62.62v.775c-.077.31.232.62.62.62" transform="translate(-7.763 -1.148)" fill="#fff"/>
    <path id="Path_358" data-name="Path 358" d="M37.116,4.24h.775a.62.62,0,0,0,0-1.24h-.775a.611.611,0,0,0-.62.62c-.077.387.232.62.62.62" transform="translate(-8.213 -0.675)" fill="#fff"/>
    <path id="Path_359" data-name="Path 359" d="M32.02,4.24h.775a.62.62,0,0,0,0-1.24H32.02a.62.62,0,0,0,0,1.24" transform="translate(-7.068 -0.675)" fill="#fff"/>
  </g>
</svg>
