<svg id="Group_28" data-name="Group 28" xmlns="http://www.w3.org/2000/svg" xmlns:xlink="http://www.w3.org/1999/xlink" width="31.295" height="28.908" viewBox="0 0 31.295 28.908">
  <defs>
    <clipPath id="clip-path">
      <rect id="Rectangle_33" data-name="Rectangle 33" width="31.295" height="28.908" fill="#fff"/>
    </clipPath>
  </defs>
  <g id="Group_27" data-name="Group 27" transform="translate(0 0)" clip-path="url(#clip-path)">
    <path id="Path_70" data-name="Path 70" d="M21.579,7.341l.3.3.377-.3a27.3,27.3,0,0,0,3.62-3.393,2.468,2.468,0,0,0,.3-1.81A2.5,2.5,0,0,0,24.294.1a2.631,2.631,0,0,0-2.262.452A2.409,2.409,0,0,0,19.769.1a2.608,2.608,0,0,0-1.885,2.036,2.718,2.718,0,0,0,.3,1.81,28.268,28.268,0,0,0,3.393,3.393M18.94,2.364a1.443,1.443,0,0,1,1.131-1.207.956.956,0,0,1,.452-.075,1.78,1.78,0,0,1,1.207.528l.377.452.377-.452a1.563,1.563,0,0,1,1.584-.528A1.668,1.668,0,0,1,25.2,2.289a2.236,2.236,0,0,1-.151,1.056A22.4,22.4,0,0,1,22.032,6.21a20.485,20.485,0,0,1-2.866-2.866,1.276,1.276,0,0,1-.226-.98" transform="translate(-4.386 0)" fill="#fff"/>
    <path id="Path_71" data-name="Path 71" d="M29.108,25a15.774,15.774,0,0,0,1.357-8.144A7.253,7.253,0,0,0,28.2,12.176a.483.483,0,1,0-.6.754A6.1,6.1,0,0,1,29.485,17a14.327,14.327,0,0,1-1.659,8.446,4.2,4.2,0,0,1-1.659-2.111.513.513,0,0,0-.6-.3c-.075,0-.075.075-.151.075l.075-.226c-.075,0-.226-.075-.3-.075a5.075,5.075,0,0,0,2.262-3.243c.151-.075.3-.226.452-.3a1.817,1.817,0,0,0,.528-1.357A2.168,2.168,0,0,0,27.9,16.55a3.541,3.541,0,0,0-.679-.452,2.2,2.2,0,0,0-1.207-.075v-.452a.415.415,0,0,0-.226-.377.956.956,0,0,0-.452-.075,3.777,3.777,0,0,1-4.072-1.282.547.547,0,0,0-.754,0,3.413,3.413,0,0,1-2.036.528,2.443,2.443,0,0,1,.377-1.81,3.543,3.543,0,0,1,2.79-.98,14.9,14.9,0,0,1,4.525.528.477.477,0,0,0,.3-.9,13.084,13.084,0,0,0-4.826-.6A4.191,4.191,0,0,0,18.1,11.95a3.583,3.583,0,0,0-.452,3.016.478.478,0,0,0,.452.377,5.475,5.475,0,0,0,2.715-.528,4.616,4.616,0,0,0,3.016,1.433,4.993,4.993,0,0,0,1.131-.075v.679a.509.509,0,0,0,.3.452.662.662,0,0,0,.528-.075A.934.934,0,0,1,26.846,17a1.041,1.041,0,0,1,.3.226,1.123,1.123,0,0,1,.3.679.819.819,0,0,1-.3.679,1.648,1.648,0,0,1-.377.226.5.5,0,0,0-.3.377,4.022,4.022,0,0,1-3.092,3.318h-.528a3.671,3.671,0,0,0-.9.075,3.916,3.916,0,0,1-3.318-3.921V16.55a.452.452,0,0,0-.9,0v2.111a4.982,4.982,0,0,0,2.564,4.3c-.075,0-.151.075-.226.075h.075a7.808,7.808,0,0,0-4.675,4.826,8.022,8.022,0,0,0-5.731-5.128,5.311,5.311,0,0,0,3.544-4.977V15.042a.452.452,0,1,0-.9,0v2.715a4.321,4.321,0,0,1-8.6.6.5.5,0,0,0-.3-.377,1.648,1.648,0,0,1-.377-.226,1.093,1.093,0,0,1,0-1.508.641.641,0,0,1,.377-.226,1.053,1.053,0,0,1,1.131.226.576.576,0,0,0,.377.151,2.093,2.093,0,0,0,2.111-2.036H11.01a4.7,4.7,0,0,0,4.675-4.675.487.487,0,0,0-.452-.452H7.541A4.7,4.7,0,0,0,2.866,13.91a.487.487,0,0,0,.452.452.487.487,0,0,0,.452-.452,3.7,3.7,0,0,1,3.7-3.7h7.164a3.742,3.742,0,0,1-3.7,3.243H6.561a.487.487,0,0,0-.452.452v.377a1.219,1.219,0,0,1-1.056,1.207,1.851,1.851,0,0,0-1.961-.3,1.1,1.1,0,0,0-.679.452,2,2,0,0,0,0,2.866,1.353,1.353,0,0,0,.528.377,5.277,5.277,0,0,0,3.393,3.921A8.074,8.074,0,0,0,0,30.651v.528H31.295v-.528A11.866,11.866,0,0,0,29.108,25M9.275,23.714a1.6,1.6,0,0,1-1.433.9,1.518,1.518,0,0,1-1.433-.9,9.239,9.239,0,0,1,1.433-.151,4.641,4.641,0,0,1,1.433.151M.83,30.048a7,7,0,0,1,4.525-6.033,2.7,2.7,0,0,0,4.977,0,7.088,7.088,0,0,1,4.525,6.033ZM23,23.563c.452,0,.83.075,1.207.075a1.574,1.574,0,0,1-1.508.98,1.69,1.69,0,0,1-1.433-.9A14.724,14.724,0,0,1,23,23.563m-7.013,6.485a7.106,7.106,0,0,1,4.3-5.957,2.645,2.645,0,0,0,4.977-.377,4.61,4.61,0,0,0,2.489,2.79H27.9a.415.415,0,0,0,.377-.226c.075-.075.075-.151.151-.226a9.51,9.51,0,0,1,1.433,3.921H15.987Z" transform="translate(0 -2.271)" fill="#fff"/>
  </g>
</svg>
