<svg xmlns="http://www.w3.org/2000/svg" width="33.273" height="33.452" viewBox="0 0 33.273 33.452">
  <g id="Group_231" data-name="Group 231" transform="translate(-3 0.868)">
    <g id="Group_232" data-name="Group 232" transform="translate(3 0)">
      <path id="Path_387" data-name="Path 387" d="M16.3,33.452a2.9,2.9,0,0,1-2.341-1.208,2.231,2.231,0,0,0-1.208-.906l-.378-.076a2.279,2.279,0,0,0-1.586.151,2.826,2.826,0,0,1-4.229-2.039c0-.227-.075-.453-.075-.68a2.365,2.365,0,0,0-2.039-2.341,2.8,2.8,0,0,1-2.794-2.87,3.18,3.18,0,0,1,.151-.831,3.6,3.6,0,0,0,.151-1.963l-.076-.227A3.549,3.549,0,0,0,.746,18.576a4.63,4.63,0,0,1-.529-.755,2.486,2.486,0,0,1,.076-2.19,2.654,2.654,0,0,1,.529-.68,3.68,3.68,0,0,0,1.056-1.888l.076-.227A3.642,3.642,0,0,0,1.8,10.874a2.692,2.692,0,0,1-.151-.831,2.868,2.868,0,0,1,2.869-2.87A2.432,2.432,0,0,0,6.561,4.833a2.091,2.091,0,0,1,.076-.68,2.861,2.861,0,0,1,1.587-2.19,3.115,3.115,0,0,1,2.718.076,2.236,2.236,0,0,0,1.586.151l.378-.076a2.231,2.231,0,0,0,1.208-.906A2.9,2.9,0,0,1,16.453,0a2.691,2.691,0,0,1,2.342,1.284A2.226,2.226,0,0,0,20,2.19l.3.076a2.446,2.446,0,0,0,1.661-.151,3.151,3.151,0,0,1,2.19-.3,2.729,2.729,0,0,1,1.888,1.737,1.98,1.98,0,0,1,.151,1.133,1.861,1.861,0,0,0,.6,1.284l.529.529a2.773,2.773,0,0,0,1.51.68,2.868,2.868,0,0,1,2.87,2.87,3.025,3.025,0,0,1-.6,1.737,1.458,1.458,0,0,0-.3,1.208l.076.151A2.135,2.135,0,0,0,31.933,14.5c.076,0,.076.076.151.076a2.428,2.428,0,0,1,1.133,1.586,2.621,2.621,0,0,1-.453,2.114,3.022,3.022,0,0,1-.906.831,1.891,1.891,0,0,0-.982,1.284l-.076.151a1.458,1.458,0,0,0,.3,1.208,2.851,2.851,0,0,1-2.265,4.606,1.9,1.9,0,0,0-1.51.68,3.489,3.489,0,0,1-.529.529,1.861,1.861,0,0,0-.6,1.284,5.829,5.829,0,0,1-.151,1.133,2.884,2.884,0,0,1-1.888,1.737,2.79,2.79,0,0,1-2.19-.3,2.446,2.446,0,0,0-1.661-.151l-.3.076a2.226,2.226,0,0,0-1.207.906A3.188,3.188,0,0,1,16.3,33.452m-4.53-3.4a3.79,3.79,0,0,1,.905.151l.378.076a3.16,3.16,0,0,1,1.812,1.359,1.86,1.86,0,0,0,1.51.755,1.971,1.971,0,0,0,1.51-.755A3.16,3.16,0,0,1,19.7,30.281l.3-.076a3.262,3.262,0,0,1,2.416.227,1.7,1.7,0,0,0,1.359.151,1.869,1.869,0,0,0,1.208-1.057,1.242,1.242,0,0,0,.076-.755,2.982,2.982,0,0,1,.906-2.114,3.284,3.284,0,0,0,.453-.529,3.139,3.139,0,0,1,2.265-.982A1.838,1.838,0,0,0,30.5,23.334a1.8,1.8,0,0,0-.378-1.057,2.561,2.561,0,0,1-.529-2.039l.076-.151a3.22,3.22,0,0,1,1.51-2.039,1.589,1.589,0,0,0,.529-.529,1.544,1.544,0,0,0,.227-1.284,1.5,1.5,0,0,0-.6-.906l-.076-.076a3.087,3.087,0,0,1-1.586-2.039l-.076-.151a2.309,2.309,0,0,1,.529-2.039A1.8,1.8,0,0,0,30.5,9.968a1.838,1.838,0,0,0-1.812-1.812,3.274,3.274,0,0,1-2.265-.982,3.284,3.284,0,0,1-.453-.529,2.982,2.982,0,0,1-.906-2.114,2.833,2.833,0,0,0-.076-.755,1.846,1.846,0,0,0-2.567-.906A2.97,2.97,0,0,1,20,3.1l-.3-.076a2.943,2.943,0,0,1-1.812-1.359,1.677,1.677,0,0,0-1.51-.755,1.972,1.972,0,0,0-1.51.755,3.523,3.523,0,0,1-1.812,1.359l-.378.076a3.107,3.107,0,0,1-2.341-.227A1.993,1.993,0,0,0,8.6,2.794a1.625,1.625,0,0,0-.907,1.359,1.9,1.9,0,0,1-.075.6A3.413,3.413,0,0,1,4.674,8.08H4.522A1.837,1.837,0,0,0,2.71,9.892a1.285,1.285,0,0,0,.076.529,4.759,4.759,0,0,1,.151,2.492l-.076.227A4.518,4.518,0,0,1,1.5,15.556a1.433,1.433,0,0,0-.3.453,1.364,1.364,0,0,0-.076,1.208,1.116,1.116,0,0,0,.378.453,5.152,5.152,0,0,1,1.359,2.416l.076.227a4.759,4.759,0,0,1-.151,2.492,1.12,1.12,0,0,0-.076.529,1.837,1.837,0,0,0,1.812,1.812h.152a3.348,3.348,0,0,1,2.945,3.323V29A1.6,1.6,0,0,0,8.6,30.356a1.834,1.834,0,0,0,1.661-.076,9.036,9.036,0,0,1,1.51-.227" transform="translate(0 -0.868)" fill="#fff"/>
      <path id="Path_388" data-name="Path 388" d="M6.645,17.376a11.231,11.231,0,0,1,22.352,0h1.057a12.283,12.283,0,0,0-24.466,0Z" transform="translate(-1.368 -1.518)" fill="#fff"/>
      <path id="Path_389" data-name="Path 389" d="M29.1,23.4a11.2,11.2,0,0,1-22.352,0H5.688a12.253,12.253,0,0,0,24.466,0Z" transform="translate(-1.393 -5.73)" fill="#fff"/>
      <path id="Path_390" data-name="Path 390" d="M15.082,27.272H13.421a1.161,1.161,0,0,1-1.133-1.133V17.833A1.161,1.161,0,0,1,13.421,16.7h1.661a1.161,1.161,0,0,1,1.133,1.133v8.306a1.161,1.161,0,0,1-1.133,1.133m-1.661-9.515a.074.074,0,0,0-.076.076v8.306a.074.074,0,0,0,.076.076h1.661a.074.074,0,0,0,.076-.076V17.833a.074.074,0,0,0-.076-.076Z" transform="translate(-3.009 -4.089)" fill="#fff"/>
      <path id="Path_391" data-name="Path 391" d="M28.742,18.151H24.059a.529.529,0,1,1,0-1.057h4.38a1.218,1.218,0,0,0,.227-.68.857.857,0,0,0-.227-.6l-8.08-.076,1.51-3.172a1.044,1.044,0,0,0-.226-1.208l-.6-.6h-.076a.073.073,0,0,0-.075.076l-3.927,6.8a.684.684,0,0,1-.755.227.684.684,0,0,1-.226-.755l3.926-6.8a1.171,1.171,0,0,1,.831-.6,1.189,1.189,0,0,1,.982.3l.6.6a2.068,2.068,0,0,1,.452,2.416l-.83,1.661,6.8.076.15.151a1.971,1.971,0,0,1,.755,1.51,2.437,2.437,0,0,1-.6,1.586l-.151.151Z" transform="translate(-3.906 -2.369)" fill="#fff"/>
      <path id="Path_392" data-name="Path 392" d="M27.4,30.525h-5.89a4.276,4.276,0,0,1-1.359-.227l-3.776-1.284a.526.526,0,0,1,.378-.982l3.776,1.284a4.457,4.457,0,0,0,1.057.151h5.512a1.088,1.088,0,0,0,0-1.51H24.3a.529.529,0,0,1,0-1.057h3.247l.3.227a2.343,2.343,0,0,1,.68,1.661,2.293,2.293,0,0,1-.906,1.586Z" transform="translate(-3.92 -6.587)" fill="#fff"/>
      <path id="Path_393" data-name="Path 393" d="M30.694,27.051h-.906a.529.529,0,1,1,0-1.057h.906c.076,0,.076,0,.076-.076a1.05,1.05,0,0,0-.076-1.435l-.227-.227H26.617a.529.529,0,1,1,0-1.057h4.229l.529.529a2.119,2.119,0,0,1,.151,2.945.974.974,0,0,1-.831.378" transform="translate(-6.388 -5.681)" fill="#fff"/>
      <path id="Path_394" data-name="Path 394" d="M32.007,23.442a.653.653,0,0,1-.453-.227.581.581,0,0,1,.076-.755l.529-.378a.9.9,0,0,0,.378-.68,1.457,1.457,0,0,0-.227-.755l-.227-.227a.537.537,0,1,1,.831-.68l.227.227a1.989,1.989,0,0,1,.453,1.586,2.163,2.163,0,0,1-.831,1.435l-.529.378a.331.331,0,0,1-.227.076" transform="translate(-7.701 -4.79)" fill="#fff"/>
    </g>
  </g>
</svg>
