<svg id="Group_235" data-name="Group 235" xmlns="http://www.w3.org/2000/svg" xmlns:xlink="http://www.w3.org/1999/xlink" width="26.434" height="26.308" viewBox="0 0 26.434 26.308">
  <defs>
    <clipPath id="clip-path">
      <rect id="Rectangle_34" data-name="Rectangle 34" width="26.434" height="26.308" fill="#fff"/>
    </clipPath>
  </defs>
  <g id="Group_29" data-name="Group 29" transform="translate(0 0)" clip-path="url(#clip-path)">
    <path id="Path_72" data-name="Path 72" d="M24.512,12.133h-.42c-.781-2.343-3.544-4.565-5.586-5.526l1.021-3.484a.576.576,0,0,0-.12-.541.613.613,0,0,0-.541-.12L14,4.565a5.29,5.29,0,0,0-.12-1.021A4.506,4.506,0,0,0,9.436,0,4.563,4.563,0,0,0,4.871,4.565a4.289,4.289,0,0,0,.841,2.583,4.451,4.451,0,0,0,.721.781A10.593,10.593,0,0,0,4.451,9.55a7.238,7.238,0,0,0-2.042,3.484c-.781-.24-1.261-.6-1.381-.961-.12-.42.18-1.021.9-1.682a.548.548,0,0,0,0-.721.548.548,0,0,0-.721,0c-.961,1.021-1.381,1.922-1.141,2.7.18.781.961,1.321,2.222,1.742v.36A6.6,6.6,0,0,0,3.369,18.2a10.472,10.472,0,0,0,2.583,2.583v3.784a1.743,1.743,0,0,0,1.742,1.742H9.5a1.743,1.743,0,0,0,1.742-1.742v-.6a13.795,13.795,0,0,0,4.445,0v.6a1.743,1.743,0,0,0,1.742,1.742h1.8a1.743,1.743,0,0,0,1.742-1.742V20.782c.06-.06.12-.06.12-.12a7.3,7.3,0,0,0,2.943-3.243h.661a1.743,1.743,0,0,0,1.742-1.742v-1.8a2.045,2.045,0,0,0-1.922-1.742M5.712,4.565A3.743,3.743,0,0,1,9.436.841a3.67,3.67,0,0,1,3.6,2.883,3.545,3.545,0,0,1,.12.841v.12c-1.021.42-4.985,2.1-6.187,2.7a3.148,3.148,0,0,1-.6-.661,3.98,3.98,0,0,1-.661-2.162M25.233,15.677a.73.73,0,0,1-.721.721h-.961a.457.457,0,0,0-.481.36c-.481,1.442-1.381,2.1-2.7,3.123-.12.06-.24.18-.36.24a.545.545,0,0,0-.18.42v4.084a.73.73,0,0,1-.721.721H17.3a.73.73,0,0,1-.721-.721v-1.2A.545.545,0,0,0,16.4,23c-.12-.06-.18-.12-.3-.12h-.12a12.624,12.624,0,0,1-2.583.3,13.715,13.715,0,0,1-2.643-.3.371.371,0,0,0-.42.12.545.545,0,0,0-.18.42v1.2a.73.73,0,0,1-.721.721h-1.8a.73.73,0,0,1-.721-.721V20.542a.545.545,0,0,0-.18-.42A9.956,9.956,0,0,1,4.21,17.6a5.592,5.592,0,0,1-.9-3.123c0-2.463,1.922-4.625,4.265-5.946a15.638,15.638,0,0,1,2.042-.961c.541-.18,1.021-.42,1.562-.6L13.1,6.127,18.265,3.9l-.841,2.823-.661,2.162a.532.532,0,1,0,1.021.3l.481-1.562A12.7,12.7,0,0,1,21.148,9.67a6.376,6.376,0,0,1,2.1,3.183.51.51,0,0,0,.481.42h.841a.73.73,0,0,1,.721.721v1.682Z" transform="translate(0 0)" fill="#fff"/>
    <path id="Path_73" data-name="Path 73" d="M33.946,19.09a.6.6,0,0,0-.661-.3.493.493,0,0,0,.18.961.221.221,0,0,0,.18-.06c.3,0,.42-.3.3-.6" transform="translate(-13.157 -7.498)" fill="#fff"/>
    <path id="Path_74" data-name="Path 74" d="M22.395,22.525c-.06-.12-.18-.18-.3-.3a1.257,1.257,0,0,0-.36-.24,2.928,2.928,0,0,0-.42-.18,1.114,1.114,0,0,0-.42-.12l.18-1.562a.312.312,0,0,1,.24.12c.06.06.18.06.24.12a.221.221,0,0,0,.18.06c.06,0,.12.06.18.06a.221.221,0,0,0,.18-.06c.06-.06.12-.06.18-.18l.36-.481a5.2,5.2,0,0,0-.6-.42,2.743,2.743,0,0,0-.841-.3l.06-.841h-.481a.425.425,0,0,0-.36.36l-.06.481a2.006,2.006,0,0,0-.9.18,2.48,2.48,0,0,0-.661.42,2.157,2.157,0,0,0-.42.6,1.293,1.293,0,0,0-.12.661,1.5,1.5,0,0,0,.18.781,3.3,3.3,0,0,0,.42.541,1.228,1.228,0,0,0,.541.3c.18.06.42.12.661.18l-.18,1.682c-.12-.06-.24-.06-.36-.12s-.18-.12-.3-.18a.455.455,0,0,0-.24-.12c-.06-.06-.12-.06-.24-.06a.221.221,0,0,0-.18.06c-.06.06-.12.06-.12.12l-.42.6a3.406,3.406,0,0,0,.781.481,4.5,4.5,0,0,0,.961.3l-.06.9h.481a.425.425,0,0,0,.36-.36l.06-.541a1.99,1.99,0,0,0,.9-.24,2.667,2.667,0,0,0,.661-.481,2.48,2.48,0,0,0,.42-.661,1.649,1.649,0,0,0,.12-.781,1.171,1.171,0,0,0-.06-.481c-.06-.12-.18-.18-.24-.3m-2.282-1.081a1.077,1.077,0,0,1-.42-.3.545.545,0,0,1-.18-.42.454.454,0,0,1,.06-.24c0-.06.06-.12.12-.18a.312.312,0,0,1,.24-.12c.12,0,.18-.06.36-.12Zm.541,2.943.12-1.442a.968.968,0,0,1,.42.24.545.545,0,0,1,.18.42.741.741,0,0,1-.721.781" transform="translate(-7.192 -7.268)" fill="#fff"/>
  </g>
</svg>
