<svg id="swinka" xmlns="http://www.w3.org/2000/svg" xmlns:xlink="http://www.w3.org/1999/xlink" width="19.977" height="16.178" viewBox="0 0 19.977 16.178">
  <defs>
    <clipPath id="clip-path">
      <rect id="Rectangle_141" data-name="Rectangle 141" width="19.977" height="16.178" fill="#7c7c7c"/>
    </clipPath>
  </defs>
  <g id="Group_203" data-name="Group 203" transform="translate(0 0)" clip-path="url(#clip-path)">
    <path id="Path_281" data-name="Path 281" d="M1.9,12.838h.154a.511.511,0,0,0,.256-.2.327.327,0,0,0,0-.307.511.511,0,0,0-.2-.256c-.512-.256-.973-.512-1.332-.666V9.047a6.763,6.763,0,0,0,2.2-.973,4.234,4.234,0,0,0,.82-1.025,4.254,4.254,0,0,1,1.9-1.793.446.446,0,0,0,.307-.41V2.8A2.41,2.41,0,0,1,7.53,4.488a.423.423,0,0,0,.512.256,15.175,15.175,0,0,1,4.969-.563.728.728,0,0,0,.307-.1.282.282,0,0,0,.154-.256.728.728,0,0,0-.1-.307.282.282,0,0,0-.256-.154A16.613,16.613,0,0,0,8.2,3.873,3.01,3.01,0,0,0,6.66,2.234a2.037,2.037,0,0,0-1.076-.256.441.441,0,0,0-.41.41V4.642a4.827,4.827,0,0,0-2.049,2,7.534,7.534,0,0,1-.666.871,6.96,6.96,0,0,1-2.152.871A.39.39,0,0,0,0,8.791v2.92a.385.385,0,0,0,.256.359l1.537.768h.1" transform="translate(0 -0.963)" fill="#7c7c7c"/>
    <path id="Path_282" data-name="Path 282" d="M7.7,14.1a.724.724,0,1,0,.717-.82.76.76,0,0,0-.717.82" transform="translate(-3.756 -6.478)" fill="#7c7c7c"/>
    <path id="Path_283" data-name="Path 283" d="M20.366,13.565a.725.725,0,0,0-.717-.461h-.512a9.137,9.137,0,0,0,.307-5.942,10.263,10.263,0,0,0-.512-1.332A2.954,2.954,0,0,0,19.8,4.14a2.108,2.108,0,0,0-.41-1.639c0-.051-.051-.051-.051-.1A4.15,4.15,0,0,0,18.368.144.406.406,0,0,0,17.8.093a.406.406,0,0,0-.051.563,4.161,4.161,0,0,1,.615,1.127.188.188,0,0,1-.154-.051,1.164,1.164,0,0,0-1.486.768,1.207,1.207,0,0,0,.154,1.025,1.284,1.284,0,0,0-.359-.2,6.9,6.9,0,0,0-1.9-.666.65.65,0,0,0-.307.051.282.282,0,0,0-.154.256.65.65,0,0,0,.051.307.282.282,0,0,0,.256.154,5.157,5.157,0,0,1,1.639.563c2.2,1.229,3.688,4.918,2.2,8.811a.229.229,0,0,0,0,.256H1.668a.868.868,0,0,0-.717.461.781.781,0,0,0,.154.82l.922.922a3.178,3.178,0,0,0,2.254.922h12.7a3.217,3.217,0,0,0,2.254-.922l.922-.922a.635.635,0,0,0,.2-.768m-1.9-10.758a.531.531,0,0,1-.307.41.6.6,0,0,1-.512-.1.4.4,0,0,1-.1-.41c.051-.154.2-.154.359-.154h.154a3.53,3.53,0,0,1,.41.154Zm-.1,1.178a1.02,1.02,0,0,0,.615-.41v.359a1.77,1.77,0,0,1-.512,1.076A10.244,10.244,0,0,0,17.5,3.883a.882.882,0,0,0,.871.1M19.7,13.873l-.922.922a2.56,2.56,0,0,1-1.793.717H4.281a2.653,2.653,0,0,1-1.793-.717l-.922-.922v-.051l.051-.051H19.6a3891.222,3891.222,0,0,1,.1.1" transform="translate(-0.439 0)" fill="#7c7c7c"/>
  </g>
</svg>
