<svg xmlns="http://www.w3.org/2000/svg" width="28.161" height="28.18" viewBox="0 0 28.161 28.18">
  <path id="Union_8" data-name="Union 8" d="M-1229.417-3344.69a3.79,3.79,0,0,1-1.261-.845c-1.087-.884-2.168-1.774-3.255-2.662a1.4,1.4,0,0,1-.217-2.153q1.451-1.772,2.9-3.546a2.478,2.478,0,0,1,.213-.248.342.342,0,0,1,.48-.031.356.356,0,0,1,.094.493,1.075,1.075,0,0,1-.136.18l-2.023,2.476c-.048.057-.09.118-.15.2l4.982,4.075,4.486-5.484c-1.664-1.363-3.319-2.716-4.99-4.082-.353.432-.7.853-1.042,1.274a2.546,2.546,0,0,1-.2.229.36.36,0,0,1-.5.036.35.35,0,0,1-.065-.515,16.12,16.12,0,0,1,3-3.243c.863-.591,1.771-1.12,2.677-1.644a12.554,12.554,0,0,0,3.165-2.3c.722-.794,1.389-1.638,2.069-2.469.256-.313.514-.577.97-.489.053.01.14-.073.188-.13a31.208,31.208,0,0,0,2.623-3.439c.2-.334.413-.407.626-.265s.207.345-.008.7a32.516,32.516,0,0,1-2.651,3.481c-.03.039-.058.081-.1.133l.577.472c.639-.782,1.265-1.548,1.892-2.312.086-.1.171-.207.265-.3a1.577,1.577,0,0,1,2.419.018,1.978,1.978,0,0,1,.387.855,4.291,4.291,0,0,1-.5,3.247c-.176.306-.4.582-.567.892a1.5,1.5,0,0,0-.2.656.7.7,0,0,0,.661.672.725.725,0,0,0,.8-.573c.076-.394.107-.8.144-1.2a4.591,4.591,0,0,1,1.107-2.516c.207-.253.422-.5.612-.766a1.783,1.783,0,0,0-.827-2.875.754.754,0,0,0-.117-.044,2.1,2.1,0,0,1-1.086-.607,1.581,1.581,0,0,0-1.6-.312c-.057.016-.111.041-.167.056a.386.386,0,0,1-.5-.207.372.372,0,0,1,.251-.5,2.27,2.27,0,0,1,2.193.167,9.936,9.936,0,0,0,1.6.887,2.486,2.486,0,0,1,1.427,1.836v.756a4.6,4.6,0,0,1-1.21,2.1,3.94,3.94,0,0,0-.965,2.458,4.622,4.622,0,0,1-.148,1.018,1.492,1.492,0,0,1-1.914,1,1.488,1.488,0,0,1-.924-1.97,6.305,6.305,0,0,1,.61-1.037,3.786,3.786,0,0,0,.671-2.476,3.211,3.211,0,0,0-.152-.736.821.821,0,0,0-1.334-.4,1.428,1.428,0,0,0-.217.209q-.975,1.187-1.942,2.381a.349.349,0,0,0-.044.263.83.83,0,0,1-.165.778c-.411.5-.829.992-1.224,1.5-.439.569-.861,1.155-1.283,1.739-.107.148-.233.273-.414.211a.512.512,0,0,1-.292-.263.48.48,0,0,1,.082-.369c.4-.57.816-1.127,1.229-1.687.09-.121.19-.234.306-.376l-1.358-1.112c-.079.093-.153.17-.217.254a12.114,12.114,0,0,1-4.122,3.477.451.451,0,0,0-.291.5c.054.584.064,1.173.1,1.759a.8.8,0,0,0,.891.759c.658-.079,1.312-.18,1.966-.288.072-.012.156-.115.185-.194.183-.493.352-.994.526-1.492.017-.048.035-.094.056-.14a.359.359,0,0,1,.464-.237.354.354,0,0,1,.242.48c-.532,1.517-1.039,3.044-1.622,4.542a11.252,11.252,0,0,1-2.016,2.934q-2.362,2.881-4.715,5.769a1.814,1.814,0,0,1-.909.6Zm-4.207-5.107a.632.632,0,0,0,.112.969c.33.273.662.542.993.813q1.442,1.179,2.884,2.359a.625.625,0,0,0,.886.052,6.711,6.711,0,0,0,.484-.561l-4.991-4.083C-1233.392-3350.083-1233.512-3349.943-1233.624-3349.8Zm5.82-7.1,4.971,4.066a10.537,10.537,0,0,0,1.586-3.326c-.6.085-1.162.177-1.726.241a1.566,1.566,0,0,1-1.768-1.509c-.032-.542-.061-1.085-.094-1.664A10.9,10.9,0,0,0-1227.8-3356.9Zm8.824-7.105,1.362,1.114.568-.693-1.365-1.114Zm-1.732,16.45a.359.359,0,0,1-.365-.369c-.01-.142,0-.283,0-.471-.157,0-.3.006-.434,0-.264-.014-.411-.152-.409-.379s.144-.36.413-.373c.132-.006.265,0,.391,0,.106-.318-.129-.825.41-.827s.316.5.4.8a1.142,1.142,0,0,0,.3.022c.252,0,.5,0,.506.366.01.543-.489.331-.83.42,0,.137.008.284,0,.431a.359.359,0,0,1-.37.379Zm.925-4.209a.411.411,0,0,1-.4-.409.4.4,0,0,1,.409-.389.387.387,0,0,1,.389.4.4.4,0,0,1-.394.394Zm4.285-3.068a1.145,1.145,0,0,1,1.121-1.128,1.132,1.132,0,0,1,1.142,1.127,1.117,1.117,0,0,1-1.127,1.135A1.134,1.134,0,0,1-1215.5-3354.828Zm.758.019a.375.375,0,0,0,.377.357.361.361,0,0,0,.37-.383.369.369,0,0,0-.371-.362A.385.385,0,0,0-1214.744-3354.809Zm-18.092-1.064a.408.408,0,0,1-.4-.4.414.414,0,0,1,.407-.4.4.4,0,0,1,.391.407.394.394,0,0,1-.4.4Zm19.6-2.092a1.292,1.292,0,0,1,1.26-1.279,1.285,1.285,0,0,1,1.3,1.265,1.286,1.286,0,0,1-1.269,1.292h-.008A1.293,1.293,0,0,1-1213.236-3357.965Zm.76-.022a.533.533,0,0,0,.51.544.533.533,0,0,0,.529-.5.53.53,0,0,0-.51-.543h-.01A.531.531,0,0,0-1212.476-3357.988Zm-19.383-.687a4.923,4.923,0,0,1,0-.508c-.18,0-.329.005-.478,0a.347.347,0,0,1-.365-.341.357.357,0,0,1,.331-.4,2.053,2.053,0,0,1,.252-.011l.231-.012c.075-.326-.125-.8.4-.81.548,0,.311.5.413.823.126,0,.258-.005.39,0,.278.015.431.16.424.394s-.157.348-.428.358a.768.768,0,0,1-.125,0c-.224-.034-.333.047-.295.285a.826.826,0,0,1,0,.2.35.35,0,0,1-.347.359h-.036A.352.352,0,0,1-1231.86-3358.675Zm9.423-6.824a.4.4,0,0,1-.389-.41.392.392,0,0,1,.4-.392.409.409,0,0,1,.4.407.416.416,0,0,1-.4.4Zm-2.369-1a1.135,1.135,0,0,1-1.129-1.141,1.149,1.149,0,0,1,1.129-1.123,1.137,1.137,0,0,1,1.135,1.136,1.12,1.12,0,0,1-1.132,1.128Zm-.372-1.12a.377.377,0,0,0,.374.362.366.366,0,0,0,.376-.356.377.377,0,0,0-.369-.393h0A.389.389,0,0,0-1225.177-3367.614Zm4.468-.394c-.234,0-.362-.153-.373-.442,0-.123,0-.247,0-.4-.182,0-.332.009-.48,0a.353.353,0,0,1-.36-.372.357.357,0,0,1,.361-.371c.148-.012.3,0,.464,0,.005-.122.012-.211.013-.3,0-.373.117-.54.372-.544s.38.164.385.532v.311c.162,0,.3-.006.441,0a.366.366,0,0,1,.4.361c.007.229-.137.373-.4.388-.132.008-.266,0-.443,0,0,.15,0,.28,0,.41-.012.283-.142.432-.374.432Z" transform="translate(1409.792 3303.149) rotate(-3)" fill="#fff" stroke="rgba(0,0,0,0)" stroke-miterlimit="10" stroke-width="1"/>
</svg>
