<svg id="Group_239" data-name="Group 239" xmlns="http://www.w3.org/2000/svg" xmlns:xlink="http://www.w3.org/1999/xlink" width="32.101" height="28.64" viewBox="0 0 32.101 28.64">
  <defs>
    <clipPath id="clip-path">
      <rect id="Rectangle_154" data-name="Rectangle 154" width="32.101" height="28.64" fill="#fff"/>
    </clipPath>
  </defs>
  <g id="Group_238" data-name="Group 238" transform="translate(0 0)" clip-path="url(#clip-path)">
    <path id="Path_404" data-name="Path 404" d="M31.609,15.455H28.815a2.061,2.061,0,0,0-1.4.611l-4.1,4.279V12.137H23.4a1.921,1.921,0,1,0,0-3.842h-.087V4.89a.611.611,0,0,0-1.222,0V8.3H18.337L15.8,7.073h-.087L15.455,6.9a3.474,3.474,0,0,0,2.969-3.405,3.493,3.493,0,1,0-6.985,0,3.192,3.192,0,0,0,.786,2.183,2.579,2.579,0,0,0-1.135.175l-.96-.437a3.4,3.4,0,0,0-4.54,1.572L3.405,11.351a2.306,2.306,0,0,0-.087,2.008,2.472,2.472,0,0,0,1.31,1.484l.7.349a4.9,4.9,0,0,0,.437,3.667l-.087.087L2.62,22,1.135,23.488a.583.583,0,0,0,0,.873l2.881,2.881H.611a.611.611,0,1,0,0,1.222H6.636a2.51,2.51,0,0,0,1.572-.611l4.54-4.54a.793.793,0,0,1,.611-.262h6.549a5.21,5.21,0,0,0,3.842-1.659l4.366-4.628a.755.755,0,0,1,.524-.262h2.183V28.029a.611.611,0,1,0,1.222,0V16.154a.477.477,0,0,0-.437-.7M18.6,9.692h4.715a.611.611,0,1,1,0,1.222H18.337ZM14.931,1.4A2.162,2.162,0,0,1,17.114,3.58a2.183,2.183,0,1,1-4.366,0A2.162,2.162,0,0,1,14.931,1.4M10.216,8.208a2.067,2.067,0,0,1,2.794-.96l2.008.96h.087l2.27,1.048-.262,1.222L14.582,9.256l-1.4-.7a.645.645,0,0,0-.611,1.135l.786.437L11.7,13.447H7.509Zm-3.58,9.518a3.38,3.38,0,0,1,.087-2.445.086.086,0,0,1,.087-.087c0-.087,0-.087.087-.175s.087-.175.175-.262h4.89l-.611,1.222h-.786a1.737,1.737,0,0,0-1.4.611,1.732,1.732,0,0,0-.524,1.135Zm1.834,1.31a1.777,1.777,0,0,1-.524,1.31l-.873-.873a.667.667,0,0,0,.175-.437ZM6.811,7.6A2.067,2.067,0,0,1,9.6,6.636l.175.087a3.877,3.877,0,0,0-.7.96L8.557,8.819,6.636,7.946ZM5.239,13.8a1.239,1.239,0,0,1-.7-.786,1.46,1.46,0,0,1,.087-1.048l1.4-2.881,1.921.873L6.025,13.883l-.175.262Zm.96,6.549.873.873L4.89,23.4l-.873-.873ZM4.453,25.933,2.532,24.012l.611-.611.96.96a1.611,1.611,0,0,1,.437,1.048,1.107,1.107,0,0,1-.087.524m3.056,1.135a.991.991,0,0,1-.7.262H4.977a2.766,2.766,0,0,0,.786-2.008,2.583,2.583,0,0,0-.175-.873l3.143-3.143a3.171,3.171,0,0,0,.96-2.27v-.96a1.241,1.241,0,0,1,.175-.524.642.642,0,0,1,.524-.175h1.135a.232.232,0,0,1,.262.262V22.7ZM13.534,22h-.349V18.162L13.01,16.94l-.437-.437.786-1.572h.262a2.027,2.027,0,0,1,.873.349c.611.611.349,5.588.349,5.588l.087.087a1.935,1.935,0,0,1,1.484,1.222H13.534ZM22,21.48A3.981,3.981,0,0,1,20.083,22H17.551a3.234,3.234,0,0,0-1.834-2.27V15.717a2.162,2.162,0,0,0-2.183-2.183h-.262l1.31-2.707,2.707,1.31h4.628Z" transform="translate(0 0)" fill="#fff"/>
  </g>
</svg>
