<svg id="tancerze" xmlns="http://www.w3.org/2000/svg" xmlns:xlink="http://www.w3.org/1999/xlink" width="19.762" height="22.989" viewBox="0 0 19.762 22.989">
  <defs>
    <clipPath id="clip-path">
      <rect id="Rectangle_140" data-name="Rectangle 140" width="19.762" height="22.989" fill="#7c7c7c"/>
    </clipPath>
  </defs>
  <g id="Group_201" data-name="Group 201" transform="translate(0 0)" clip-path="url(#clip-path)">
    <path id="Path_279" data-name="Path 279" d="M15.072,5.588l.672.378a1.342,1.342,0,0,0-.126.588,1.57,1.57,0,0,0,2.858.883l.546.294a.154.154,0,0,0,.126.042.261.261,0,0,0,.252-.168.249.249,0,0,0-.126-.378l-.588-.336a.925.925,0,0,0,.042-.336,1.575,1.575,0,0,0-2.69-1.093l-.714-.378a.249.249,0,0,0-.378.126.256.256,0,0,0,.126.378m2.1,1.933a.951.951,0,0,1-.967-.967c0-.126.042-.21.042-.294l1.681.925a.984.984,0,0,1-.756.336" transform="translate(-8.64 -2.899)" fill="#7c7c7c"/>
    <path id="Path_280" data-name="Path 280" d="M19.334,6.052s-.336,0-.8.042a5.061,5.061,0,0,1-2.311-.462c-.294-.168-.967-.462-1.555-.756a1.571,1.571,0,0,0-2.984.672A1.579,1.579,0,0,0,13.24,7.1h.168l1.933.672L16.6,9.414l-1.429,1.765-.5-.336a.154.154,0,0,0-.126-.042H14.5l.714-1.6a.259.259,0,0,0-.042-.294l-.883-1.135a.3.3,0,1,0-.462.378l.756,1.009-.714,1.6-1.555-.126L11.9,8.91l.714-.8a.3.3,0,0,0-.42-.42l-.841.925a.309.309,0,0,0-.084.252l.462,1.891-.63.42L9.92,9.456l1.849-1.933a.3.3,0,0,0-.42-.42l-.925.967V6.808a.3.3,0,0,0-.126-.252L8.7,5.59a.3.3,0,0,0-.336.5l1.471.883V8.657l-.462.5.252-1.555c.042-.168-.084-.294-.252-.336s-.294.084-.336.252L8.7,9.456l-2.4-.588L6.39,5.884a.254.254,0,0,0-.126-.252L2.313,3.278l-.252-.546a.359.359,0,0,1,0-.294L2.1,2.311,7.23,5.421a.3.3,0,0,0,.336-.5L3.28,2.311l.42-.672h.714l.546.714a.3.3,0,0,0,.252.126.363.363,0,0,0,.252-.126L6.18,1.261a.359.359,0,0,0,0-.294A.284.284,0,0,0,5.927.8L4.919.714,4.456.126A.3.3,0,0,0,4.2,0a.363.363,0,0,0-.252.126L2.775,1.975,2.187,1.6a.533.533,0,0,0-.252-.042.328.328,0,0,0-.168.168l-.21.42a.98.98,0,0,0,0,.841l.252.462L.044,6.346a.326.326,0,0,0,.084.42c.042.042.084.042.168.042a.3.3,0,0,0,.252-.126L2.229,3.908,5.843,6.094,5.759,9.12,5,10.885v.168l-.042,4.413a.218.218,0,0,0,.084.168l1.177,1.429L4.751,21.139v.084A1.049,1.049,0,0,0,5.3,22.442a1.119,1.119,0,0,0,.5.126,1.148,1.148,0,0,0,.8-.336c.042-.042.042-.042.042-.084l2.017-4.581c0-.042,0-.042.042-.084l.084-.8,2.858.042-.21,1.555a.253.253,0,0,0,.042.168l2.017,3.993c0,.042.042.042.042.084l.126.126a1.052,1.052,0,0,0,.756.336,1.227,1.227,0,0,0,.378-.084,1,1,0,0,0,.63-.925.154.154,0,0,0-.042-.126l-.462-.967,1.135,1.387.042.042.126.084a.965.965,0,0,0,.588.168.845.845,0,0,0,.546-.168,1.028,1.028,0,0,0,.42-1.051c0-.042-.042-.084-.042-.126l-2.564-3.236.126-1.219,3.95.042a.287.287,0,0,0,.294-.294V14.457a.363.363,0,0,0-.126-.252L15.8,11.683,17.359,9.75a.315.315,0,0,0,0-.378L15.93,7.481c-.042-.042-.084-.084-.126-.084l-1.387-.5a1.512,1.512,0,0,0,.546-.883l.42.252a8.208,8.208,0,0,0,3.278.588h.168a5.287,5.287,0,0,0,.672-.042.269.269,0,0,0,.252-.336c-.126-.294-.252-.42-.42-.42M5.339,1.261l-.21.336-.252-.378ZM4.2.756l.168.252H4.036Zm5,9.246L9.29,9.54l1.3,1.933L9.037,12.524l.168-.883V10ZM6.18,9.414l2.438.63v1.177l-2.984-.588ZM6.011,21.686a.448.448,0,0,1-.546.042.509.509,0,0,1-.252-.546l1.513-4.245v-.042l.588-4.2c.042-.168-.084-.294-.252-.336a.32.32,0,0,0-.336.252l-.462,3.53-.8-.967.042-3.95,3.068.588-.21,1.3-.378,4.077Zm8.615.168a.571.571,0,0,1-.252.336.373.373,0,0,1-.462-.126l-.084-.084-1.975-3.866.21-1.555H12.9l-.126,1.387a.253.253,0,0,0,.042.168l.126.252a.315.315,0,0,0,.042.21l.126.126ZM14.5,18.071l2.564,3.278a.525.525,0,0,1-.168.378.359.359,0,0,1-.462,0l-.126-.084L13.66,18.408l-.252-.5.126-1.345h1.009l-.126,1.3c0,.084,0,.168.084.21m4.287-2.059L8.7,15.886l.21-2.606,2.269-1.513.967-.63,2.227.168,4.413,3.068ZM12.273,5.59h1.933a.968.968,0,0,1-1.933,0" transform="translate(0 0)" fill="#7c7c7c"/>
  </g>
</svg>
