<svg id="Group_227" data-name="Group 227" xmlns="http://www.w3.org/2000/svg" xmlns:xlink="http://www.w3.org/1999/xlink" width="24.882" height="31.4" viewBox="0 0 24.882 31.4">
  <defs>
    <clipPath id="clip-path">
      <rect id="Rectangle_150" data-name="Rectangle 150" width="24.882" height="31.4" fill="#fff"/>
    </clipPath>
  </defs>
  <g id="Group_226" data-name="Group 226" transform="translate(0 0)" clip-path="url(#clip-path)">
    <path id="Path_384" data-name="Path 384" d="M24.718,30.582,14.335,18.5a.38.38,0,0,0-.378-.189h-.189V13.466L23.585,7.8a.517.517,0,0,0,.252-.378.345.345,0,0,0-.252-.378L19.558,4.719a.436.436,0,0,0-.629.189.436.436,0,0,0,.189.629l3.335,1.951-8.684,4.971V2.391l3.713,2.139a.436.436,0,0,0,.629-.189.436.436,0,0,0-.189-.629L13.706,1.321V.44a.43.43,0,0,0-.44-.44H11.5a.43.43,0,0,0-.44.44V18.311h-.252a.544.544,0,0,0-.378.189L6.721,22.842a.447.447,0,0,0,.692.566L11,19.255h2.706l6.1,7.111-3.776-1.321a.553.553,0,0,0-.44.063l-3.209,2.769L9.175,25.107a.388.388,0,0,0-.44-.063L4.959,26.366l1.2-1.384a.447.447,0,0,0-.692-.566L.114,30.645a.42.42,0,0,0,.063.629.481.481,0,0,0,.315.126.544.544,0,0,0,.378-.189l2.895-3.4,5.1-1.825L12.2,28.82a.481.481,0,0,0,.315.126c.126,0,.189-.063.315-.126l3.335-2.832,5.1,1.825,2.895,3.4a.448.448,0,0,0,.378.189c.126,0,.189-.063.315-.126a.686.686,0,0,0-.126-.692M12.007.944h.818V18.311h-.818Z" transform="translate(0 0)" fill="#fff"/>
  </g>
</svg>
