<svg id="Group_241" data-name="Group 241" xmlns="http://www.w3.org/2000/svg" xmlns:xlink="http://www.w3.org/1999/xlink" width="39" height="22.562" viewBox="0 0 39 22.562">
  <defs>
    <clipPath id="clip-path">
      <rect id="Rectangle_155" data-name="Rectangle 155" width="39" height="22.562" fill="#fff"/>
    </clipPath>
  </defs>
  <g id="Group_240" data-name="Group 240" clip-path="url(#clip-path)">
    <path id="Path_405" data-name="Path 405" d="M3.384,0H1.692A1.7,1.7,0,0,0,0,1.692,1.753,1.753,0,0,0,1.128,3.3v9.589a4,4,0,0,0,3.465,3.948v2.337H.564A.551.551,0,0,0,0,19.742V22a.551.551,0,0,0,.564.564H32.715A6.293,6.293,0,0,0,39,16.277a1.7,1.7,0,0,0-1.692-1.692,1.758,1.758,0,0,0-1.692,1.692A2.8,2.8,0,0,1,32.8,19.1H26.349V16.76a4,4,0,0,0,3.465-3.948V6.446a1.753,1.753,0,0,0,1.128-1.612A1.7,1.7,0,0,0,29.25,3.143a2.8,2.8,0,0,0-2.82,2.82V7.655H17.244v-2.5A5.083,5.083,0,0,0,12.651.081M5.64,16.921h9.186v2.256H5.64ZM11.362,0H4.512M26.269,8.864v.564a.551.551,0,0,1-.564.564H17.727a.551.551,0,0,1-.564-.564V8.864Zm3.384-3.948a.551.551,0,0,1-.564.564.551.551,0,0,0-.564.564V9.508a2.8,2.8,0,0,1-2.82,2.82H17.727a2.8,2.8,0,0,1-2.82-2.82V5.157a2.8,2.8,0,0,0-2.82-2.82H1.773a.551.551,0,0,1-.564-.564.551.551,0,0,1,.564-.564H12.087a4.041,4.041,0,0,1,4.029,4.029V9.589a1.7,1.7,0,0,0,1.692,1.692h7.977a1.7,1.7,0,0,0,1.692-1.692V6.124a1.7,1.7,0,0,1,1.692-1.692c.242-.081.483.161.483.483M25.624,15.793H5.076a2.8,2.8,0,0,1-2.82-2.82V3.465h9.75A1.7,1.7,0,0,1,13.7,5.157V9.508a4.041,4.041,0,0,0,4.029,4.029H25.7a3.956,3.956,0,0,0,2.82-1.209v.645a2.873,2.873,0,0,1-2.9,2.82m-.564,3.384H15.874V16.921H25.06ZM1.048,20.306H32.634a4.041,4.041,0,0,0,4.029-4.029.564.564,0,0,1,1.128,0,5.193,5.193,0,0,1-5.157,5.157H1.048Z" fill="#fff"/>
  </g>
</svg>
