<svg id="widoczek" xmlns="http://www.w3.org/2000/svg" xmlns:xlink="http://www.w3.org/1999/xlink" width="17.815" height="17.305" viewBox="0 0 17.815 17.305">
  <defs>
    <clipPath id="clip-path">
      <rect id="Rectangle_30" data-name="Rectangle 30" width="17.815" height="17.305" transform="translate(0 0)" fill="#7c7c7c"/>
    </clipPath>
  </defs>
  <g id="Group_23" data-name="Group 23" transform="translate(0 0)" clip-path="url(#clip-path)">
    <path id="Path_60" data-name="Path 60" d="M16.6,39.343h0a.042.042,0,0,1,.043-.043c0,.043,0,.043-.043.043" transform="translate(-9.542 -22.59)" fill="#7c7c7c"/>
    <path id="Path_61" data-name="Path 61" d="M28.57,18.87c-.043,0-.128.043-.17.043l.043-.213Z" transform="translate(-16.325 -10.749)" fill="#7c7c7c"/>
    <path id="Path_62" data-name="Path 62" d="M29.113,16.853,28.9,16.6l.085-.3Z" transform="translate(-16.612 -9.369)" fill="#7c7c7c"/>
    <path id="Path_63" data-name="Path 63" d="M14.754,5.718A4.472,4.472,0,0,0,11.225,3.89C9.864,3.975,8.461,5,7.186,6.824h-.17A5.292,5.292,0,0,0,3.572,8.95H3.146C.425,9.12,0,13.584,0,13.584v5.953H17.815V9.757ZM11.267,4.485A3.811,3.811,0,0,1,14.286,6.1L16.88,9.63c-.3,0-.68.043-1.148.085l-.425-1.4-.6,1.573c-.468.085-.978.17-1.573.3l-.723-3.7-.6,2.381A5.265,5.265,0,0,0,7.908,6.824c.85-1.105,2.041-2.253,3.359-2.339m.68,9.227v1.446a9.05,9.05,0,0,0-1.148.34,13.728,13.728,0,0,0-5.357-1.786,32.208,32.208,0,0,1,5.825-2.466l-.638,2.466Zm-.6-.6.51-2.083.17-.638.043-.213.213-.765.085-.3.085.51.128.6.085.34.043.255.425,2.253H11.352Zm1.191.6h1.318l-.128-.765h1.105v1.7a18.464,18.464,0,0,0-2.3.383Zm.765-2.976c.425-.085.808-.17,1.191-.213l-.808,2.083Zm.935,1.743.808-2.041.255-.638.17.6.638,2.083ZM7.1,7.461a4.558,4.558,0,0,1,4.337,1.871l.213.255-.255.978a28.363,28.363,0,0,0-3.657,1.318A6.907,6.907,0,0,0,4.209,9.077,4.831,4.831,0,0,1,7.1,7.461M3.189,9.587c1.828-.213,3.444,1.786,4,2.551-1.446.68-2.509,1.276-2.806,1.446A16.049,16.049,0,0,0,2.339,13.5c-.6,0-1.191.043-1.743.085.17-.978.765-3.784,2.594-4M6.76,18.3c-.043.085-.085.128-.128.213s-.043.128-.085.17-.043.085-.043.17c0,.043-.043.085-.043.128H.6v-4.8c.6-.043,1.191-.085,1.786-.085a16.483,16.483,0,0,1,7.7,1.7l-.255.128c-.255.128-.553.255-.765.383-.128.085-.213.128-.34.213-.085.043-.17.128-.255.17-.043.043-.085.043-.128.085-.085.043-.17.128-.255.17a1.292,1.292,0,0,1-.3.213c-.085.085-.17.128-.213.213l-.17.17a5.386,5.386,0,0,0-.468.553c-.085.085-.128.17-.17.213m10.417.68H7.058a.042.042,0,0,1,.043-.043c0-.043.043-.085.043-.128.043-.043.043-.128.085-.213s.085-.128.128-.213c.043-.043.085-.128.128-.17.085-.085.128-.17.213-.255.043-.085.128-.128.213-.213l.043-.043c.085-.043.128-.128.213-.17a2.358,2.358,0,0,1,.34-.255.929.929,0,0,1,.213-.128c.085-.085.213-.128.3-.213a.855.855,0,0,1,.34-.17c.128-.043.213-.128.34-.17a2.525,2.525,0,0,0,.34-.17,1.51,1.51,0,0,0,.383-.17,1.51,1.51,0,0,0,.383-.17,18.569,18.569,0,0,1,6.165-.978h.17v3.869Zm0-4.422h-.17c-.51,0-1.063,0-1.573.043V12.946H16.71L15.9,10.31a8.409,8.409,0,0,1,1.276-.085Z" transform="translate(0 -2.232)" fill="#7c7c7c"/>
    <path id="Path_64" data-name="Path 64" d="M7.873,2.339H.9v-.3A1.416,1.416,0,0,1,2.3.638a1.358,1.358,0,0,1,.6.128A2.1,2.1,0,0,1,4.514,0,2.058,2.058,0,0,1,6.045.68,1.177,1.177,0,0,1,6.427.638a1.416,1.416,0,0,1,1.4,1.4v.3Zm-6.293-.6H7.235a.84.84,0,0,0-.765-.51,1.241,1.241,0,0,0-.383.085l-.213.128-.128-.213A1.471,1.471,0,0,0,4.557.6a1.5,1.5,0,0,0-1.276.723l-.17.3L2.856,1.4a.817.817,0,0,0-.51-.17.84.84,0,0,0-.765.51" transform="translate(-0.517 0)" fill="#7c7c7c"/>
    <path id="Path_65" data-name="Path 65" d="M37.548,5.5A1.148,1.148,0,1,1,38.7,4.348,1.143,1.143,0,0,1,37.548,5.5m0-1.7a.553.553,0,1,0,.553.553.563.563,0,0,0-.553-.553" transform="translate(-20.923 -1.839)" fill="#7c7c7c"/>
  </g>
</svg>
